<svg xmlns="http://www.w3.org/2000/svg" xmlns:xlink="http://www.w3.org/1999/xlink" viewBox="0 0 500 500"><defs><clipPath id="freepik--clip-path--inject-116"><path d="M199.71,236.34s-42.07-53.41-70.26-52-71.62,50.79-71.62,50.79S129.56,271.41,199.71,236.34Z" style="fill:none"></path></clipPath><clipPath id="freepik--clip-path-2--inject-116"><path d="M297.61,236.34s42.07-53.41,70.26-52,71.62,50.79,71.62,50.79S367.76,271.41,297.61,236.34Z" style="fill:none"></path></clipPath></defs><g id="freepik--background-complete--inject-116"><rect x="416.78" y="398.49" width="33.12" height="0.25" style="fill:#ebebeb"></rect><rect x="322.53" y="401.21" width="8.69" height="0.25" style="fill:#ebebeb"></rect><rect x="396.59" y="389.21" width="19.19" height="0.25" style="fill:#ebebeb"></rect><rect x="52.46" y="390.89" width="43.19" height="0.25" style="fill:#ebebeb"></rect><rect x="104.56" y="390.89" width="6.33" height="0.25" style="fill:#ebebeb"></rect><rect x="131.47" y="395.11" width="93.68" height="0.25" style="fill:#ebebeb"></rect><path d="M237,337.8H43.91a5.71,5.71,0,0,1-5.7-5.71V60.66A5.71,5.71,0,0,1,43.91,55H237a5.71,5.71,0,0,1,5.71,5.71V332.09A5.71,5.71,0,0,1,237,337.8ZM43.91,55.2a5.46,5.46,0,0,0-5.45,5.46V332.09a5.46,5.46,0,0,0,5.45,5.46H237a5.47,5.47,0,0,0,5.46-5.46V60.66A5.47,5.47,0,0,0,237,55.2Z" style="fill:#ebebeb"></path><path d="M453.31,337.8H260.21a5.72,5.72,0,0,1-5.71-5.71V60.66A5.72,5.72,0,0,1,260.21,55h193.1A5.71,5.71,0,0,1,459,60.66V332.09A5.71,5.71,0,0,1,453.31,337.8ZM260.21,55.2a5.47,5.47,0,0,0-5.46,5.46V332.09a5.47,5.47,0,0,0,5.46,5.46h193.1a5.47,5.47,0,0,0,5.46-5.46V60.66a5.47,5.47,0,0,0-5.46-5.46Z" style="fill:#ebebeb"></path><rect y="382.4" width="500" height="0.25" style="fill:#ebebeb"></rect><circle cx="250" cy="197.74" r="137.66" transform="translate(-66.6 234.69) rotate(-45)" style="fill:#e6e6e6"></circle><path d="M268.43,70l17.35,10.41V97s-13.16-1.8-17.35-9c0,0,3.59-1.52-6.59-7.59S254.06,67,268.43,70Z" style="fill:#fafafa"></path><path d="M258.85,201.72l-10,4.79s-3,5.79-2.39,5.59-2.19,12-1.6,12.17-5.78,5.39-5.78,5.39l-3,7.38v8.58l14.41,19.55,10.53,6-9.18,50.27,3.79,1.4,47.88-35.12,3.19-8.57,14.17-5.59,7.58-19.75,8.58-10s.8-10,0-9.77-4.59,1.59-4.59,1.59l-7.18-5.39s-15.16-2.79-16-2-3.18-9.28-3.18-9.28l-14-3.89-14.57-9.58-10.57,2Z" style="fill:#fafafa"></path><path d="M231.69,177h7.71l11,5.75,20.48,5.13,1,1.64-20.3-.32,3.76-2.35-3-1.92-8.18-.19,1-1-8.46-4.33s-5.3-1.26-5.5-.66l-2.2.27Z" style="fill:#fafafa"></path><polygon points="247.55 189.55 245.68 187.73 242.62 187.88 243.89 189.55 247.55 189.55" style="fill:#fafafa"></polygon><path d="M296,70h-2.39l17.05,10.22,2.7,2.91,16.76,9.66L333.37,97l2.69,9.28,9,7.18-4.19,3,9.58,12h3.29l1.2-4.79-7.19-15,10,5.58S336.36,81,296,70Z" style="fill:#fafafa"></path><path d="M366.14,125.11h-2.59l-4.32-5.69L354.62,132s2.85,14.67,3.07,15.57-1.28,3-1.28,3l1.28,16.16L361,172.4l2.54,13.76,11.28,15.56L384,188.64l1.49,3.21S387,158.63,366.14,125.11Z" style="fill:#fafafa"></path><polygon points="298.95 83.14 295.96 83.14 295.96 86.8 298.95 88.6 301.65 88.6 301.65 85.87 298.95 83.14" style="fill:#fafafa"></polygon><polygon points="317.21 90.39 321.7 95.18 322.89 99.2 327.38 103.56 329.18 100.87 332.47 103.56 332.47 100.57 330.08 96.98 317.21 90.39" style="fill:#fafafa"></polygon><path d="M285.79,122.12s-21,7.78-28.74,12.57-6.52,15-6.52,15l-12.63,7.13,3,13.77-3,1.79L233.11,161s-16.76-2.39-23.76-1.19-8.56,15-8.56,15L205,186.16l9.58.6,1.2-6.58,10.17.59-6.58,12.57,12,1.8,1.17,8.83,12,9.13s2.39,3,0,4.19-59.26-32.92-64.65-41.3S167.57,144.56,173,128.4c4.38-13.13,12.5-25.26,15.08-33.2v0l.09-.27h0a4.41,4.41,0,0,0,.19-.66c.73-3.12-1.75-5.1-3.69-5.65-2.09-.6-6,1.8-6,1.8H171l7.93-4.53,3.3-3.48,2.09-1.87,7.78-3.29-.29-2.4c8.37-4.79,14.66-5.54,14.66-5.54l-5.69,4.34h6L208,80.41h12s-3-.79,4.19-4.75S254.66,70,254.66,70l-7.18,10.41L263,89.2l-1.8,6.58-10.71-3V89.2l-6.64-4-.6,7-2.39,3-3-2.39-8.44,8.38,15,14.63L246.88,97l21.55,4.79Z" style="fill:#fafafa"></path><circle cx="78.23" cy="116.25" r="26.32" transform="translate(-52.88 165.68) rotate(-76.72)" style="fill:#fafafa"></circle><circle cx="86.14" cy="121.99" r="16.36" transform="translate(-40.13 42.25) rotate(-22.5)" style="fill:#ebebeb"></circle><circle cx="88.64" cy="123.47" r="7.22" style="fill:#e0e0e0"></circle><path d="M89.44,111.54a5.91,5.91,0,1,1-5.91-5.91A5.91,5.91,0,0,1,89.44,111.54Z" style="fill:#fff"></path><polygon points="374.86 92.15 404.75 69.72 410.19 82.49 380.22 104.68 374.86 92.15" style="fill:#f5f5f5"></polygon><path d="M374.79,92.11a.25.25,0,0,0,.25.09.2.2,0,0,0,.08,0l3.18-2.38,1.14,2.71-3.25,2.43a.24.24,0,0,0-.05.33.25.25,0,0,0,.25.09l.08,0,3.16-2.36,1.14,2.72-3.23,2.39a.25.25,0,0,0,0,.34.22.22,0,0,0,.25.08s.05,0,.08,0L381,96.11l1.13,2.71-3.19,2.37a.24.24,0,0,0,.2.42.12.12,0,0,0,.08,0l3.1-2.3,1.14,2.72-3.17,2.34a.24.24,0,0,0-.05.33.23.23,0,0,0,.25.09.2.2,0,0,0,.08,0l16.14-11.93,3.49,4.61a.25.25,0,0,0,.25.09.2.2,0,0,0,.08,0,.23.23,0,0,0,.05-.33l-3.49-4.61,13.28-9.81a.24.24,0,0,0-.28-.39l-3.27,2.42L405.62,82,409,79.49a.24.24,0,1,0-.28-.38l-3.26,2.41-1.16-2.74,3.34-2.48a.24.24,0,0,0,.05-.34.25.25,0,0,0-.33,0l-3.25,2.42-1.16-2.75,3.33-2.48a.24.24,0,1,0-.28-.38l-3.24,2.41-1.16-2.74,3.32-2.48a.24.24,0,0,0,.05-.34.24.24,0,0,0-.33,0L401.33,72a.23.23,0,0,0-.2,0,.25.25,0,0,0-.14.26l-4.24,3.17a.21.21,0,0,0-.19,0,.24.24,0,0,0-.14.26l-4.24,3.17a.25.25,0,0,0-.19,0,.24.24,0,0,0-.14.25l-4.25,3.18a.21.21,0,0,0-.19,0,.23.23,0,0,0-.14.24L383,85.66a.23.23,0,0,0-.18,0,.23.23,0,0,0-.14.24l-4.25,3.18a.28.28,0,0,0-.18,0,.23.23,0,0,0-.14.24l-3.29,2.46A.23.23,0,0,0,374.79,92.11Zm12.29,3-1.15-2.72,4.2-3.12L391.27,92Zm4.38-2.66,1.15,2.73-4.2,3.1-1.15-2.72Zm4.79-4.14-1.15-2.74,4.19-3.11,1.16,2.74Zm4.39-2.67,1.16,2.74-4.2,3.11-1.16-2.73Zm-10.31,2.89-1.15-2.72,4.19-3.13,1.15,2.74ZM389,85.37l-1.15-2.72L392,79.52l1.15,2.73Zm3.43-6.14,4.18-3.13,1.16,2.74L393.57,82Zm5.53.06L399.1,82l-4.19,3.11-1.15-2.73Zm-2.09,9.33-1.12.83L393,87.16l1.71-1.27Zm-1.5,1.11-2.7,2L390.52,89l2.1-1.56ZM385.74,92l-1.14-2.72,4.19-3.12,1.15,2.72Zm-1.33-3.17-1.14-2.72,4.18-3.13,1.15,2.73Zm17.93-13.36-4.19,3.12L397,75.81l4.19-3.13Zm1.35,3.19-4.19,3.12L398.34,79l4.19-3.12ZM405,81.81l-4.2,3.11-1.15-2.73,4.19-3.12Zm1.35,3.2-4.2,3.1L401,85.37l4.2-3.11Zm-9.63,7.11L395,89.83l1-.76,1.15,2.73Zm-.38.29L393,94.9l-1.15-2.72,2.79-2.07ZM382.68,99l4.19-3.11L388,98.59l-4.2,3.11Zm-1.33-3.16,4.19-3.12,1.14,2.72-4.19,3.11ZM380,92.65l4.19-3.12,1.14,2.72-4.19,3.12Zm-1.33-3.16,4.19-3.13L384,89.08l-4.19,3.12Z" style="fill:#e6e6e6"></path><circle cx="406.75" cy="103.15" r="13.79" transform="translate(126.6 415.56) rotate(-62.35)" style="fill:#fafafa"></circle><circle cx="402.13" cy="105.37" r="8.57" transform="translate(146.51 433.19) rotate(-66.74)" style="fill:#ebebeb"></circle><circle cx="400.7" cy="105.89" r="3.78" transform="translate(10.96 246.87) rotate(-34.69)" style="fill:#e0e0e0"></circle><path d="M401.41,99.67a3.1,3.1,0,1,0,3.6-2.49A3.1,3.1,0,0,0,401.41,99.67Z" style="fill:#fff"></path><path d="M416.84,117.43l.08,0a.24.24,0,0,0,.05-.33l-4.45-5.87a.24.24,0,0,0-.38.28l4.45,5.87A.25.25,0,0,0,416.84,117.43Z" style="fill:#e0e0e0"></path><polygon points="431.87 102.46 437.46 114.86 407.49 137.51 401.81 125.07 431.87 102.46" style="fill:#f5f5f5"></polygon><path d="M401.89,125a.25.25,0,0,0,.25.09l.08,0,3.11-2.34,1.21,2.65-3.25,2.44a.25.25,0,0,0-.05.34.22.22,0,0,0,.25.08.18.18,0,0,0,.09,0l3.17-2.38,1.21,2.65-3.32,2.49a.25.25,0,0,0,0,.34.22.22,0,0,0,.25.08s0,0,.08,0l3.23-2.42,1.21,2.65L406,134.08a.24.24,0,0,0,.2.42l.08,0,3.3-2.47,1.13,2.48a.24.24,0,0,0,.14.12l-3.5,2.63a.24.24,0,0,0-.05.33.25.25,0,0,0,.25.09l.09,0,29.89-22.44a.24.24,0,0,0,0-.33.25.25,0,0,0-.33,0L434,117.2a.06.06,0,0,1,0,0l-1.2-2.61,3.36-2.53a.23.23,0,0,0,.05-.33.24.24,0,0,0-.33,0l-3.28,2.46-1.21-2.65,3.42-2.57a.24.24,0,0,0,.05-.34.24.24,0,0,0-.33,0L431.2,111,430,108.36l3.49-2.61a.24.24,0,0,0,0-.33.23.23,0,0,0-.33,0l-3.4,2.55-1.21-2.65,3.54-2.66a.24.24,0,0,0-.28-.38l-29.89,22.44A.23.23,0,0,0,401.89,125Zm15.6-3.7-1.22-2.65,4.19-3.14,1.21,2.66Zm4.38-2.69,1.21,2.65-4.18,3.14-1.21-2.65Zm-5.8-.4-1.21-2.65,4.18-3.14,1.21,2.65Zm3.36-6.08,4.18-3.14,1.21,2.65-4.18,3.14Zm5.59,0,1.22,2.66-4.18,3.13-1.22-2.65Zm1.42,3.1,1.21,2.65L423.47,121l-1.21-2.65Zm1.41,3.09,1.15,2.51a.23.23,0,0,0,.11.11l-4.24,3.18a.17.17,0,0,0,0-.07l-1.19-2.59Zm-3.31,6-4.24,3.18a.15.15,0,0,0,0-.07l-1.19-2.59,4.18-3.14,1.15,2.5A.25.25,0,0,0,424.54,124.32ZM420,127.74l-4.25,3.19a.11.11,0,0,0,0-.08l-1.18-2.58,4.18-3.14,1.15,2.49A.2.2,0,0,0,420,127.74Zm-5.65.09-1.21-2.65L417.3,122l1.21,2.65Zm-1.41-3.1-1.22-2.65,4.19-3.14,1.21,2.66Zm-1.42-3.09L410.29,119l4.18-3.14,1.21,2.65Zm17.89-13.43-4.18,3.14L424,108.7l4.18-3.14Zm1.42,3.1-4.18,3.13-1.22-2.65,4.18-3.14Zm1.41,3.09L428,117.54l-1.21-2.65,4.18-3.14Zm1.45,3.06-4.22,3.18s0,0,0-.06l-1.19-2.6,4.18-3.14,1.15,2.51A.27.27,0,0,0,433.67,117.46ZM410,131.7l4.19-3.14,1.13,2.49a.25.25,0,0,0,.13.12l-4.25,3.19a.29.29,0,0,0,0-.09Zm-1.41-3.09,4.18-3.14,1.21,2.65-4.18,3.14Zm-1.41-3.1,4.18-3.14,1.21,2.66-4.18,3.13Zm-1.42-3.09,4.18-3.14,1.21,2.65-4.18,3.14Z" style="fill:#e6e6e6"></path></g><g id="freepik--Shadow--inject-116"><ellipse id="freepik--path--inject-116" cx="250" cy="415.69" rx="193.89" ry="11.32" style="fill:#f5f5f5"></ellipse></g><g id="freepik--Eyes--inject-116"><path d="M95.89,217.94h0v-.29A2.81,2.81,0,0,0,95.89,217.94Z" style="opacity:0.30000000000000004"></path><g style="clip-path:url(#freepik--clip-path--inject-116)"><path d="M199.71,236.34s-42.07-53.41-70.26-52-71.62,50.79-71.62,50.79S129.56,271.41,199.71,236.34Z" style="fill:#407BFF"></path><path d="M199.71,236.34s-42.07-53.41-70.26-52-71.62,50.79-71.62,50.79S129.56,271.41,199.71,236.34Z" style="fill:#fafafa;opacity:0.9"></path><path d="M195,238.52c-1.3.52-2.84,1-4.54,1.64-.86.3-1.76.64-2.72,1l-3,.91-3.32,1-3.62.91c-2.49.68-5.21,1.17-8.08,1.76-1.43.31-2.93.49-4.45.75s-3.09.5-4.71.67a173.53,173.53,0,0,1-45.66-.61A214.79,214.79,0,0,1,88.18,241c-4.56-1.25-9.18-2.66-13.8-4.27-2.32-.79-4.63-1.66-6.94-2.55l-1.73-.69-.09,0h0s0,0,0,0l.05,0h0L66,233c-5.67,2.14-9.87,2.77-12.89,2.74l-.32.36c2.26,1,4.46,2.07,6.76,3.07l3.4,1.39,1.82.7c2.44.89,4.86,1.75,7.28,2.53q7.25,2.35,14.4,4.08a197.34,197.34,0,0,0,27.71,4.71,162.83,162.83,0,0,0,46.94-2c1.64-.28,3.22-.65,4.76-1s3-.68,4.48-1.1c2.87-.82,5.58-1.53,8.05-2.43l3.59-1.22,3.27-1.28,3-1.19c.94-.39,1.82-.82,2.65-1.2,1.66-.77,3.15-1.42,4.4-2.06l3.14-1.66,2.57-1.37-2.7,1.1Z" style="fill:#407BFF"></path><path d="M99,215.65A30.83,30.83,0,0,0,130,247.13a32.15,32.15,0,0,0,32-31.48,30.81,30.81,0,0,0-30.93-31.48,29.93,29.93,0,0,0-3.15.16A32.18,32.18,0,0,0,99,215.65Z" style="fill:#407BFF"></path><path d="M99.08,215.3v1.39c1,24.62,23,29.46,23,29.46-8-3-12.16-10.44-14.33-17.51a10.08,10.08,0,0,1,9.69-13h.12a12.34,12.34,0,0,1-.14-2.11,13.67,13.67,0,0,1,13.63-13.37,13.11,13.11,0,0,1,13.14,13.37,12.4,12.4,0,0,1-.24,2.11h0a10.06,10.06,0,0,1,9.74,12.76c-2,6.94-6,14.15-13.65,17.1a34,34,0,0,0,10.6-6c5.47-4.52,11-12,11.4-23.85A30.81,30.81,0,0,0,131.1,184.2,32.18,32.18,0,0,0,99.08,215.3Z" style="opacity:0.30000000000000004"></path><path d="M117.37,213.54a13.44,13.44,0,0,0,.13,2.11,13.1,13.1,0,0,0,13,11.25,13.63,13.63,0,0,0,13.37-11.25,10.65,10.65,0,0,0,.23-2.11A13.09,13.09,0,0,0,131,200.17,13.67,13.67,0,0,0,117.37,213.54Z" style="opacity:0.7000000000000001"></path><path d="M131.34,200.42A10.65,10.65,0,0,0,142,211.31a11.13,11.13,0,0,0,11.09-10.89,10.67,10.67,0,0,0-10.71-10.9A11.13,11.13,0,0,0,131.34,200.42Z" style="fill:#fafafa;opacity:0.7000000000000001"></path><path d="M195,238.52c-1.3.52-2.84,1-4.54,1.64-.86.3-1.76.64-2.72,1l-3,.91-3.32,1-3.62.91c-2.49.68-5.21,1.17-8.08,1.76-1.43.31-2.93.49-4.45.75s-3.09.5-4.71.67a173.53,173.53,0,0,1-45.66-.61A214.79,214.79,0,0,1,88.18,241c-4.56-1.25-9.18-2.66-13.8-4.27-2.32-.79-4.63-1.66-6.94-2.55l-1.73-.69-.09,0h0s0,0,0,0l.05,0h0L66,233c-5.67,2.14-9.87,2.77-12.89,2.74l-.32.36c2.26,1,4.46,2.07,6.76,3.07l3.4,1.39,1.82.7c2.44.89,4.86,1.75,7.28,2.53q7.25,2.35,14.4,4.08a197.34,197.34,0,0,0,27.71,4.71,162.83,162.83,0,0,0,46.94-2c1.64-.28,3.22-.65,4.76-1s3-.68,4.48-1.1c2.87-.82,5.58-1.53,8.05-2.43l3.59-1.22,3.27-1.28,3-1.19c.94-.39,1.82-.82,2.65-1.2,1.66-.77,3.15-1.42,4.4-2.06l3.14-1.66,2.57-1.37-2.7,1.1Z" style="fill:#fff;opacity:0.7000000000000001"></path></g><path d="M170.23,176.79s-.14.48-.45,1.31a28.75,28.75,0,0,1-1.53,3.41,23.39,23.39,0,0,1-3.17,4.63,17.25,17.25,0,0,1-13,6,16,16,0,0,1-5.87-1,9.76,9.76,0,0,1-3.39-2.1c-.68-.7-.89-1.29-.7-1.67.42-.79,2.31-.54,5-.55a22.83,22.83,0,0,0,9.62-1.94,77.89,77.89,0,0,0,9.22-5.4c1.26-.82,2.33-1.49,3.09-1.94S170.23,176.79,170.23,176.79Z" style="fill:#263238"></path><path d="M193.62,197.63s-.17.41-.56,1.14a10.11,10.11,0,0,1-.8,1.26,13.23,13.23,0,0,1-1.26,1.55,13.85,13.85,0,0,1-1.8,1.64,16.34,16.34,0,0,1-2.36,1.55,17.61,17.61,0,0,1-6.15,1.91,21.65,21.65,0,0,1-6.46-.33,17.84,17.84,0,0,1-2.7-.82,14.21,14.21,0,0,1-2.21-1.05c-2.6-1.55-3.62-3.23-3.18-3.92s2.21-.52,4.65-.24c.61.06,1.27.15,2,.19s1.45.08,2.22.14a41.89,41.89,0,0,0,5-.18c1.76-.2,3.45-.42,5-.66.78-.15,1.56-.25,2.27-.42s1.4-.31,2-.47,1.2-.33,1.73-.48a13.65,13.65,0,0,0,1.34-.42Z" style="fill:#263238"></path><path d="M206.07,223s-.35.23-1,.59a14.27,14.27,0,0,1-2.92,1.19,17.11,17.11,0,0,1-4.64.7,17.63,17.63,0,0,1-5.66-.89,22.79,22.79,0,0,1-5.14-2.53,17.52,17.52,0,0,1-3.53-3.07c-1.74-2-2.24-3.74-1.64-4.32s2.18-.1,4.3.8l3.62,1.55c1.36.54,2.83,1.12,4.4,1.67s3.06,1.06,4.46,1.59,2.71,1,3.85,1.38,2.12.74,2.81,1S206.07,223,206.07,223Z" style="fill:#263238"></path><path d="M92.66,176.15s.49.18,1.33.56,2,.94,3.38,1.64c2.75,1.4,6.14,3.27,9.34,4.66a26.3,26.3,0,0,0,9.07,2c2.6.18,4.58.16,5.16,1.19.27.5.12,1.22-.51,2.05a9,9,0,0,1-3.35,2.5,15.59,15.59,0,0,1-6.09,1.37,17.68,17.68,0,0,1-7.65-1.52,16.75,16.75,0,0,1-6-4.53,21.46,21.46,0,0,1-3.06-4.9A26.22,26.22,0,0,1,93,177.56C92.76,176.67,92.66,176.15,92.66,176.15Z" style="fill:#263238"></path><path d="M69,194.63l1.3.26c.4.1.87.2,1.43.29s1.14.22,1.81.29,1.33.21,2.07.27,1.48.14,2.25.24c1.55.12,3.16.26,4.85.45s3.29.23,4.79.26c.74,0,1.47,0,2.15,0s1.33,0,1.94,0c2.41-.07,4.27-.06,4.89.94s-.3,2.85-2.93,4.6a12.5,12.5,0,0,1-2.25,1.2,16.48,16.48,0,0,1-2.78.93,20.92,20.92,0,0,1-6.7.42,16.5,16.5,0,0,1-6.34-2.12,15.78,15.78,0,0,1-2.37-1.74A13.06,13.06,0,0,1,71.31,199a11.29,11.29,0,0,1-1.18-1.72,8,8,0,0,1-.71-1.4C69.09,195.08,69,194.63,69,194.63Z" style="fill:#263238"></path><path d="M54.06,217.34s.45-.13,1.2-.3,1.8-.41,3-.69,2.57-.61,4-.9a40.69,40.69,0,0,1,4.53-.77c3.17-.37,6-.83,8.33-1.08s4-.18,4.68.8-.1,2.72-2.22,4.55a15.91,15.91,0,0,1-4.13,2.5,21.31,21.31,0,0,1-5.72,1.5,16,16,0,0,1-5.89-.49,15.72,15.72,0,0,1-4.43-2,13.26,13.26,0,0,1-2.55-2.14C54.33,217.7,54.06,217.34,54.06,217.34Z" style="fill:#263238"></path><path d="M132,160.77s.08.49.16,1.31.15,2,.24,3.3c.21,2.7.48,6,.83,8.91,0,.19,0,.38,0,.55l.11.52c.08.33.11.69.19,1a18.88,18.88,0,0,0,.58,1.84c.17.61.49,1.12.7,1.68s.53,1.05.82,1.5c1.1,1.94,2.11,3.36,1.72,4.46-.17.54-.82.91-1.77,1a7.42,7.42,0,0,1-3.74-.93,12.39,12.39,0,0,1-2.25-1.48,13.55,13.55,0,0,1-2.11-2.36,14.43,14.43,0,0,1-1.69-3.11,16.49,16.49,0,0,1-.52-1.77c-.08-.31-.16-.61-.23-.92s-.08-.62-.12-.93c-.06-.63-.1-1.25-.11-1.85a12.36,12.36,0,0,1,.17-1.75c.08-.56.18-1.11.29-1.64s.34-1,.52-1.47a16.75,16.75,0,0,1,2.62-4.56,18.89,18.89,0,0,1,2.51-2.48A12.87,12.87,0,0,1,132,160.77Z" style="fill:#263238"></path><path d="M191.52,227.33c-2.89-2.91-6.45-6.44-10.68-10.41S171.69,208.55,166,204c-2.83-2.25-5.88-4.49-9.13-6.67a80.84,80.84,0,0,0-10.43-6,38.46,38.46,0,0,0-11.72-3.69l-1.51-.16c-.49,0-1,0-1.49,0a22.74,22.74,0,0,0-3,.24,36.41,36.41,0,0,0-6.32,1.65,70.27,70.27,0,0,0-12.7,6.23,139.42,139.42,0,0,0-12.45,8.65A262.21,262.21,0,0,0,73.1,225.7c-2,2-3.89,3.91-5.76,5.86L66,233l-.32.34h0l-.05,0s0,0,0,0h0l.09,0,1.73.69c2.31.89,4.62,1.76,6.94,2.55,4.62,1.61,9.24,3,13.8,4.27a214.79,214.79,0,0,0,26.65,5.51,173.53,173.53,0,0,0,45.66.61c1.62-.17,3.19-.42,4.71-.67s3-.44,4.45-.75c2.87-.59,5.59-1.08,8.08-1.76l3.62-.91,3.32-1,3-.91c1-.31,1.86-.65,2.72-1,1.7-.62,3.24-1.12,4.54-1.64l3.27-1.35,2.7-1.1C200.51,236.4,197.32,233.14,191.52,227.33Z" style="fill:none"></path><path d="M193.54,228.55s2.5,9.6-3.36,11.09-3.43,2.41-3.43,2.41l14.18-5.82Z" style="fill:#407BFF"></path><path d="M193.54,228.55s2.5,9.6-3.36,11.09-3.43,2.41-3.43,2.41l14.18-5.82Z" style="fill:#fff;opacity:0.7000000000000001"></path><path d="M200.93,236.07c-.42.34-3.62-2.93-9.4-8.74-2.9-2.9-6.47-6.43-10.69-10.4S171.69,208.55,166,204c-2.83-2.25-5.88-4.5-9.13-6.67a81,81,0,0,0-10.44-6,38.34,38.34,0,0,0-11.7-3.69l-1.51-.16c-.51,0-1,0-1.5,0a22.74,22.74,0,0,0-3,.24,37.33,37.33,0,0,0-6.32,1.65,70.27,70.27,0,0,0-12.7,6.23,139.42,139.42,0,0,0-12.45,8.65A263.53,263.53,0,0,0,73.1,225.7c-2,2-3.89,3.92-5.76,5.86L66,233c-5.67,2.14-9.87,2.77-12.89,2.74-4.75,0-6.58-1.72-6.58-1.72l4.08-.22a10.65,10.65,0,0,0,7.31-3.47l0,0c.79-.87,1.6-1.74,2.4-2.61.47-.51,1-1,1.42-1.51,1.91-2,3.88-4,5.89-6a250.41,250.41,0,0,1,25-22,140.57,140.57,0,0,1,13.27-9,75.91,75.91,0,0,1,14.22-6.64,42.79,42.79,0,0,1,7.65-1.8,27.94,27.94,0,0,1,4-.23c.68,0,1.35,0,2,.07l1.94.25a43.8,43.8,0,0,1,13.66,4.67,83.59,83.59,0,0,1,11,6.89c3.33,2.43,6.4,4.9,9.22,7.37a193.07,193.07,0,0,1,14.38,14c4,4.34,7.28,8.22,9.86,11.46C198.94,231.81,201.35,235.74,200.93,236.07Z" style="fill:#263238"></path><path d="M438.32,218.17c-13.74-19-32-33.6-51.52-41-21.56-7.19-43.18-2.3-64.25,14.52l-.47-.58c21.29-17,43.15-21.93,65-14.65,19.64,7.48,38.06,22.14,51.88,41.29Z" style="fill:#407BFF"></path><path d="M300.11,214.79l-.61-.44a102.53,102.53,0,0,1,9.84-11.67l.54.52A101.25,101.25,0,0,0,300.11,214.79Z" style="fill:#407BFF"></path><path d="M401.43,217.94h0v-.29A2.81,2.81,0,0,1,401.43,217.94Z" style="opacity:0.30000000000000004"></path><g style="clip-path:url(#freepik--clip-path-2--inject-116)"><path d="M297.61,236.34s42.07-53.41,70.26-52,71.62,50.79,71.62,50.79S367.76,271.41,297.61,236.34Z" style="fill:#407BFF"></path><path d="M297.61,236.34s42.07-53.41,70.26-52,71.62,50.79,71.62,50.79S367.76,271.41,297.61,236.34Z" style="fill:#fafafa;opacity:0.9"></path><path d="M302.36,238.52c1.29.52,2.83,1,4.54,1.64.86.3,1.75.64,2.71,1l3,.91,3.31,1,3.63.91c2.49.68,5.21,1.17,8.07,1.76,1.43.31,2.94.49,4.46.75s3.09.5,4.71.67a173.53,173.53,0,0,0,45.66-.61A214.65,214.65,0,0,0,409.13,241c4.57-1.25,9.18-2.66,13.81-4.27,2.32-.79,4.62-1.66,6.94-2.55l1.72-.69.1,0h0s0,0,0,0l-.05,0h0l-.32-.34c5.67,2.14,9.87,2.77,12.89,2.74l.32.36c-2.26,1-4.47,2.07-6.76,3.07l-3.4,1.39-1.83.7c-2.43.89-4.85,1.75-7.27,2.53q-7.26,2.35-14.4,4.08a197.83,197.83,0,0,1-27.71,4.71,162.83,162.83,0,0,1-46.94-2c-1.64-.28-3.22-.65-4.76-1s-3-.68-4.48-1.1c-2.87-.82-5.59-1.53-8.06-2.43l-3.59-1.22-3.26-1.28-3-1.19c-.93-.39-1.81-.82-2.64-1.2-1.66-.77-3.15-1.42-4.4-2.06L299,237.44l-2.57-1.37,2.7,1.1Z" style="fill:#407BFF"></path><path d="M398.29,215.65a30.83,30.83,0,0,1-30.93,31.48,32.15,32.15,0,0,1-32-31.48,30.81,30.81,0,0,1,30.92-31.48,30,30,0,0,1,3.16.16,32.18,32.18,0,0,1,28.88,31.32Z" style="fill:#407BFF"></path><path d="M398.24,215.3v1.39c-1,24.62-23,29.46-23,29.46,8-3,12.16-10.44,14.33-17.51a10.08,10.08,0,0,0-9.69-13h-.12a13.44,13.44,0,0,0,.14-2.11,13.67,13.67,0,0,0-13.63-13.37,13.11,13.11,0,0,0-13.14,13.37,11.46,11.46,0,0,0,.24,2.11h0a10.06,10.06,0,0,0-9.74,12.76c2,6.94,6,14.15,13.65,17.1a34.13,34.13,0,0,1-10.61-6c-5.46-4.52-11-12-11.39-23.85a30.81,30.81,0,0,1,30.93-31.48A32.18,32.18,0,0,1,398.24,215.3Z" style="opacity:0.30000000000000004"></path><path d="M380,213.54a13.44,13.44,0,0,1-.13,2.11,13.1,13.1,0,0,1-13,11.25,13.63,13.63,0,0,1-13.37-11.25,10.65,10.65,0,0,1-.23-2.11,13.09,13.09,0,0,1,13.13-13.37A13.67,13.67,0,0,1,380,213.54Z" style="opacity:0.7000000000000001"></path><path d="M366,200.42a10.66,10.66,0,0,1-10.7,10.89,11.12,11.12,0,0,1-11.09-10.89,10.67,10.67,0,0,1,10.7-10.9A11.13,11.13,0,0,1,366,200.42Z" style="fill:#fafafa;opacity:0.7000000000000001"></path><path d="M302.36,238.52c1.29.52,2.83,1,4.54,1.64.86.3,1.75.64,2.71,1l3,.91,3.31,1,3.63.91c2.49.68,5.21,1.17,8.07,1.76,1.43.31,2.94.49,4.46.75s3.09.5,4.71.67a173.53,173.53,0,0,0,45.66-.61A214.65,214.65,0,0,0,409.13,241c4.57-1.25,9.18-2.66,13.81-4.27,2.32-.79,4.62-1.66,6.94-2.55l1.72-.69.1,0h0s0,0,0,0l-.05,0h0l-.32-.34c5.67,2.14,9.87,2.77,12.89,2.74l.32.36c-2.26,1-4.47,2.07-6.76,3.07l-3.4,1.39-1.83.7c-2.43.89-4.85,1.75-7.27,2.53q-7.26,2.35-14.4,4.08a197.83,197.83,0,0,1-27.71,4.71,162.83,162.83,0,0,1-46.94-2c-1.64-.28-3.22-.65-4.76-1s-3-.68-4.48-1.1c-2.87-.82-5.59-1.53-8.06-2.43l-3.59-1.22-3.26-1.28-3-1.19c-.93-.39-1.81-.82-2.64-1.2-1.66-.77-3.15-1.42-4.4-2.06L299,237.44l-2.57-1.37,2.7,1.1Z" style="fill:#fff;opacity:0.7000000000000001"></path></g><path d="M327.09,176.79s.44.24,1.2.69,1.83,1.12,3.09,1.94a77.09,77.09,0,0,0,9.22,5.4,22.8,22.8,0,0,0,9.62,1.94c2.68,0,4.57-.24,5,.55.19.38,0,1-.7,1.67a9.76,9.76,0,0,1-3.39,2.1,16,16,0,0,1-5.88,1,17.29,17.29,0,0,1-13-6,23.73,23.73,0,0,1-3.16-4.63,28.75,28.75,0,0,1-1.53-3.41C327.23,177.27,327.09,176.79,327.09,176.79Z" style="fill:#263238"></path><path d="M303.7,197.63l1.19.39a13.65,13.65,0,0,0,1.34.42c.53.15,1.08.35,1.73.48s1.3.34,2,.47,1.49.27,2.27.42c1.58.24,3.26.46,5,.66a41.79,41.79,0,0,0,5,.18c.78-.06,1.53-.05,2.23-.14s1.36-.13,2-.19c2.44-.28,4.18-.52,4.65.24s-.58,2.37-3.18,3.92a14.21,14.21,0,0,1-2.21,1.05,17.84,17.84,0,0,1-2.7.82,21.65,21.65,0,0,1-6.46.33,17.73,17.73,0,0,1-6.16-1.91,16.78,16.78,0,0,1-2.35-1.55,13.85,13.85,0,0,1-1.8-1.64,13.23,13.23,0,0,1-1.26-1.55,9.06,9.06,0,0,1-.8-1.26C303.87,198,303.7,197.63,303.7,197.63Z" style="fill:#263238"></path><path d="M291.25,223s.4-.16,1.1-.38,1.66-.56,2.8-1,2.46-.88,3.86-1.38,2.89-1.07,4.46-1.59,3-1.13,4.39-1.67l3.63-1.55c2.12-.9,3.67-1.43,4.3-.8s.1,2.28-1.64,4.32a17.8,17.8,0,0,1-3.53,3.07,22.79,22.79,0,0,1-5.14,2.53,17.63,17.63,0,0,1-5.66.89,17,17,0,0,1-4.64-.7,14.27,14.27,0,0,1-2.92-1.19C291.6,223.27,291.25,223,291.25,223Z" style="fill:#263238"></path><path d="M404.66,176.15s-.1.52-.35,1.41a26.22,26.22,0,0,1-1.32,3.63,21.46,21.46,0,0,1-3.06,4.9,16.75,16.75,0,0,1-5.95,4.53,17.69,17.69,0,0,1-7.66,1.52,15.54,15.54,0,0,1-6.08-1.37,9,9,0,0,1-3.35-2.5c-.63-.83-.78-1.55-.51-2.05.57-1,2.56-1,5.16-1.19a26.3,26.3,0,0,0,9.07-2c3.2-1.39,6.59-3.26,9.34-4.66,1.36-.7,2.54-1.27,3.38-1.64S404.66,176.15,404.66,176.15Z" style="fill:#263238"></path><path d="M428.36,194.63s-.13.45-.46,1.26a8.8,8.8,0,0,1-.71,1.4A12.71,12.71,0,0,1,426,199a14.23,14.23,0,0,1-1.76,1.83,15.78,15.78,0,0,1-2.37,1.74,16.61,16.61,0,0,1-6.35,2.12,20.86,20.86,0,0,1-6.69-.42,16.48,16.48,0,0,1-2.78-.93,12.5,12.5,0,0,1-2.25-1.2c-2.63-1.75-3.53-3.67-2.94-4.6s2.48-1,4.9-.94c.61,0,1.25,0,1.94,0s1.41,0,2.15,0c1.5,0,3.1-.09,4.79-.26s3.29-.33,4.85-.45c.76-.1,1.54-.13,2.25-.24s1.42-.17,2.07-.27,1.25-.21,1.81-.29,1-.19,1.43-.29Z" style="fill:#263238"></path><path d="M443.25,217.34a11.06,11.06,0,0,1-.8.94,13.26,13.26,0,0,1-2.55,2.14,15.72,15.72,0,0,1-4.43,2,16,16,0,0,1-5.89.49,21.11,21.11,0,0,1-5.72-1.5,16.16,16.16,0,0,1-4.14-2.5c-2.12-1.83-2.83-3.62-2.21-4.55s2.4-1,4.68-.8,5.16.71,8.33,1.08a41.09,41.09,0,0,1,4.53.77c1.43.29,2.8.63,4,.9s2.26.54,3,.69S443.25,217.34,443.25,217.34Z" style="fill:#263238"></path><path d="M365.28,160.77a12.87,12.87,0,0,1,1,.8,19.51,19.51,0,0,1,2.51,2.48,16.75,16.75,0,0,1,2.62,4.56c.18.47.35,1,.52,1.47s.21,1.08.29,1.64a14,14,0,0,1,.17,1.75c0,.6-.05,1.22-.12,1.85,0,.31-.05.62-.11.93s-.15.61-.23.92a16.51,16.51,0,0,1-.53,1.77,14,14,0,0,1-1.68,3.11,13.55,13.55,0,0,1-2.11,2.36,12.44,12.44,0,0,1-2.26,1.48,7.38,7.38,0,0,1-3.73.93c-.95-.06-1.6-.43-1.77-1-.39-1.1.62-2.52,1.71-4.46.3-.45.53-1,.83-1.5s.53-1.07.7-1.68a18.88,18.88,0,0,0,.58-1.84c.08-.32.11-.68.19-1l.11-.52c0-.17,0-.36.05-.55.34-2.9.61-6.21.83-8.91.09-1.33.13-2.47.23-3.3S365.28,160.77,365.28,160.77Z" style="fill:#263238"></path><path d="M305.79,227.33c2.9-2.91,6.46-6.44,10.69-10.41s9.15-8.37,14.82-12.88c2.83-2.25,5.88-4.49,9.12-6.67a81.65,81.65,0,0,1,10.44-6,38.37,38.37,0,0,1,11.72-3.69l1.5-.16c.5,0,1,0,1.49,0a22.76,22.76,0,0,1,3.05.24,36.08,36.08,0,0,1,6.31,1.65,70.68,70.68,0,0,1,12.71,6.23,139.42,139.42,0,0,1,12.45,8.65,263.53,263.53,0,0,1,24.13,21.43c2,2,3.89,3.91,5.76,5.86l1.39,1.46.32.34h0l.05,0s0,0,0,0h0l-.1,0-1.72.69c-2.32.89-4.62,1.76-6.94,2.55-4.63,1.61-9.24,3-13.81,4.27a214.65,214.65,0,0,1-26.64,5.51,173.53,173.53,0,0,1-45.66.61c-1.62-.17-3.19-.42-4.71-.67s-3-.44-4.46-.75c-2.86-.59-5.58-1.08-8.07-1.76L316,243l-3.31-1-3-.91c-1-.31-1.85-.65-2.71-1-1.71-.62-3.25-1.12-4.54-1.64l-3.27-1.35-2.7-1.1C296.81,236.4,300,233.14,305.79,227.33Z" style="fill:none"></path><path d="M303.78,228.55s-2.5,9.6,3.36,11.09,3.43,2.41,3.43,2.41l-14.18-5.82Z" style="fill:#407BFF"></path><path d="M303.78,228.55s-2.5,9.6,3.36,11.09,3.43,2.41,3.43,2.41l-14.18-5.82Z" style="fill:#fff;opacity:0.7000000000000001"></path><path d="M296.39,236.07c.42.34,3.61-2.93,9.4-8.74,2.9-2.9,6.46-6.43,10.69-10.4s9.15-8.38,14.81-12.89c2.84-2.25,5.88-4.5,9.13-6.67a81.1,81.1,0,0,1,10.45-6,38.34,38.34,0,0,1,11.7-3.69l1.51-.16c.51,0,1,0,1.5,0a22.74,22.74,0,0,1,3,.24,37,37,0,0,1,6.31,1.65,70,70,0,0,1,12.71,6.23,139.42,139.42,0,0,1,12.45,8.65,262.12,262.12,0,0,1,24.12,21.43c2,2,3.9,3.92,5.76,5.86l1.4,1.46a36,36,0,0,0,12.89,2.74c4.74,0,6.58-1.72,6.58-1.72l-4.09-.22a10.63,10.63,0,0,1-7.3-3.47l0,0c-.79-.87-1.6-1.74-2.4-2.61-.47-.51-.95-1-1.42-1.51-1.91-2-3.88-4-5.89-6a250.41,250.41,0,0,0-25-22,139.43,139.43,0,0,0-13.28-9,75.53,75.53,0,0,0-14.21-6.64,42.79,42.79,0,0,0-7.65-1.8,27.94,27.94,0,0,0-4-.23c-.68,0-1.35,0-2,.07l-1.94.25A43.74,43.74,0,0,0,348,185.55a83.59,83.59,0,0,0-11,6.89c-3.34,2.43-6.4,4.9-9.22,7.37a191.14,191.14,0,0,0-14.38,14c-4,4.34-7.28,8.22-9.86,11.46C298.37,231.81,296,235.74,296.39,236.07Z" style="fill:#263238"></path><path d="M139.3,262.07l-.08-.75c3.92-.42,7.69-.9,12-1.57l.11.74C147.28,261.12,143.21,261.65,139.3,262.07Z" style="fill:#407BFF"></path><path d="M118.56,262.72c-42.63,0-66.05-13.92-66.3-14.07l.39-.64c.25.15,25.41,15.09,71.07,13.89l0,.75C122,262.7,120.25,262.72,118.56,262.72Z" style="fill:#407BFF"></path></g><g id="freepik--character-eyes-2--inject-116"><path d="M363.41,352.31V289a6,6,0,0,0-6-6H292.55l-23.15-17.9a4.38,4.38,0,0,0-2.65-.89,4.43,4.43,0,0,0-4.44,4.43v14.36H258.7a6,6,0,0,0-6,6v63.29a6,6,0,0,0,6,5.94h98.77A6,6,0,0,0,363.41,352.31Z" style="fill:#263238"></path><path d="M357.44,283.05H292.55l-18.07-14C263,287,256,309,252.72,331.58v20.74a6,6,0,0,0,6,5.94h98.77a6,6,0,0,0,5.94-5.95V289A6,6,0,0,0,357.44,283.05Z" style="fill:#ffd3b6;opacity:0.9"></path><path d="M297,358.26l.33-19.7a137,137,0,0,1-10,19.7Z" style="fill:#ea863e"></path><path d="M252.72,298.64c10.07-8,23.62-14.25,41.93-15.59h-2.1l-23.15-17.9a4.38,4.38,0,0,0-2.65-.89,4.43,4.43,0,0,0-4.44,4.43v14.36H258.7a6,6,0,0,0-6,6Z" style="fill:#263238"></path><path d="M267.47,326.53c-1,5.06.9,9.64,4.16,10.26s6.72-2.91,7.69-7.9c.88-4.29-.38-8.22-2.78-9.7h0l0,0a3.81,3.81,0,0,0-.57-.29l-10.77-5.52s2.11,5.13,5.76,6.64A11.53,11.53,0,0,0,267.47,326.53Z" style="fill:#263238"></path><path d="M263.58,300.47a2.86,2.86,0,0,0,1.25-.35A24.39,24.39,0,0,1,287,298.67a2.5,2.5,0,0,0,3.38-1v0a2.57,2.57,0,0,0-1.11-3.4,29.44,29.44,0,0,0-26.89,1.53,2.49,2.49,0,0,0,1.24,4.71Z" style="fill:#263238"></path><path d="M327.73,331.17a11.85,11.85,0,0,0-3.49,6.52c-1,5.07.76,9.64,4.09,10.26s6.79-2.91,7.76-7.9c.83-4.29-.4-8.22-2.77-9.7h0l0,0-.54-.27L322,324.52S324.07,329.66,327.73,331.17Z" style="fill:#263238"></path><path d="M328.83,301.53a2.56,2.56,0,0,0-2.49,2.56v0a2.51,2.51,0,0,0,2.59,2.39c7.81.38,18.21,6.16,22.49,12.7a2.83,2.83,0,0,0,1,.86,2.5,2.5,0,0,0,3.2-3.69C350.33,308.47,338.33,301.88,328.83,301.53Z" style="fill:#263238"></path><rect x="292.25" y="362.78" width="12.48" height="0.75" style="fill:#407BFF"></rect><path d="M284.51,363.53h-28.2a9.15,9.15,0,0,1-9.13-9.14v-9.08h.75v9.08a8.39,8.39,0,0,0,8.38,8.39h28.2Z" style="fill:#407BFF"></path></g><g id="freepik--character-eyes--inject-116"><rect x="200.34" y="69.77" width="12.48" height="0.75" style="fill:#407BFF"></rect><path d="M257.89,88h-.75V78.91a8.4,8.4,0,0,0-8.39-8.39H220.56v-.75h28.19a9.15,9.15,0,0,1,9.14,9.14Z" style="fill:#407BFF"></path><path d="M194.54,138.17,247,142.39l4.14-9.29s.77-1.71,1.93-4.71V80.82a6,6,0,0,0-6-5.93H160.3C166,95.55,176.9,119.57,194.54,138.17Z" style="fill:#263238"></path><path d="M253.08,144.12V117.7a157.77,157.77,0,0,0-10.15-42.81H148.34a6,6,0,0,0-6,6v63.28a6,6,0,0,0,6,6h64.88L236.4,168a4.38,4.38,0,0,0,2.65.89,4.43,4.43,0,0,0,4.44-4.43V150.1h3.61A6,6,0,0,0,253.08,144.12Z" style="fill:#fccac8"></path><path d="M174.64,127.29c-.3,5,2.07,9.27,5.36,9.46s6.17-3.69,6.47-8.73-2.09-9.21-5.38-9.39S174.93,122.31,174.64,127.29Z" style="fill:#263238"></path><path d="M237.71,122.08c-3.29-.18-6.16,3.69-6.47,8.73s2.09,9.21,5.38,9.4,6.17-3.69,6.45-8.67S241,122.27,237.71,122.08Z" style="fill:#263238"></path><path d="M219.64,155a179.73,179.73,0,0,1-9.52-23.63L209,150.1h4.29Z" style="fill:#ea817e"></path><path d="M156.62,102.6a2.93,2.93,0,0,0,2.73-.72,23.4,23.4,0,0,1,19.45-8.65,3,3,0,0,0,.77-5.87A29.6,29.6,0,0,0,154.87,98a3.08,3.08,0,0,0,.31,4.18A3.84,3.84,0,0,0,156.62,102.6Z" style="fill:#263238"></path><path d="M252.51,107.52a3,3,0,0,0,.57.89V96.87A29.34,29.34,0,0,0,238,87.47a2.94,2.94,0,0,0-1.11,5.78A23.46,23.46,0,0,1,252.51,107.52Z" style="fill:#263238"></path></g></svg>
