<svg xmlns="http://www.w3.org/2000/svg" viewBox="0 0 500 500"><g id="freepik--background-complete--inject-11"><polygon points="248.86 163.13 248.86 247.68 260.73 247.68 260.73 268.18 281.24 247.68 393.78 247.68 393.78 163.13 248.86 163.13" style="fill:#fff"></polygon><path d="M248.86,163.13c.24,24,.45,60.84.6,84.55l-.6-.6,11.87-.06h.65v.66l.09,20.5-1.26-.52,20.43-20.59.24-.25c28.22-.06,84.69-.11,112.9-.12l-1,1,.13-84.55.85.85c-36.12-.11-108.79-.59-144.92-.85Zm0,0c36.56-.26,109.22-.74,145.77-.86v.86l.12,84.55v1c-27.44-.27-88,.41-112.92-.38l-20.58,20.43L260,270v-1.8l.09-20.5.65.65-11.87-.06h-.6v-.59c0-23.66.49-60.64.59-84.55Z" style="fill:#ebebeb"></path><path d="M348.72,205.4a6.87,6.87,0,1,0,6.87-6.86A6.87,6.87,0,0,0,348.72,205.4Z" style="fill:#ebebeb"></path><path d="M314.45,205.4a6.87,6.87,0,1,0,6.87-6.86A6.88,6.88,0,0,0,314.45,205.4Z" style="fill:#ebebeb"></path><path d="M280.19,205.4a6.87,6.87,0,1,0,6.87-6.86A6.87,6.87,0,0,0,280.19,205.4Z" style="fill:#ebebeb"></path><polygon points="219.79 235.48 219.79 301.74 210.49 301.74 210.49 317.81 194.42 301.74 106.22 301.74 106.22 235.48 219.79 235.48" style="fill:#fff"></polygon><path d="M219.79,235.48c.09,19.89.59,47.22.6,66.85h-.6l-9.3.05.65-.65.1,16.07v1.79L210,318.34l-16.15-16,.6.25c-26.39,0-63.16.2-89.18.12v-1l.12-66.26v-.86c28.75.16,85.68.55,114.42.86Zm0,0c-28.3.31-85.28.69-113.57.85l.85-.85.13,66.26-1-1c25.61,0,62.57.08,88.56.13l.24.24,16,16.16-1.27.52.09-16.07v-.66h.64l9.3.05-.59.6c.14-19.1.38-46.86.59-66.26Z" style="fill:#ebebeb"></path><path d="M141.53,268.61a5.38,5.38,0,1,1-5.38-5.38A5.38,5.38,0,0,1,141.53,268.61Z" style="fill:#ebebeb"></path><path d="M168.39,268.61a5.38,5.38,0,1,1-5.38-5.38A5.38,5.38,0,0,1,168.39,268.61Z" style="fill:#ebebeb"></path><path d="M195.24,268.61a5.38,5.38,0,1,1-5.38-5.38A5.38,5.38,0,0,1,195.24,268.61Z" style="fill:#ebebeb"></path><g id="freepik--xsrjP0--inject-11"><path d="M72,109.74c-1.58-1-3-2.41-5.06-2.2-.8.08-.63-.59-.64-1l-.09-23.76c0-.58,0-1,.66-1.37,6-3.07,8.64-9.09,12.33-14.23a23.66,23.66,0,0,0,4.33-18c-.26-1.78.57-2.59,2.18-3,1.93-.44,3.86.09,4.52,1.41A31.79,31.79,0,0,1,93.72,58c.36,3-.7,5.94-1.07,8.91-.27,2.18-.77,4.33-1.17,6.53.53.39,1.15.18,1.71.19q10.05,0,20.08-.06c2.82,0,4.21.8,4.61,2.67A5.37,5.37,0,0,1,115,82c-.5.25-1.4,0-1.46.81s.87.72,1.33,1c2.43,1.65,2,5.08-.8,7.07-.67.48-2,.26-2,1.25,0,.79,1.21.78,1.76,1.33,2,1.93,1,5.54-1.91,7a8.73,8.73,0,0,0-1.18.45c-.33.23-.65.48,0,.93,2.91,2.07,2.86,5-.06,7.06l-.87.63a5.66,5.66,0,0,1-3.52.78q-15.73.09-31.48.11A3.69,3.69,0,0,1,72,109.74Z" style="fill:#ebebeb;fill-rule:evenodd"></path><path d="M42.11,95.87c0-5,0-10.07-.07-15.1,0-1,.1-1.53,1.35-1.52q9.21.09,18.42,0c1.2,0,1.39.39,1.38,1.46q0,15.21.11,30.39c0,1.29-.33,1.66-1.63,1.64-6,0-11.91,0-17.86.07-1.48,0-1.69-.49-1.68-1.78C42.19,105.94,42.13,100.91,42.11,95.87Z" style="fill:#ebebeb;fill-rule:evenodd"></path></g><g id="freepik--xsrjp0--inject-11"><path d="M434.51,48c1.23.77,2.31,1.9,4,1.74.64-.06.5.46.5.81q0,9.33,0,18.66c0,.45,0,.82-.52,1.07-4.75,2.4-6.81,7.11-9.72,11.14a18.56,18.56,0,0,0-3.44,14.11c.19,1.4-.46,2-1.72,2.31-1.52.35-3-.07-3.55-1.12a24.87,24.87,0,0,1-2.71-8.15c-.28-2.36.57-4.65.86-7,.22-1.7.62-3.39.94-5.12-.41-.3-.9-.15-1.34-.15H402c-2.21,0-3.3-.63-3.6-2.1a4.21,4.21,0,0,1,2.29-4.56c.39-.2,1.1,0,1.15-.63s-.69-.57-1.05-.82c-1.9-1.3-1.55-4,.65-5.55.53-.37,1.56-.2,1.58-1,0-.62-.95-.61-1.38-1-1.54-1.52-.77-4.35,1.52-5.5a6.27,6.27,0,0,0,.92-.35c.26-.18.52-.38,0-.73-2.28-1.63-2.23-3.89.06-5.54l.68-.5a4.44,4.44,0,0,1,2.77-.6q12.36,0,24.72,0A2.94,2.94,0,0,1,434.51,48Z" style="fill:#ebebeb;fill-rule:evenodd"></path><path d="M457.93,59c0,4,0,7.9,0,11.85,0,.8-.08,1.2-1.06,1.19q-7.23-.09-14.46,0c-.95,0-1.09-.31-1.09-1.15q0-11.92,0-23.86c0-1,.27-1.3,1.28-1.28,4.68,0,9.35.07,14,0,1.16,0,1.32.39,1.31,1.41C457.9,51.09,457.94,55,457.93,59Z" style="fill:#ebebeb;fill-rule:evenodd"></path></g><g id="freepik--xsrjp0--inject-11"><path d="M290.9,268.11c-.95.59-1.78,1.46-3,1.34-.49-.05-.38.36-.39.62q0,7.19,0,14.36a.78.78,0,0,0,.41.83c3.65,1.84,5.24,5.47,7.48,8.57A14.34,14.34,0,0,1,298,304.69c-.16,1.07.35,1.56,1.32,1.78a2.41,2.41,0,0,0,2.73-.86,19.46,19.46,0,0,0,2.09-6.28c.21-1.81-.44-3.58-.67-5.37-.17-1.32-.47-2.62-.72-3.95.32-.23.69-.11,1-.12h12.13c1.7,0,2.53-.49,2.77-1.62a3.25,3.25,0,0,0-1.76-3.51c-.3-.15-.85,0-.89-.48s.53-.44.81-.63c1.46-1,1.19-3.08-.5-4.27-.41-.29-1.2-.16-1.22-.76s.73-.47,1.07-.8c1.18-1.17.59-3.35-1.18-4.23a6.09,6.09,0,0,1-.71-.27c-.2-.14-.39-.29,0-.57,1.75-1.25,1.71-3-.05-4.26l-.53-.38a3.4,3.4,0,0,0-2.13-.46c-6.34,0-12.68,0-19,0A2.23,2.23,0,0,0,290.9,268.11Z" style="fill:#ebebeb;fill-rule:evenodd"></path><path d="M272.87,276.55c0,3,0,6.08,0,9.12,0,.62.06.92.82.92,3.71,0,7.41,0,11.12,0,.73,0,.84-.24.84-.89q0-9.18,0-18.36c0-.77-.21-1-1-1-3.6,0-7.19,0-10.79,0-.89,0-1,.3-1,1.08C272.9,270.47,272.87,273.51,272.87,276.55Z" style="fill:#ebebeb;fill-rule:evenodd"></path></g></g><g id="freepik--Floor--inject-11"><path d="M39.15,473.77c135.08-.61,286.62-.61,421.7,0-135.08.62-286.62.61-421.7,0Z" style="fill:#263238"></path></g><g id="freepik--Plant--inject-11"><path d="M251.39,413.1s8.87-31.84,15.95-42.65,20.29-22.68,20.29-22.68S287.32,396.85,251.39,413.1Z" style="fill:#FFC727"></path><path d="M252,412.55a151.6,151.6,0,0,0,8.08-15.42,107.13,107.13,0,0,1,4.41-16.74c0-.1.18-.05.15.06-1.17,5-2.54,10-3.79,15,3.58-7.74,7-15.59,11.25-22.91a48.74,48.74,0,0,1,4.11-10.19c.05-.09.2,0,.16.06a64.64,64.64,0,0,0-2.77,7.64,77,77,0,0,1,6.74-9.31c.15-.18.47,0,.31.21-5.7,7.28-9.63,15.56-13.38,23.94A128.2,128.2,0,0,0,278.43,371a0,0,0,1,1,.07.05,113.65,113.65,0,0,1-11.91,15.45c-2.73,6.14-5.42,12.31-8.67,18.15,6.5-5.5,11.5-12.61,16.46-19.47a.15.15,0,0,1,.24.17c-4.95,7.53-10.08,14.62-17.21,20.19a75.59,75.59,0,0,1-4.76,7.44A.38.38,0,0,1,252,412.55Z" style="fill:#263238"></path><path d="M249.71,413.14s15.94-29.35,11.31-57.81-9.59-38.59-9.59-38.59S226.37,361,249.71,413.14Z" style="fill:#FFC727"></path><path d="M243.16,367a137.79,137.79,0,0,0,6.16,23.7c0-10.45.24-20.89.52-31.33a80.52,80.52,0,0,1-3-19.45c0-.2.28-.18.3,0a111,111,0,0,0,2.79,16.74q.36-12.93.84-25.84a.11.11,0,0,1,.22,0c0,13.46,0,26.92-.09,40.38a108,108,0,0,0,4.6-16s.1,0,.09,0a62.77,62.77,0,0,1-4.7,18.2c-.06,8.6-.16,17.2-.35,25.81,2.7-9.15,5.58-18,6.36-27.67a.1.1,0,0,1,.2,0c-.21,10.66-3,21.48-6.47,31.5a.6.6,0,0,1-.18.25q-.12,4.72-.28,9.43a.35.35,0,0,1-.7,0q-.18-9.64-.15-19.3A86.44,86.44,0,0,1,243,367C243,366.93,243.15,366.92,243.16,367Z" style="fill:#263238"></path><path d="M244.25,362.46a54.82,54.82,0,0,1,1.12,7.75.08.08,0,0,1-.15,0,56,56,0,0,1-1.32-7.73C243.88,362.3,244.22,362.26,244.25,362.46Z" style="fill:#263238"></path><path d="M253.58,341c0-.09.15-.06.15,0a20.14,20.14,0,0,1-.8,5.35c0,.15-.25.08-.22-.06C253.06,344.55,253.27,342.77,253.58,341Z" style="fill:#263238"></path><path d="M243.88,413.14s.65-30.64-8.14-45.87-23.37-23-23.37-23S218.25,398.29,243.88,413.14Z" style="fill:#FFC727"></path><path d="M227.86,386.94A114.2,114.2,0,0,0,239.76,402q-2.64-9.4-6.09-18.48c-4.93-4.32-9.81-8.8-12.84-14.71a.09.09,0,0,1,.15-.09c3.25,5.24,7.6,9.43,12.17,13.46a236.09,236.09,0,0,0-12.24-26.65.2.2,0,0,1,.34-.19,145.79,145.79,0,0,1,7.67,14c-.82-3.27-1.48-6.62-2.32-9.87a.07.07,0,1,1,.13,0,55.48,55.48,0,0,1,3.61,13,155.54,155.54,0,0,1,7.74,21c-.22-4.59-.51-9.17-1-13.74,0-.09.14-.11.16,0a74.76,74.76,0,0,1,1.33,15.44q1.9,6.84,3.19,13.84a.1.1,0,0,1-.2.05c-.47-1.95-1-3.88-1.52-5.81,0,0-.07,0-.1,0-4.72-4.73-9.19-10.11-12.14-16.13C227.8,386.94,227.84,386.91,227.86,386.94Z" style="fill:#263238"></path><path d="M217.68,362c1,1.06,1.88,2.17,2.82,3.26a24.34,24.34,0,0,1,2.53,3,.05.05,0,0,1-.07.07,15,15,0,0,1-2.92-2.88,24.8,24.8,0,0,1-2.5-3.29A.09.09,0,0,1,217.68,362Z" style="fill:#263238"></path><path d="M268.94,415.38l-1.11,14.52-3.34,43.87H235.38L232,429.9l-1.11-14.52h38Z" style="fill:#37474f"></path><path d="M268.94,415.38l-.67,8.83-36.55,1.46-.79-10.29h38Z" style="fill:#263238"></path><rect x="228.34" y="408.26" width="43.19" height="11.13" transform="translate(499.87 827.65) rotate(180)" style="fill:#37474f"></rect></g><g id="freepik--character-2--inject-11"><path d="M285.61,472.91c2.51.84,74.15.63,76.88-1.1,1-.65,1.61-11.1,1.95-23.72.08-2.73.13-5.54.18-8.41.05-3.39.1-6.82.12-10.15.09-15-.46-28.14-.46-28.14H318l0,28.14v10.15l.24,8.41s-27.39,12.35-30.17,14.57S283.11,472.09,285.61,472.91Z" style="fill:#f7a9a0"></path><path d="M285.61,472.91c2.51.84,74.15.63,76.88-1.1,1-.65,1.61-11.1,1.95-23.72.08-2.73.13-5.54.18-8.41.05-3.39.1-6.82.12-10.15H318v10.15l.24,8.41s-27.39,12.35-30.17,14.57S283.11,472.09,285.61,472.91Z" style="fill:#ebebeb"></path><path d="M285.39,473c1.64.54,32.15.65,54.37.19,5.14-.11,9.84-.26,13.64-.42,5.22-.24,8.73-.53,9.3-.89,1.26-.81,1.87-16.13,2.15-32.3H318l.24,8.45s-27.54,12.42-30.35,14.66S282.88,472.18,285.39,473Z" style="fill:#FFC727"></path><path d="M286.42,470.14c12.08-.34,60.81-.53,72.77.06.1,0,.1.07,0,.07-12,.59-60.69.4-72.77.06C286.17,470.33,286.17,470.14,286.42,470.14Z" style="fill:#263238"></path><path d="M316.51,445.38c4.75-.91,10.56-.19,14.2,3.18.14.13,0,.33-.2.28a66.49,66.49,0,0,0-14-2.86A.3.3,0,0,1,316.51,445.38Z" style="fill:#263238"></path><path d="M313.08,447.45c4.75-.9,10.57-.19,14.21,3.19.14.13-.05.33-.2.28a67.28,67.28,0,0,0-14-2.87A.3.3,0,0,1,313.08,447.45Z" style="fill:#263238"></path><path d="M309.66,449.53c4.75-.9,10.56-.19,14.21,3.19.14.13-.05.33-.21.28a66.51,66.51,0,0,0-14-2.87A.3.3,0,0,1,309.66,449.53Z" style="fill:#263238"></path><path d="M306.24,451.61c4.75-.9,10.56-.19,14.2,3.18.14.13-.05.33-.2.28a66.49,66.49,0,0,0-14-2.86A.3.3,0,0,1,306.24,451.61Z" style="fill:#263238"></path><path d="M309.85,441.17c3.37,2.61,7.75,3.66,11.67,5.1a.59.59,0,0,0,.75-.59c.08,0,.14-.08.11-.17A25.39,25.39,0,0,0,315,434.64c-2-1.66-5.47-2.81-7.33-.23S307.88,439.65,309.85,441.17Zm-1.22-3.82c-.85-5.21,4.75-2.49,6.17-1.2a27,27,0,0,1,2.53,2.71,75.85,75.85,0,0,1,4.43,6.25c-1.89-.83-3.83-1.48-5.74-2.24C313.73,442,309.1,440.23,308.63,437.35Z" style="fill:#263238"></path><path d="M338.22,438.22c-1.15-3-4.81-2.72-7.15-1.61a25.29,25.29,0,0,0-9.83,8.69.12.12,0,0,0,.06.19c-.07.36.14.81.58.76,4.16-.41,8.66-.34,12.57-2C336.74,443.25,339.32,441,338.22,438.22Zm-10.16,6.11c-2,.26-4.09.41-6.12.74,1.92-1.69,3.76-3.45,5.85-4.95a27.58,27.58,0,0,1,3.13-2c1.69-.89,7.8-2.13,5.67,2.71C335.42,443.5,330.49,444,328.06,444.33Z" style="fill:#263238"></path><path d="M364.75,444.37c-.31,14.29-.91,26.8-2.05,27.53-.57.37-4.07.65-9.3.89-3.8.16-8.5.31-13.64.42-4.05.09-8.38.15-12.76.2Z" style="opacity:0.1"></path><path d="M389.8,187.48s-24.44,122.77-26.16,131.84c-.4,2.06,2.67,103.06,2.67,103.06l-53.47-.44s2-86.66,4.2-104.77,29.87-129.69,29.87-129.69Z" style="fill:#37474f"></path><path d="M389.81,187.48s-11.9,59.76-19.69,99l-23.21-99Z" style="fill:#263238"></path><path d="M362,411c-5.78-.47-11.59-.54-17.39-.57s-11.48,0-17.22,0c-3.29,0-6.59,0-9.86.2-.22,0-.21.27,0,.28,5.78.4,11.6.44,17.4.56s11.48.21,17.22.2c3.29,0,6.57-.07,9.86-.28C362.34,411.4,362.33,411,362,411Z" style="fill:#263238"></path><path d="M357.24,406.36c-.28-25.3-.43-58.64-.46-83.91-.16-3.36.76-6.77,1.3-10.05,5.68-30,12.32-62.12,18.54-92.14L382.19,194l-5.09,26.37c-4.63,23.75-13.46,68.31-18.08,92.22-.55,3.33-1.46,6.5-1.32,9.87,0,25.25-.19,58.63-.46,83.91Z" style="fill:#263238"></path><path d="M321.44,307.24c2.47.47,5,.78,7.42,1.45a32.09,32.09,0,0,0,3.56.92c1.25.18,2.51.3,3.76.44a46.75,46.75,0,0,0,7.39.51,49.34,49.34,0,0,1,7.69,0c.1,0,.13-.19,0-.2a44.94,44.94,0,0,1-7.39-1.7,30,30,0,0,0-5.14-.94,22.42,22.42,0,0,0,3.28,0c1.82-.14,3.65-.32,5.46-.3.1,0,.13-.18,0-.2a35.5,35.5,0,0,1-5.08-1.24l-.74-.19c.62.05,1.24.1,1.86.1.9,0,1.81,0,2.71,0,.41,0,.82,0,1.23,0l.18,0h0a1,1,0,0,0,1.06,0,.08.08,0,0,0,0-.14c-1.65-.48-3.28-1.06-4.93-1.56a47.51,47.51,0,0,0-5.12-1.07,37,37,0,0,0-10.18-.75c-.3,0-.4.67-.12.78a28.85,28.85,0,0,0,4.21,1.31h-.27c-1.72,0-3.46.17-5.19.27-.09,0-.12.2,0,.24a46.34,46.34,0,0,0,4.75,1.81c.52.14,1.05.25,1.59.34l-.67-.07a25.78,25.78,0,0,0-3.62.08c-2.57.13-5.13-.18-7.69-.29C321.31,306.85,321.25,307.2,321.44,307.24Z" style="fill:#f7a9a0"></path><path d="M338.12,299.13c-1.37-.38-2.78-.6-4.14-1a13,13,0,0,0-4.07-.79c-2.83,0-5.69.85-8.51.82-.08,0-.11.2,0,.2,2.82,0,5.49,1,8.26,1.43a16.78,16.78,0,0,0,4.18-.16c1.43-.16,2.85-.09,4.28-.15C338.22,299.45,338.25,299.17,338.12,299.13Z" style="fill:#f7a9a0"></path><path d="M352.72,315c-3.15-.41-6.28-1.28-9.44-1.64a15.64,15.64,0,0,0-4.53.18c-1.62.29-3.19.83-4.83,1-.1,0-.09.21,0,.21a28.94,28.94,0,0,1,4.77.72,20.29,20.29,0,0,0,4.66.29,79.27,79.27,0,0,1,9.37-.49C352.86,315.28,352.84,315,352.72,315Z" style="fill:#f7a9a0"></path><path d="M342.93,473.17c2.5.86,74.14,1.37,76.88-.34,1-.64,1.73-11.08,2.19-23.7q.15-4.1.26-8.4c.09-3.39.17-6.82.22-10.15.24-15-.4-28.33-.4-28.33L376,402l-.25,28.13-.09,10.15.15,8.41S348.3,460.75,345.49,463,340.44,472.33,342.93,473.17Z" style="fill:#f7a9a0"></path><path d="M342.93,473.17c2.5.86,74.14,1.37,76.88-.34,1-.64,1.73-11.08,2.19-23.7q.15-4.1.26-8.4c.09-3.39.17-6.82.22-10.15l-46.73-.47-.09,10.15.15,8.41S348.3,460.75,345.49,463,340.44,472.33,342.93,473.17Z" style="fill:#ebebeb"></path><path d="M342.71,473.28c1.63.55,32.14,1,54.36.73,5.14-.06,9.85-.16,13.64-.29,5.23-.18,8.74-.43,9.31-.79,1.27-.8,2-16.12,2.47-32.28l-46.86-.47.15,8.46S348.12,460.78,345.29,463,340.21,472.41,342.71,473.28Z" style="fill:#FFC727"></path><path d="M343.76,470.41c12.08-.22,60.82.07,72.77.78.1,0,.1.07,0,.08-12,.47-60.7-.21-72.77-.67C343.51,470.59,343.51,470.41,343.76,470.41Z" style="fill:#263238"></path><path d="M374.1,445.94c4.75-.85,10.56-.08,14.17,3.33.14.14,0,.33-.2.28a66.43,66.43,0,0,0-14-3A.31.31,0,0,1,374.1,445.94Z" style="fill:#263238"></path><path d="M370.65,448c4.76-.86,10.57-.09,14.17,3.33.14.13-.05.32-.2.27a67.11,67.11,0,0,0-13.95-3A.3.3,0,0,1,370.65,448Z" style="fill:#263238"></path><path d="M367.21,450c4.76-.85,10.56-.08,14.17,3.33.14.13-.05.33-.2.28a67.08,67.08,0,0,0-14-3A.3.3,0,0,1,367.21,450Z" style="fill:#263238"></path><path d="M363.76,452.07c4.76-.85,10.57-.08,14.18,3.33.14.13-.05.33-.21.28a67.13,67.13,0,0,0-14-3A.3.3,0,0,1,363.76,452.07Z" style="fill:#263238"></path><path d="M367.48,441.68c3.34,2.63,7.71,3.73,11.62,5.21a.58.58,0,0,0,.75-.59.13.13,0,0,0,.12-.17,25.37,25.37,0,0,0-7.25-10.93c-2-1.68-5.44-2.87-7.32-.31S365.53,440.14,367.48,441.68Zm-1.18-3.84c-.8-5.22,4.77-2.44,6.18-1.14a27.08,27.08,0,0,1,2.5,2.74,75.82,75.82,0,0,1,4.37,6.29c-1.88-.84-3.81-1.52-5.72-2.3C371.36,442.51,366.74,440.72,366.3,437.84Z" style="fill:#263238"></path><path d="M395.88,439c-1.13-3-4.79-2.76-7.14-1.67a25.25,25.25,0,0,0-9.91,8.59.12.12,0,0,0,.06.19c-.08.35.13.81.56.77,4.17-.38,8.67-.26,12.6-1.9C394.35,444,397,441.82,395.88,439Zm-10.22,6c-2.05.23-4.09.36-6.13.67a76.35,76.35,0,0,1,5.9-4.88,26.34,26.34,0,0,1,3.15-2c1.7-.87,7.82-2,5.64,2.76C393,444.26,388.09,444.74,385.66,445Z" style="fill:#263238"></path><path d="M373.82,422.38l52.64.44s-12.11-157.14-16.11-190.3a106.91,106.91,0,0,0,1.9-16.76c0-7.47-5.24-19.35-8.5-28.32H346.87s3,26.28,9.57,42.64c0,0,4.18,2.19,12.35,5.68Z" style="fill:#37474f"></path><path d="M355.05,229a93.84,93.84,0,0,1,14.8,6.89c.19.11.07.4-.13.31-5-2.14-10.08-4.19-14.94-6.61A.32.32,0,0,1,355.05,229Z" style="fill:#263238"></path><path d="M353.46,194.74c0-.17.32-.21.32,0a166.36,166.36,0,0,0,.84,16.67c.23,2.57,2.29,16.76,6.75,15.73.74-.18,1.12-.91,1.24-2a18.09,18.09,0,0,0-.59-4.36c-.49-3-.89-5.95-1.15-8.95a81.32,81.32,0,0,1,.19-16.8.14.14,0,0,1,.28,0,154.79,154.79,0,0,0,1.36,23.18c.56,3.69,2.42,9.25-1.45,9.82s-6.47-8.73-6.95-11.28A85.09,85.09,0,0,1,353.46,194.74Z" style="fill:#263238"></path><path d="M361.25,227.49a23.67,23.67,0,0,1,1,2.94,6.53,6.53,0,0,1,.42,2.42c0,.16-.23.17-.31.07a8.93,8.93,0,0,1-1-2.36c-.33-.91-.69-1.81-1-2.73A.5.5,0,0,1,361.25,227.49Z" style="fill:#263238"></path><path d="M401.67,212.75c-4.21-.42-8.54-.36-12.44-2.24s-6.49-5.67-8.52-9.45a31.29,31.29,0,0,1-2.79-7.41.11.11,0,0,0-.21,0,20.62,20.62,0,0,0,1.72,7,30.8,30.8,0,0,0,3.34,6.19,15.16,15.16,0,0,0,4.81,4.52,16.5,16.5,0,0,0,6.31,1.9,35,35,0,0,0,7.79,0A.25.25,0,0,0,401.67,212.75Z" style="fill:#263238"></path><path d="M420.42,411.09c-5.43-.39-10.88-.38-16.32-.33s-10.76.13-16.14.24c-3.08.06-6.17.13-9.24.34a.14.14,0,1,0,0,.28c5.42.32,10.88.28,16.31.32s10.77.05,16.15,0c3.09-.05,6.16-.16,9.24-.41A.21.21,0,1,0,420.42,411.09Z" style="fill:#263238"></path><path d="M400.11,189.73q1.71,5.43,3.27,10.9c1.43,5.52,3.38,11,3.74,16.69a164.18,164.18,0,0,1-2,17c4.88,54,10.18,117.16,14.32,171.54-5.16-54.5-10.61-117.13-15-171.65a163,163,0,0,0,2.19-16.88c-.26-5.62-2.11-11.15-3.42-16.62q-1.47-5.49-3.08-11Z" style="fill:#263238"></path><path d="M403.76,249.51c-2.51-.24-5-.31-7.53-.74a29.5,29.5,0,0,0-3.63-.58c-1.25-.07-2.52-.07-3.78-.08a47,47,0,0,0-7.41.18,49.33,49.33,0,0,1-7.65.69c-.1,0-.11.2,0,.2a45.44,45.44,0,0,1,7.51,1,30.39,30.39,0,0,0,5.21.46,21.23,21.23,0,0,0-3.27.28c-1.79.31-3.6.66-5.41.81-.09,0-.11.19,0,.2a36.32,36.32,0,0,1,5.18.75l.75.13c-.62,0-1.24,0-1.86.07-.9.08-1.79.21-2.69.3-.41,0-.82.08-1.23.1h-.19a0,0,0,0,0,0,0,1,1,0,0,0-1.05.14.08.08,0,0,0,0,.14c1.69.33,3.37.75,5.05,1.09a50.92,50.92,0,0,0,5.21.58,37.1,37.1,0,0,0,10.2-.22c.3-.05.34-.7,0-.79a29.22,29.22,0,0,0-4.31-.9h.27c1.71-.14,3.43-.5,5.14-.77.09,0,.1-.21,0-.23a42.92,42.92,0,0,0-4.9-1.35,14.45,14.45,0,0,0-1.61-.2h.66a25.93,25.93,0,0,0,3.61-.42c2.54-.37,5.12-.31,7.67-.44C403.93,249.88,404,249.52,403.76,249.51Z" style="fill:#f7a9a0"></path><path d="M388.36,257.49c1.4.26,2.83.34,4.23.63a13,13,0,0,0,4.12.4c2.81-.31,5.58-1.38,8.4-1.62.08,0,.08-.21,0-.2-2.81.24-5.56-.51-8.35-.64a15.94,15.94,0,0,0-4.15.55c-1.41.29-2.83.36-4.24.56C388.23,257.18,388.23,257.47,388.36,257.49Z" style="fill:#f7a9a0"></path><path d="M356.91,148.93l7.36.45a22.59,22.59,0,0,0,2.86-13.45c-.09-1.07,2.2,5.14.88,13.68,7.78.48,18.35,1.12,27.6,1.59.31-3.6.76-6.93.76-6.93a39.48,39.48,0,0,0,1.25,7l3.69.18a141,141,0,0,1,1.26-15.35,49.5,49.5,0,0,0,4,15.59c5.88.24,9.74.29,9.5,0-8.5-10.52-1.78-16.14-4-25.2-2.63-10.86-11.83-12.92-11.26-21,.46-6.56,1.72-18.44-6.48-21.3a16,16,0,0,0-17.23-4c-13.3,4.53-8.86,25-9.91,29.07-1.49,5.84-4.37,7.81-6.71,14.44s.54,11.34.72,16S355.44,148.86,356.91,148.93Z" style="fill:#263238"></path><path d="M416.38,150.3a23.11,23.11,0,0,1-2.64-5.86,12.12,12.12,0,0,1,.26-6.17,64.53,64.53,0,0,0,1.32-6.45,17.28,17.28,0,0,0-.39-6.78,15.16,15.16,0,0,0-3.32-6,39.35,39.35,0,0,0-4.89-4.47,24.27,24.27,0,0,1-4.5-4.5,11.83,11.83,0,0,1-2.14-6,11.1,11.1,0,0,0,1.47,6.39,22.23,22.23,0,0,0,4.32,5,52.33,52.33,0,0,1,4.53,4.53,14.58,14.58,0,0,1,2.87,5.39,16.88,16.88,0,0,1,.38,6.15c-.2,2.09-.67,4.19-1,6.36a22.9,22.9,0,0,0-.34,3.34,9.82,9.82,0,0,0,.62,3.37A18.85,18.85,0,0,0,416.38,150.3Z" style="fill:#263238"></path><path d="M369.43,87.55a32.44,32.44,0,0,0-2.08,7.77c-.43,2.65-.73,5.32-1,8l-.43,4a19.92,19.92,0,0,1-.74,3.78,21.4,21.4,0,0,1-3.84,6.65,30.87,30.87,0,0,0-2.27,3.43,19,19,0,0,0-1.61,3.87,27.35,27.35,0,0,0-.72,4.07,16.55,16.55,0,0,0,.07,4.16c.19,1.38.52,2.69.8,4a20.36,20.36,0,0,1,.47,3.87,8.2,8.2,0,0,1-3.48,6.66,8.31,8.31,0,0,0,4.31-6.63,19.93,19.93,0,0,0-.19-4.09c-.18-1.35-.47-2.65-.57-3.93a21.18,21.18,0,0,1,.89-7.62,18.4,18.4,0,0,1,1.51-3.5,30,30,0,0,1,2.19-3.22,40,40,0,0,0,2.32-3.37,17,17,0,0,0,1.7-3.85,21.83,21.83,0,0,0,.68-4.09c.12-1.35.19-2.68.27-4,.15-2.66.27-5.33.5-8A38.16,38.16,0,0,1,369.43,87.55Z" style="fill:#263238"></path><path d="M393.59,84c-2-1.83-2.23-8.39.73-11.38,4.08-4.11,12.84.49,11.08,6.76S395.12,85.38,393.59,84Z" style="fill:#263238"></path><path d="M402.73,72.51a11.53,11.53,0,0,0-5.31-1.8,4.59,4.59,0,0,0-2.55.59,4.53,4.53,0,0,0-1.73,1.94,10,10,0,0,0-.88,2.62,11.76,11.76,0,0,0-.3,2.77A9.58,9.58,0,0,0,393.59,84a8.3,8.3,0,0,1-2.37-5.3,11.51,11.51,0,0,1,.16-3,10.82,10.82,0,0,1,.93-2.87,5.39,5.39,0,0,1,2.12-2.27,5.07,5.07,0,0,1,3-.55A9.66,9.66,0,0,1,402.73,72.51Z" style="fill:#263238"></path><path d="M366.86,126.46c-10.23,1-40.39,9-43.89,11.64-4.15,3.11-7,20.4-3.08,22.24,10,4.76,42.38-13.57,55.81-24.18C382.26,131,384,124.86,366.86,126.46Z" style="fill:#f7a9a0"></path><path d="M355.35,151.45,338,130.3s29.48-6.15,38.66-5.51c10.33.72,7.71,5.85.33,12.37S355.35,151.45,355.35,151.45Z" style="fill:#FFC727"></path><path d="M381.7,132.27a2.86,2.86,0,0,1-.28.35l-6.4-7.88h.57Zm-16.37-6.72-.5.07,10.49,12.91.33-.28ZM355.62,127l-.49.09,13.33,16.41.36-.24Zm-9.53,1.7-.48.09,15.64,19.26.37-.23Z" style="fill:#263238"></path><path d="M377,137.16c-7.38,6.52-21.61,14.29-21.61,14.29L343,136.36l40.36-8.81C384.11,129.81,381.4,133.24,377,137.16Z" style="opacity:0.1"></path><path d="M353.69,112.47c.35-3.74-25.32-9.13-27.93-4.26-9.6,17.92-11.48,40.63-10.26,45.62,1.4,5.76,5.46,9.15,12.05,5C336.25,153.39,352.38,126.49,353.69,112.47Z" style="fill:#f7a9a0"></path><path d="M335.5,150.33c7.92-8.29,13.91-23.2,13.93-23.23s-.09-.4-.16-.3c-1.26,1.85-8.85,16.69-14,23.29C335.25,150.15,335.45,150.39,335.5,150.33Z" style="fill:#263238"></path><path d="M345.85,117.64c2.09-2.27,10.75-13.48,12.46-17.14s5.75-15.18,2.83-16.54c-2-.91-3.76,1.88-3.76,1.88s1.21-5.36-1.81-6.24c-2.3-.67-4.82,3.21-4.82,3.21s.7-5.29-2.38-5.93c-2.47-.51-4.16,4.71-4.16,4.71s-.56-4.07-2.75-4c-3.38,0-3.51,12.49-9.3,20.43-2.71,3.74-6.91,5.48-7.11,11.61Z" style="fill:#f7a9a0"></path><path d="M344.1,81.65c-1.43,6.61-1,9.38-4.76,14.47-.07.09.06.23.15.13,4.12-4.64,4.09-7.71,4.92-14.59C344.45,81.34,344.16,81.35,344.1,81.65Z" style="fill:#263238"></path><path d="M350.64,82.91c-1.05,6.6-1.83,9.65-5.36,15.26,0,.08.08.18.14.1,3.92-5.21,5.36-8.52,5.55-15.26C351,82.71,350.69,82.61,350.64,82.91Z" style="fill:#263238"></path><path d="M357.26,86.18c-1.45,6.12-2.75,9.37-6.5,14.43-.08.12.06.26.15.15a23.77,23.77,0,0,0,6.51-14.53C357.47,85.84,357.35,85.8,357.26,86.18Z" style="fill:#263238"></path><path d="M348,124.7s6.55-4.64,9-7.32,7.81-16,5-17.31c-3.62-1.71-8.24,5.36-10.05,9.12,0,0-8.38-4-12.8.39S348,124.7,348,124.7Z" style="fill:#f7a9a0"></path><path d="M360.79,99.93c-4.43.83-6.49,5.91-8.51,9.43a.38.38,0,0,1-.61.07c-3.62-1.42-9.15-2.38-12.57-.1-.1.06-.21-.07-.12-.15,3.34-2.94,8.85-2.44,12.72-.63,2-3.63,4.31-8.64,9.09-8.66C360.81,99.89,360.82,99.93,360.79,99.93Z" style="fill:#263238"></path><path d="M403.75,187.44l-56.84,0L349.84,166s-3.67-7.29-2.07-14.39c1.71-7.55,19.8-24.95,21.17-25.87,5.5-3.65,13.4-2.71,16.56,1.22C400.11,145.21,403.75,187.44,403.75,187.44Z" style="fill:#FFC727"></path><path d="M383.38,125.17H369.94c.29-.16.57-.3.87-.43h11.77C382.86,124.87,383.12,125,383.38,125.17Zm6.23,8H361.29l-.41.43h29Zm4,8.46H353.81l-.34.43h40.27C393.69,142,393.63,141.8,393.57,141.66Zm3,8.46H348.27c-.06.15-.12.29-.17.43h48.56Zm2.32,8.46H347.61l.06.44H399C398.92,158.88,398.89,158.73,398.85,158.58Zm1.86,8.47h-51l-.06.43H400.8C400.77,167.34,400.75,167.2,400.71,167.05Zm1.5,8.46H348.55l-.06.43h53.79C402.26,175.8,402.24,175.66,402.21,175.51Zm1.17,8.46h-56l-.06.43h56.11Z" style="fill:#263238"></path><path d="M372.59,166.42a53.86,53.86,0,0,0-9.07-.7c-1.52,0-3,.15-4.56.3-.76.08-1.51.13-2.27.17a8.4,8.4,0,0,1-2.35-.12c-.07,0-.1.1,0,.12a14.39,14.39,0,0,0,2.15.54,14.15,14.15,0,0,0,2.16.11c1.54,0,3.08-.13,4.62-.16,3.11-.08,6.22-.15,9.31,0C372.69,166.71,372.73,166.44,372.59,166.42Z" style="fill:#263238"></path><path d="M378.94,171.36a55.59,55.59,0,0,0-7.09-2.36,35.36,35.36,0,0,0-3.66-.73c-.59-.09-1.18-.17-1.78-.24s-1.32-.06-2-.15c-.07,0-.1.11,0,.12.61.11,1.2.33,1.8.48l1.81.43c1.21.29,2.41.6,3.62.88,2.43.56,4.84,1.14,7.24,1.8C379,171.62,379.06,171.4,378.94,171.36Z" style="fill:#263238"></path><path d="M390.12,130.05c7.54,8.49,37.12,43.06,33.43,52.94-3.43,9.19-15.14,9.39-20.33,3.62-7.52-8.37-17.48-38.8-19.81-48.07C381.19,129.73,382.71,121.71,390.12,130.05Z" style="fill:#f7a9a0"></path><path d="M389.18,161.62l26.65-6.31s-19.74-22.74-27.43-27.79c-8.66-5.69-9.67,0-7.76,9.64S389.18,161.62,389.18,161.62Z" style="fill:#FFC727"></path><path d="M415.83,155.31l-26.65,6.31s-6.62-14.8-8.54-24.46-.9-15.33,7.76-9.64c.43.29.91.63,1.43,1l.62.49a0,0,0,0,0,0,0,126.31,126.31,0,0,1,10.11,9.6l.2.2c2.88,3,5.76,6.09,8.22,8.79l1,1.14C413.45,152.57,415.83,155.31,415.83,155.31Z" style="fill:#FFC727"></path><path d="M415.83,155.31l-26.65,6.31s-6.62-14.8-8.54-24.46-.9-15.33,7.76-9.64c.43.29.91.63,1.43,1l.62.49a0,0,0,0,0,0,0,126.31,126.31,0,0,1,10.11,9.6l.2.2c2.88,3,5.76,6.09,8.22,8.79l1,1.14C413.45,152.57,415.83,155.31,415.83,155.31Z" style="fill:#FFC727"></path><path d="M391.27,129.72l-11.34,2.79c0-.15,0-.3,0-.44l11-2.69Zm7,6.56-16.83,4.13c0,.14.07.28.11.42l17.08-4.19Zm6.79,7.06L384,148.5l.15.41,21.25-5.21Zm6.5,7.12-24.53,6,.16.4,24.69-6.05Z" style="fill:#263238"></path><path d="M391.81,161c-.9.28-1.8.52-2.7.78l-.05-.1a118.09,118.09,0,0,1-6.66-17.84c1.11,3,2.26,5.93,3.42,8.88l3.48,8.86-.15-.08c.89-.17,1.77-.35,2.66-.5Z" style="fill:#263238"></path><path d="M382,146a9.13,9.13,0,0,1,2.05,2.84A4.66,4.66,0,0,1,382,146Z" style="fill:#263238"></path><path d="M367.65,125.27s-5.09,13,2.41,15.51,22-10.38,22-10.38A21.89,21.89,0,0,0,367.65,125.27Z" style="fill:#f7a9a0"></path><path d="M383.28,129.72c-.68,1-8.68,6.07-13.6,3.88-1.6-.71,1.91-9.61,1.91-9.61l.11-.72,1.54-10,13.54-2.73,1.93-.31s-.6,2.72-1.39,6.09c0,.16-.07.31-.11.48s-.07.38-.12.55c-.1.51-.22,1-.34,1.54s-.19.76-.3,1.17-.21.81-.32,1.21A65.42,65.42,0,0,1,383.28,129.72Z" style="fill:#f7a9a0"></path><path d="M387.32,116.29a20.35,20.35,0,0,1-15.62,7l1.54-10,13.54-2.73,1.93-.31S388.11,112.92,387.32,116.29Z" style="fill:#263238"></path><path d="M365.49,94.59c-7.07,16.34,1.92,22.42,5.45,23.94,3.2,1.38,14.27,5.67,23-9.85s3.36-24-3.79-27.52S372.56,78.24,365.49,94.59Z" style="fill:#f7a9a0"></path><path d="M369.53,94.17c.43-.06.83,0,1.26-.07a2,2,0,0,1,1.29.17.65.65,0,0,1,.2.77,1.58,1.58,0,0,1-1.42.77,2.35,2.35,0,0,1-1.65-.41A.7.7,0,0,1,369.53,94.17Z" style="fill:#263238"></path><path d="M379.88,97.43a11.86,11.86,0,0,0,1.05.69,2,2,0,0,0,1.2.51.66.66,0,0,0,.57-.56,1.62,1.62,0,0,0-.85-1.39,2.38,2.38,0,0,0-1.63-.47A.69.69,0,0,0,379.88,97.43Z" style="fill:#263238"></path><path d="M378,100.78s.08.09.06.14c-.45,1.16-.76,2.55.16,3.31,0,0,0,.08,0,.06C376.91,103.66,377.35,101.81,378,100.78Z" style="fill:#263238"></path><path d="M379.43,99.93c1.93.51.76,4.33-1,3.86S377.81,99.5,379.43,99.93Z" style="fill:#263238"></path><path d="M380.11,100.36c.27.32.48.8.87,1s.93-.1,1.35-.39c.05,0,.07,0,.05.06-.21.74-.72,1.4-1.54,1.27s-1.06-.93-1-1.72C379.83,100.4,380,100.23,380.11,100.36Z" style="fill:#263238"></path><path d="M371.29,97.87s-.11,0-.12.08c-.32,1.2-.88,2.52-2.07,2.6,0,0-.05.06,0,.06C370.45,100.82,371.18,99.06,371.29,97.87Z" style="fill:#263238"></path><path d="M370.6,96.32c-1.87-.71-3.16,3.07-1.43,3.73S372.16,96.92,370.6,96.32Z" style="fill:#263238"></path><path d="M369.72,96.3c-.36.1-.78.36-1.15.26s-.59-.62-.72-1.11c0,0-.05,0-.07,0-.27.72-.29,1.56.36,1.93s1.27-.12,1.69-.78C369.91,96.5,369.87,96.26,369.72,96.3Z" style="fill:#263238"></path><path d="M375.14,110.35a1.91,1.91,0,0,1-1.19.45,3.14,3.14,0,0,1-1.21-.64s-.09,0-.07,0a1.67,1.67,0,0,0,1.35,1.05,1.34,1.34,0,0,0,1.22-.82C375.28,110.37,375.19,110.32,375.14,110.35Z" style="fill:#263238"></path><path d="M371,103.66s-.81,1.69-1.07,2.52a18.47,18.47,0,0,1,4.58,2.23c.32.24.42-.07.09-.45a7.58,7.58,0,0,0-3.73-2.28c0-.25,1.29-2.57,1.16-2.62a8,8,0,0,0-2-.18c1.57-3.55,3.71-6.83,5.22-10.4a.12.12,0,0,0-.2-.12,62.65,62.65,0,0,0-6.1,11C368.68,103.78,370.59,103.7,371,103.66Z" style="fill:#263238"></path><path d="M371.88,106.93s.16,2.26,1.35,2.84c1.38.67,2.39-.93,1-2.16A4.52,4.52,0,0,0,371.88,106.93Z" style="fill:#263238"></path><path d="M372.14,108.23a2.51,2.51,0,0,0,1.1,1.54,1.1,1.1,0,0,0,1.58-.46h0s0,0,0-.06C373.6,108,372.71,108,372.14,108.23Z" style="fill:#ff99ba"></path><path d="M392.47,108.56c-3.15-.4-2.13-7.58-2.13-7.58s-12.43-5.55-10.8-16.41a23.36,23.36,0,0,1-12.32,6.54s5.08-12.13,14.86-12c0,0,11-1,15.65,9.74C402.46,99.83,394.58,108.83,392.47,108.56Z" style="fill:#263238"></path><path d="M379.69,83.77a11.82,11.82,0,0,0-.66,5,12.37,12.37,0,0,0,1.35,4.9,11.11,11.11,0,0,0,.65,1.11l.34.54.4.5c.28.32.54.66.83,1s.62.59.93.87.31.29.47.42l.52.37,1,.73q1.09.63,2.22,1.17c-.66-.51-1.36-1-2-1.47l-.94-.8-.47-.4c-.14-.14-.28-.3-.42-.45l-.84-.88c-.26-.31-.5-.65-.75-1l-.37-.48-.31-.52a9.15,9.15,0,0,1-.6-1,14.07,14.07,0,0,1-1.45-4.62,15.29,15.29,0,0,1-.15-2.45A14.84,14.84,0,0,1,379.69,83.77Z" style="fill:#263238"></path><path d="M390.15,107.35s5.45-4,7.4-1.94-3.36,8.83-6.52,8.94a3,3,0,0,1-3.32-2.81Z" style="fill:#f7a9a0"></path><path d="M396,107.3s0,.08,0,.08c-2.24.14-3.88,1.62-5.24,3.27a1.66,1.66,0,0,1,2.5.36s0,.12-.08.09a1.85,1.85,0,0,0-2.14,0,9.11,9.11,0,0,0-1.45,1.25c-.15.15-.44,0-.3-.23l0,0C390.08,109.52,393.2,106.66,396,107.3Z" style="fill:#263238"></path><path d="M407.55,184.53c2.88,7.32,12.56,5.23,15.09.36,6-11.44,10.09-38.4,9.94-50.06-.05-3.75-24.1-2.66-25.38,1.14C405.86,140,401.69,169.69,407.55,184.53Z" style="fill:#f7a9a0"></path><path d="M430.64,144.89s4.27-7.08,7.73-13.44c1.93-3.54,4.43-11.41,4.65-14.66.34-4.87-1.37-25.43-6.37-25.13-4.52.28-.81,17.77-.81,17.77s-2.18-18-7.57-16.64,1.44,20.53,1.44,20.53-2.66-18.42-8-16.16c-4,1.7,1.16,19.44,1.16,19.44s-2.39-15.82-6.61-14.24c-4.67,1.74-.89,18.41-.89,18.41-10.06,5.81-10.76,16.5-8,23.83C407.8,145.78,430.64,144.89,430.64,144.89Z" style="fill:#f7a9a0"></path><path d="M437,115.59c-.18-2.12-.35-4.27-.72-6.36s-.81-4.19-1.37-6.24a36.12,36.12,0,0,0-3-7.78c2,4.55,3.38,12,3.75,14.14s.84,4.17,1.21,6.26C436.93,115.66,437,115.64,437,115.59Z" style="fill:#263238"></path><path d="M429.45,117.06c-.35-2.7-.59-5.39-1.06-8.07s-1.14-5.16-1.79-7.79c-.05-.21-.14-.11-.1.09.54,2.66.84,5.15,1.35,7.81s1.12,5.31,1.54,8C429.39,117.12,429.45,117.1,429.45,117.06Z" style="fill:#263238"></path><path d="M423.2,119.49a62,62,0,0,0-2.46-12.44c-.05-.2-.16-.07-.11.14.93,4,1.57,7.43,2.42,12.31C423.07,119.57,423.2,119.57,423.2,119.49Z" style="fill:#263238"></path><path d="M404.71,155.51c.21,6.28.05,12.85.57,19.11-1.55-6.22-1.38-12.79-.57-19.11Z" style="fill:#263238"></path></g><g id="freepik--character-1--inject-11"><path d="M212.37,473.67c-2.77.9-81.74-.11-84.72-2.06-1.15-.72-1.67-12.23-1.91-26.17V445c0-2.87-.09-5.83-.1-8.83,0-.41,0-.82,0-1.24l3.82-41,52.83.52-5.2,40.59-.06,1.61-.32,8.4,0,.86s30.06,13.91,33.11,16.4S215.14,472.79,212.37,473.67Z" style="fill:#ad6359"></path><path d="M212.37,473.67c-2.77.9-81.74-.11-84.72-2.06-1.15-.72-1.67-12.23-1.91-26.17V445c0-2.87-.09-5.83-.1-8.83,0-.41,0-.82,0-1.24l51.45.14-.06,1.61-.32,8.4,0,.86s30.06,13.91,33.11,16.4S215.14,472.79,212.37,473.67Z" style="fill:#ebebeb"></path><path d="M212.38,473.67c-1.43.46-22.88.42-43.85,0-4.22-.09-8.41-.18-12.41-.29-15-.41-27.32-1-28.47-1.77S126,459.7,125.76,446c0-.19,0-.38,0-.58s0-.3,0-.44h.06l50.9.08,0,.87s30.06,13.9,33.11,16.39S215.15,472.79,212.38,473.67Z" style="fill:#FFC727"></path><path d="M211.52,470.6c-13.31-.5-67-1.24-80.23-.72-.11,0-.11.08,0,.08,13.18.78,66.91,1.09,80.23.86C211.8,470.81,211.8,470.61,211.52,470.6Z" style="fill:#263238"></path><path d="M182.37,445.3c-5.23-1-11.65-.32-15.7,3.36-.15.15.05.37.22.32a73.07,73.07,0,0,1,15.45-3A.34.34,0,0,0,182.37,445.3Z" style="fill:#263238"></path><path d="M186.12,447.63c-5.23-1-11.64-.32-15.69,3.36-.16.14,0,.36.22.31a74.13,74.13,0,0,1,15.44-3A.33.33,0,0,0,186.12,447.63Z" style="fill:#263238"></path><path d="M189.87,450c-5.22-1-11.64-.32-15.69,3.36-.16.14,0,.36.22.31a73.74,73.74,0,0,1,15.44-3A.33.33,0,0,0,189.87,450Z" style="fill:#263238"></path><path d="M168.53,473.67c-4.22-.09-8.41-.18-12.41-.29-15-.41-27.32-1-28.47-1.77S126,459.7,125.76,446c0-.19,0-.38,0-.58s0-.3,0-.44h.06C132.77,449.89,157.35,466.24,168.53,473.67Z" style="fill:#263238"></path><path d="M179.74,445.26H122.86s11.43-132.84,11-135.16c-.57-3-3.93-16.42-8.41-34-1.4-5.49-2.91-11.39-4.48-17.5-4.25-16.53-8.93-34.59-13-50.3-6.12-23.55-10.9-35.68-10.9-35.68h48.21s39.62,113.45,41.2,136.9C187.84,330,179.74,445.26,179.74,445.26Z" style="fill:#263238"></path><path d="M177.22,435.56c-8.69-.18-6.19-.25-14.88-.33-4.25,0-32.19-.28-36.16.38a.09.09,0,0,0,0,.17c4,.66,31.91.41,36.16.37,8.69-.09,6.19-.16,14.88-.34A.13.13,0,0,0,177.22,435.56Z" style="fill:#37474f"></path><path d="M144.54,302c-1.87-8.23-4.66-16.28-7.08-24.35q-7.41-24.6-14.89-49.17c-2.5-8.19-14.06-38.83-15.2-42.9-.47-1.66-.72-.75-.13,1.35,1.21,4.24,21,65,26,81.64q3.77,12.53,7.54,25a101.28,101.28,0,0,1,3.07,12.11,55.56,55.56,0,0,1,.51,12.95c-.54,8.7-1.55,17.39-2.35,26.08s-1.61,17.4-2.41,26.1q-2.4,26-4.75,51.94c-.2,2.2-.39,4.39-.56,6.59-.06.74,1.05.68,1.13,0,1.87-17.12,3.3-34.3,4.91-51.44s3.19-34.13,4.78-51.19c.4-4.29.85-8.58.86-12.88A53.5,53.5,0,0,0,144.54,302Z" style="fill:#37474f"></path><path d="M139.79,172.63c-3.34,25.89-9.71,68.28-14.36,103.49-10.88-42.66-28.38-103.48-28.38-103.48Z" style="fill:#37474f"></path><path d="M153.55,474.45c-2.76.9-81.74.19-84.73-1.75-1.15-.72-1.71-12.23-2-26.17v-.43c-.07-2.87-.12-5.83-.13-8.83,0-.41,0-.82,0-1.23-.19-20.11,1.25-41,1.25-41l51.63.32L118.12,436l-.06,1.61-.28,8.4,0,.87s30.11,13.79,33.17,16.27S156.32,473.56,153.55,474.45Z" style="fill:#ad6359"></path><path d="M153.55,474.45c-2.76.9-81.74.19-84.73-1.75-1.15-.72-1.71-12.23-2-26.17v-.43c-.07-2.87-.12-5.83-.13-8.83,0-.41,0-.82,0-1.23l51.45-.06-.06,1.61-.28,8.4,0,.87s30.11,13.79,33.17,16.27S156.32,473.56,153.55,474.45Z" style="fill:#ebebeb"></path><path d="M153.55,474.45c-2.76.9-81.74.19-84.73-1.75-1.15-.72-1.71-12.23-2-26.17v-.43l51-.11,0,.87s30.11,13.79,33.17,16.27S156.32,473.56,153.55,474.45Z" style="fill:#FFC727"></path><path d="M152.69,471.38c-13.31-.45-67-1-80.23-.43-.11,0-.11.08,0,.08,13.18.73,66.91.85,80.23.57C153,471.59,153,471.39,152.69,471.38Z" style="fill:#263238"></path><path d="M123.45,446.19c-5.23-1-11.65-.28-15.69,3.41-.15.15,0,.37.22.32a73.09,73.09,0,0,1,15.44-3.07A.33.33,0,0,0,123.45,446.19Z" style="fill:#263238"></path><path d="M127.21,448.5c-5.23-1-11.65-.28-15.69,3.42-.15.14,0,.36.22.31a74.37,74.37,0,0,1,15.44-3.07A.33.33,0,0,0,127.21,448.5Z" style="fill:#263238"></path><path d="M131,450.82c-5.23-1-11.65-.28-15.69,3.41-.15.15,0,.36.22.31a73.7,73.7,0,0,1,15.44-3.06A.33.33,0,0,0,131,450.82Z" style="fill:#263238"></path><path d="M144.93,172.63a185.85,185.85,0,0,1-6.38,35.17c-.42,1.51-.88,3-1.38,4.43,0,0-4.26,2-12.66,7.14,0,0-.55,18.56-1.1,39.25-.61,23.14-1.25,48.94-1.11,54.41.49,20.48-2.53,133.08-2.53,133.08l-56.87.24S73.15,320.61,73.08,313.11C73,301.05,75.82,247.76,78,208.89c1.35-23.94,2.46-36.25,2.46-36.25Z" style="fill:#263238"></path><path d="M117.82,436c-8.69-.14-6.2-.22-14.88-.26-4.26,0-32.19-.14-36.16.53a.09.09,0,0,0,0,.18c4,.64,31.91.27,36.16.21,8.69-.12,6.19-.18,14.88-.4A.13.13,0,0,0,117.82,436Z" style="fill:#37474f"></path><path d="M85.26,180.88c-1,31.73-2.14,57.3-3.56,89s-3.32,63.63-6,95.37C74.24,383,72.84,408,70.93,425.65c0,.11.17.16.19,0,4.13-31.48,6.43-70.39,8.46-102.06s3.4-63.39,4.47-95.1c.61-17.94,1.07-29.73,1.6-47.67C85.66,180.61,85.27,180.63,85.26,180.88Z" style="fill:#37474f"></path><path d="M87.44,201.5c1.4-.36,2.9-.48,4.33-.7,1.15-.18,2.3-.39,3.44-.64a14.8,14.8,0,0,0,6.07-2.56c2.84-2.22,6.09-13.44,6.49-14.16.68-1.23.89-.15.89,0,0,1.3-3,11.13-4.14,13-2.11,3.36-5.88,4.71-9.65,5.19-1.09.13-2.18.21-3.26.27a22.69,22.69,0,0,1-4.12,0C87.28,201.85,87.22,201.55,87.44,201.5Z" style="fill:#37474f"></path><path d="M137,212.5A100.85,100.85,0,0,0,121,220c-.2.12-.07.43.15.33,5.4-2.31,10.9-4.53,16.16-7.14A.35.35,0,0,0,137,212.5Z" style="fill:#37474f"></path><path d="M138.61,175.54c0-.19-.34-.23-.34,0a178.09,178.09,0,0,1-.9,18c-.25,2.78-2.49,18.14-7.31,17-.8-.19-1.22-1-1.34-2.2a19.49,19.49,0,0,1,.64-4.71c.53-3.21,1-6.44,1.24-9.69a88.28,88.28,0,0,0-.2-18.17.16.16,0,0,0-.31,0,165.57,165.57,0,0,1-1.47,25.08c-.6,4-2.61,10,1.57,10.63s7-9.45,7.52-12.21A91.86,91.86,0,0,0,138.61,175.54Z" style="fill:#37474f"></path><path d="M130.19,211a27.19,27.19,0,0,0-1.08,3.19,7.1,7.1,0,0,0-.45,2.61.18.18,0,0,0,.33.07,9.06,9.06,0,0,0,1.12-2.54c.37-1,.75-2,1.09-3A.54.54,0,0,0,130.19,211Z" style="fill:#37474f"></path><path d="M137.27,111.58c7.54,25.81,18.1,51.12,23,54.61,7.65,5.4,43.84,10.4,55.93,9.19,4-.4,5.72-29,2.14-31.32s-44.53-3.19-46.94-4.19c-1.28-.54-14-19.35-23.56-31.8C139,96.51,135,103.75,137.27,111.58Z" style="fill:#ad6359"></path><path d="M211.3,175.52c3.43.47,19.32,1.23,23.79.45S252.27,172,252,168.54s-4-2.85-4-2.85,5.15-2.19,4.58-5.68-6.43-2.31-6.43-2.31,5.12-2.63,4.31-6.07-6.52-1.26-6.52-1.26,4.8-2.19,2.93-4.74c-2.24-3.06-10.63,2-15.63,2.46-1.14.11-23.18.61-23.18.61Z" style="fill:#ad6359"></path><path d="M244.41,150.19c-6.18,3.69-9.53,4.24-16.61,4.06a.11.11,0,0,0,0,.22c6.92.8,11.21.72,16.83-4C244.88,150.25,244.7,150,244.41,150.19Z" style="fill:#263238"></path><path d="M246.61,157.4c-6.75,3.27-10.38,3.9-17.81,4.25-.1,0-.11.19,0,.19,7.32.26,11.6.08,17.92-4.07C247,157.58,246.92,157.25,246.61,157.4Z" style="fill:#263238"></path><path d="M247.6,165.69c-6.77,2.7-10.71,3.55-18,3a.14.14,0,0,0,0,.27c7.35,1.31,12.28.28,18.07-3C248.06,165.68,248,165.52,247.6,165.69Z" style="fill:#263238"></path><path d="M203.5,145.22s7.47-5.05,11.24-6.54,19.89-1.89,20.17,1.59c.36,4.48-8.89,6.54-13.56,7,0,0,.86,10.37-5.47,13.29S203.5,145.22,203.5,145.22Z" style="fill:#ad6359"></path><path d="M234.61,141.53c-2.62,4.33-8.78,4.48-13.28,5.22a.42.42,0,0,0-.32.61c.07,4.37-1.11,10.56-4.86,13.26a.11.11,0,0,0,.11.18c4.41-2.35,6.07-8.33,5.69-13.12,4.62-.69,10.79-1.11,12.7-6.13C234.66,141.53,234.62,141.5,234.61,141.53Z" style="fill:#263238"></path><path d="M204.26,179l.39-38.1s-29.24-2.13-32.8-2.69c-1.51-.24-17.42-23.44-24.88-33.29-4.91-6.48-13.14-7.58-10.44,7.88,1.59,9.06,13.87,51.06,21.84,55.88C164.7,172.51,204.26,179,204.26,179Z" style="fill:#455a64"></path><path d="M195.83,174c-.41-2.44-.39-12.67-.36-15.22S196,146,196,143.42c0-.14.21-.18.21,0,0,2.59.32,12.86.32,15.4S196.4,171.55,196,174C195.94,174.11,195.84,174.11,195.83,174Z" style="fill:#263238"></path><path d="M192.55,176.94c-11.36-2-30.19-5.85-34.18-8.26-8-4.84-20.26-46.83-21.84-55.89-1.36-7.8.07-11.39,2.44-12.19Z" style="fill:#020100;opacity:0.1"></path><path d="M78.21,172.45c.12.2,69.21,8.63,70,8.06.28-.22,2-62-5.26-78.36C139.93,95.39,127.8,91.8,121,99,87.93,134,78.05,172.18,78.21,172.45Z" style="fill:#ebebeb"></path><path d="M112,103.07c-15.59,13.86-36.76,39.41-35.81,46,2.37,16.41,14.55,37.08,20.93,44.72,3.72,4.46,28.21-14,25.11-18.13-4.9-6.51-16.55-27-17.88-29.72-.7-1.43,10.11-21,16-34.4C126.75,96.93,119.61,96.31,112,103.07Z" style="fill:#ad6359"></path><path d="M130.48,188.51c-.88-1.79.05-2.27,3.25-.72s14.57,10.37,17.31,6.14-13.46-16.44-19-18.6-15.23-3.72-15.23-3.72C119.5,174.62,125.3,182.54,130.48,188.51Z" style="fill:#ad6359"></path><path d="M96.94,193.64c7.86,8.2,17.13,18.89,29.47,22.38a6.34,6.34,0,0,0,4.15-.14c5.5,1.66,7.93-.44,7.93-.44,5.6,0,7.79-2.51,7.79-2.51s6.48,1.88,8.27-1.85c2-4.17-7.48-6-12.09-10.18-10.55-9.61-22.87-26.22-25.64-29.29Z" style="fill:#ad6359"></path><path d="M124.32,198.6a91.77,91.77,0,0,0,9.72,7.89,91.79,91.79,0,0,0,12.19,6.29.11.11,0,0,1-.08.21,48.42,48.42,0,0,1-22-14.25C124.06,198.59,124.17,198.46,124.32,198.6Z" style="fill:#263238"></path><path d="M117.6,204.13c3.23,2.52,8.93,6.91,20.94,11.18,0,0,0,.09,0,.08a43.56,43.56,0,0,1-21-11.11C117.29,204.11,117.38,204,117.6,204.13Z" style="fill:#263238"></path><path d="M114,207.17c5.65,4.08,9.73,5.93,16.5,8.67,0,0,0,.09,0,.08-8-2.31-10.67-4.06-16.65-8.58C113.67,207.19,113.82,207,114,207.17Z" style="fill:#263238"></path><path d="M90.48,192.84l31.24-21.39L105.86,146c5.45-10.75,15.6-32,18.25-40,3.11-9.38-2.33-10.52-10.27-4.33-18.16,14.16-41.53,41.46-42.6,47.12C69.7,156.91,90.48,192.84,90.48,192.84Z" style="fill:#455a64"></path><path d="M90.85,185.1c1.68-1.67,9.67-7.35,11.67-8.75s10.24-6.71,12.31-8.13c.11-.08.25.06.14.14-2,1.44-9.85,7.41-11.84,8.82s-10,7-12.2,8C90.85,185.24,90.8,185.16,90.85,185.1Z" style="fill:#263238"></path><path d="M118.41,120.16c-3.18,7.7-7.45,15.65-11,23.22a24.21,24.21,0,0,0-1.08,2.58c3.51,6.23,7.91,12.94,11.64,19.13l3.8,6.28,0,0,0,0-.85.55.8-.63,0,.06-4.13-6.06c-3.93-6-8.3-12.43-11.88-18.58-.14-.31-.34-.49-.32-.92a17.37,17.37,0,0,1,1.16-2.9c3.51-7.36,8.1-15.6,11.87-22.8Z" style="fill:#263238"></path><path d="M118.64,121.67a9.71,9.71,0,0,1-2.59,3.07c.86-1,1.64-2.14,2.59-3.07Z" style="fill:#263238"></path><path d="M128.56,95.52c-3,2-1.82,6.37,1.61,11.3s7.81,8,11.38,6.92,3.84-6.51,3.54-9.54c-.24-2.39-2.11-6.9-6.6-8.32S130.29,94.35,128.56,95.52Z" style="fill:#455a64"></path><path d="M140.19,111.86c-4.12.25-10.64-7.62-12.46-13-.13-.37,1-3.82,2.18-8.07.7-2.59,1.42-5.48,1.89-8.17l16.15,7a43.42,43.42,0,0,0-3.43,10,6.18,6.18,0,0,0-.07,1.12,1.34,1.34,0,0,1,0,.19C144.42,103.17,144.16,111.62,140.19,111.86Z" style="fill:#ad6359"></path><path d="M144.45,100.83s0,.11,0,.18a10.44,10.44,0,0,1-1.75-.2c-9.72-1.91-9.94-14.26-9.8-17.69l4,1.75,11,4.8a43.3,43.3,0,0,0-3.42,10A5.42,5.42,0,0,0,144.45,100.83Z" style="fill:#263238"></path><path d="M130.82,64.64c-1.94,6,1,23.62,5.28,27.59,6.18,5.75,16.41,6.44,21.33-1,4.77-7.23.52-30.06-4.25-33.68C146.15,52.2,133.68,55.71,130.82,64.64Z" style="fill:#ad6359"></path><path d="M147.46,75.44s-.08.07-.07.12c.2,1.18.24,2.57-.78,3.12,0,0,0,.07,0,.06C147.91,78.37,147.85,76.53,147.46,75.44Z" style="fill:#263238"></path><path d="M146.22,74.35c-1.93.12-1.53,4,.26,3.86S147.84,74.24,146.22,74.35Z" style="fill:#263238"></path><path d="M154.21,74.52s.1,0,.11.1c.08,1.2.38,2.56,1.5,2.84,0,0,0,.07,0,.07C154.48,77.48,154.1,75.67,154.21,74.52Z" style="fill:#263238"></path><path d="M155.15,73.17c1.91-.34,2.45,3.49.69,3.81S153.56,73.46,155.15,73.17Z" style="fill:#263238"></path><path d="M144.79,73.88a14,14,0,0,0,1.56-.33,2.54,2.54,0,0,0,1.52-.64.81.81,0,0,0,0-1,2,2,0,0,0-2-.47A3,3,0,0,0,144,72.5.87.87,0,0,0,144.79,73.88Z" style="fill:#263238"></path><path d="M156.47,69.79a13.84,13.84,0,0,1-1.57-.24,2.64,2.64,0,0,1-1.56-.55.81.81,0,0,1-.05-1,2,2,0,0,1,2-.59,3,3,0,0,1,1.93,1A.87.87,0,0,1,156.47,69.79Z" style="fill:#263238"></path><path d="M147,86.23c.32.25.64.61,1.08.6a3.32,3.32,0,0,0,1.25-.43s.08,0,.06,0a1.62,1.62,0,0,1-1.45.81,1.28,1.28,0,0,1-1-1C146.85,86.23,146.94,86.19,147,86.23Z" style="fill:#263238"></path><path d="M147.87,82.53a4.14,4.14,0,0,0,2.9,1.53,5.57,5.57,0,0,0,1.47-.08l.28-.07.25-.06a.31.31,0,0,0,.22-.29h0a.42.42,0,0,0,0-.12h0v-.11c-.07-.92-.3-2.31-.3-2.31.35.14,2.14.73,2.07.25a61.67,61.67,0,0,0-2.84-12.14.11.11,0,0,0-.21,0c.47,3.82,1.6,7.54,2.13,11.37a7,7,0,0,0-2-.38c-.13,0,.49,2.67.49,3.09v0a5.68,5.68,0,0,1-4.35-.87C147.88,82.35,147.79,82.44,147.87,82.53Z" style="fill:#263238"></path><path d="M151.71,83.75a4.77,4.77,0,0,1-1.81,1.62,2.2,2.2,0,0,1-1.3.17c-1-.18-1-1-.93-1.8a5.3,5.3,0,0,1,.34-1.16A6.22,6.22,0,0,0,151.71,83.75Z" style="fill:#263238"></path><path d="M149.9,85.37a2.2,2.2,0,0,1-1.3.17c-1-.18-1-1-.93-1.8A2.24,2.24,0,0,1,149.9,85.37Z" style="fill:#ff98b9"></path><path d="M156.91,64.44c-.77-1.53-2.12-3.37-3.08-3.63s-.89,2.67-3,2.95c-2.88.38-4.87-3.26-9.43-2.16-2.75.66-5.37,2.59-3.78,12,1.22,7.3-5.92,9.29-5.92,9.29s-4.54-16.21-.28-21.89,14.18-8.67,21.58-4C155.66,58.78,156.91,64.44,156.91,64.44Z" style="fill:#263238"></path><path d="M136.09,80.37s-4-5.64-6.56-4.22S130,85.78,133,86.89a3.07,3.07,0,0,0,4.11-1.67Z" style="fill:#ad6359"></path><path d="M130.46,78.48c-.05,0-.06.07,0,.08,2.12.85,3.25,2.81,4,4.84a1.69,1.69,0,0,0-2.54-.45.07.07,0,0,0,.06.11,1.89,1.89,0,0,1,2.08.65,8.92,8.92,0,0,1,1,1.68c.1.18.44.08.37-.14l0,0C135.48,82.5,133.36,78.74,130.46,78.48Z" style="fill:#263238"></path><path d="M147.3,54.31a25.1,25.1,0,0,0-7.15-1.56c-2.74-.14-11.23,1.17-13.15,3s-1.85,10-1.82,11.14,1.1,8.26,3.81,9.78,2-10.59,5.81-14.9S147.3,54.31,147.3,54.31Z" style="fill:#FFC727"></path><path d="M147.31,54.31s-8.75,3.18-12.51,7.5S131.7,78.24,129,76.72c-1.19-.67-1.82-1.76-2.43-3.61.27-3.58,1.28-9.17,3.94-13.19C133,56.15,137.6,54,142.63,53A27.79,27.79,0,0,1,147.31,54.31Z" style="opacity:0.1"></path><path d="M130.23,83.84c0-3.24,2.62-12.11,5.68-17.32s13-8.86,14.37-8.88c3.45-.06,4.33,1.52,4.85,1.17s-3.21-4-4.22-4.49a11.19,11.19,0,0,0-4.83-.83c-1.49.15-10.62,1.76-13.66,5.93s-6.95,15.52-5.87,18.27c.26.66,1.19,1,1.55,2,.47,1.23.84,2.66,1.29,3.51C129.75,83.85,130.23,84.12,130.23,83.84Z" style="fill:#FFC727"></path><path d="M136.53,64.24a16.47,16.47,0,0,1-2.35-1.47,11.89,11.89,0,0,1-2.06-1.89c0-.05-.13,0-.09.06a9.38,9.38,0,0,0,1.91,2.16,7.82,7.82,0,0,0,2.53,1.31C136.57,64.44,136.62,64.29,136.53,64.24Z" style="fill:#263238"></path><path d="M130,80.62c-.11-.22-.28-.42-.4-.63a3.85,3.85,0,0,1-.36-.77,7.47,7.47,0,0,0-.49-1.54,5.43,5.43,0,0,0-.84-1,2.2,2.2,0,0,1-.73-1.26.06.06,0,0,0-.11,0c.07,1,.78,1.62,1.27,2.41a9.36,9.36,0,0,1,.57,1.64,2.56,2.56,0,0,0,.95,1.28C129.89,80.78,130,80.7,130,80.62Z" style="fill:#263238"></path><path d="M130.81,77.06a13.72,13.72,0,0,1-1-1,8.94,8.94,0,0,1-.78-1.15c-.24-.4-.44-.81-.67-1.2s-.59-.92-.83-1.4c0-.06-.12,0-.09.06.25.5.42,1,.65,1.55a12.2,12.2,0,0,0,.72,1.27,6.58,6.58,0,0,0,.85,1.1,3.5,3.5,0,0,0,1.1.85S130.83,77.08,130.81,77.06Z" style="fill:#263238"></path><path d="M131.74,73.82a9.26,9.26,0,0,1-1.9-1.85c-.52-.69-1-1.42-1.48-2.14,0,0-.12,0-.1,0a10.87,10.87,0,0,0,1.3,2.36,5.07,5.07,0,0,0,.9,1,5.76,5.76,0,0,0,1.22.72S131.8,73.86,131.74,73.82Z" style="fill:#263238"></path><path d="M132.79,70.7a3,3,0,0,1-.92-.79c-.31-.34-.6-.69-.89-1l-.84-1a3.1,3.1,0,0,1-.66-1.14c0-.06-.12,0-.11,0a3.18,3.18,0,0,0,.47,1.23,8.3,8.3,0,0,0,.82,1.21,10.89,10.89,0,0,0,1,1,2.07,2.07,0,0,0,1.09.64C132.82,70.86,132.87,70.74,132.79,70.7Z" style="fill:#263238"></path><path d="M133.42,66.81c-.32-.27-.64-.54-.94-.84s-.58-.6-.86-.91-.59-.65-.86-1a.05.05,0,0,0-.09.06,7.89,7.89,0,0,0,1.54,2.11,9.81,9.81,0,0,0,1,.86,3.33,3.33,0,0,0,1.1.65.07.07,0,0,0,.08-.11A6.07,6.07,0,0,0,133.42,66.81Z" style="fill:#263238"></path><path d="M138.87,62.22c-.35-.37-.69-.73-1.07-1.07a14.46,14.46,0,0,0-1.23-1,13.88,13.88,0,0,0-2.62-1.5c-.06,0-.12.05-.06.09,1.62,1.19,3.29,2.32,4.91,3.52C138.85,62.34,138.91,62.27,138.87,62.22Z" style="fill:#263238"></path><path d="M140.61,59.32a6.64,6.64,0,0,0-1.17-1A14.73,14.73,0,0,0,136.56,57a.06.06,0,0,0-.05.1c.88.49,1.76,1,2.61,1.51a13.33,13.33,0,0,1,1.22.86c.39.31.7.7,1.08,1,0,0,.08,0,.06-.05A3.65,3.65,0,0,0,140.61,59.32Z" style="fill:#263238"></path><path d="M143.2,57.85a7.07,7.07,0,0,0-1.09-1,8.15,8.15,0,0,0-2.46-1.2c-.06,0-.09.07,0,.1A15.74,15.74,0,0,1,142,57.23c.37.27.72.57,1.08.85s.67.66,1.05.91c0,0,.06,0,0-.05A7.51,7.51,0,0,0,143.2,57.85Z" style="fill:#263238"></path><path d="M145,56.1c-.36-.25-.73-.48-1.1-.71a3.92,3.92,0,0,0-1.17-.55.05.05,0,0,0,0,.1c.7.48,1.39,1,2.08,1.46a11.7,11.7,0,0,1,1.64,1.66s.07,0,0,0A4.1,4.1,0,0,0,145,56.1Z" style="fill:#263238"></path><path d="M147.39,55.4a6.39,6.39,0,0,0-2.25-1.18c-.06,0-.09.07,0,.1a8.18,8.18,0,0,1,2.07,1.32,11.52,11.52,0,0,1,1.69,1.8s.09,0,.07,0A5.39,5.39,0,0,0,147.39,55.4Z" style="fill:#263238"></path><path d="M150.67,56.6a3.82,3.82,0,0,0-.31-.47,5.56,5.56,0,0,0-.79-.82A11.29,11.29,0,0,0,147.64,54c-.06,0-.11.06,0,.09a9.83,9.83,0,0,1,1.82,1.32,8.36,8.36,0,0,1,.76.81l.32.43a2.63,2.63,0,0,0,.3.44s.09,0,.09-.05A1.46,1.46,0,0,0,150.67,56.6Z" style="fill:#263238"></path><path d="M152.62,56.62A8.07,8.07,0,0,0,152,56a8.17,8.17,0,0,0-.72-.6c-.26-.18-.53-.36-.78-.56-.06,0-.12,0-.06.09a5.43,5.43,0,0,1,.73.62l.66.63.65.63a8.22,8.22,0,0,0,.66.66,0,0,0,0,0,.06-.06A3.61,3.61,0,0,0,152.62,56.62Z" style="fill:#263238"></path></g><g id="freepik--speech-bubble-2--inject-11"><polygon points="305.36 103.46 346.61 103.46 360.48 103.46 360.48 110.32 367.78 110.32 360.48 117.61 360.48 135.65 305.36 135.65 305.36 131.18 305.36 103.46" style="fill:#fff"></polygon><path d="M305.36,103.46c.34,0,55.09-.29,55.38-.26v.26l.07,6.86-.33-.33,7.3,0h.9c0,.1-7.63,7.66-7.89,8l.12-.3,0,18v.47h-.48c-13.94,0-41.58,0-55.52-.08.08-8.23.25-24.36.4-32.58Zm0,0c.16,8,.32,24.17.4,32.19l-.4-.4c13.75-.06,41.38-.09,55.12-.08l-.47.48.05-18v-.18l.12-.13,7.34-7.26.26.64-7.3,0h-.32v-.32l.07-6.86c1.55.7-55.17-.21-54.87,0Z" style="fill:#263238"></path><path d="M323.67,119.55a2.45,2.45,0,1,1-2.45-2.44A2.45,2.45,0,0,1,323.67,119.55Z" style="fill:#263238"></path><path d="M335.86,119.55a2.45,2.45,0,1,1-2.44-2.44A2.45,2.45,0,0,1,335.86,119.55Z" style="fill:#263238"></path><path d="M348.05,119.55a2.44,2.44,0,1,1-2.44-2.44A2.45,2.45,0,0,1,348.05,119.55Z" style="fill:#263238"></path></g><g id="freepik--speech-bubble-1--inject-11"><polygon points="333.42 42.29 179.76 42.29 179.76 91.67 159.41 91.67 179.76 112.01 179.76 132.01 333.42 132.01 333.42 42.29" style="fill:#FFC727"></polygon><path d="M333.42,42.29c0-.14-154.72.66-153.41,0,0,.48.06,49.22,0,49.67h-.29l-20.35,0,.23-.55L180,111.76l.1.1V112l.1,20-.46-.46c42.93,0,110.25,0,153.66.12l-.34.34c0-22.35.23-67.36.34-89.72Zm0,0c.09,22.37.34,67.36.33,89.72v.34h-.34c-43.64,0-110.55.23-153.66.12h-.47V132l.09-20c.76,1.17-20.36-20.4-20.21-20.11l-.55-.56h.78l20.35,0-.3.3,0-49.38c-.27-.74,153.66.26,153.92,0Z" style="fill:#263238"></path><path d="M282.39,87.15a6.81,6.81,0,1,0,6.81-6.81A6.81,6.81,0,0,0,282.39,87.15Z" style="fill:#263238"></path><path d="M248.4,87.15a6.81,6.81,0,1,0,6.81-6.81A6.81,6.81,0,0,0,248.4,87.15Z" style="fill:#263238"></path><path d="M214.41,87.15a6.81,6.81,0,1,0,6.81-6.81A6.81,6.81,0,0,0,214.41,87.15Z" style="fill:#263238"></path></g></svg>
