<svg xmlns="http://www.w3.org/2000/svg" viewBox="0 0 500 500"><g id="freepik--background-simple--inject-49"><path d="M461.52,101.55q-2.38-4-5-7.9c-23.18-34.34-63.07-57.84-102.31-68.46a231.87,231.87,0,0,0-52.71-7.69c-116.62-3.95-163.07,88-201.61,111.68S2.07,193.41,6,278.4s65.22,165,183.81,170S316.33,400,382.54,380.19c43.82-13.08,75-57.26,90.2-98.09C493.52,226.46,492.54,154.19,461.52,101.55Z" style="fill:#92E3A9"></path><path d="M461.52,101.55q-2.38-4-5-7.9c-23.18-34.34-63.07-57.84-102.31-68.46a231.87,231.87,0,0,0-52.71-7.69c-116.62-3.95-163.07,88-201.61,111.68S2.07,193.41,6,278.4s65.22,165,183.81,170S316.33,400,382.54,380.19c43.82-13.08,75-57.26,90.2-98.09C493.52,226.46,492.54,154.19,461.52,101.55Z" style="fill:#fff;opacity:0.7000000000000001"></path></g><g id="freepik--Window--inject-49"><polyline points="487 95.2 369.03 95.2 373.82 87.01 487 87.01" style="fill:none;stroke:#263238;stroke-linecap:round;stroke-linejoin:round"></polyline><polyline points="487 103.4 369.03 103.4 373.82 95.2 487 95.2" style="fill:none;stroke:#263238;stroke-linecap:round;stroke-linejoin:round"></polyline><polyline points="487 111.59 369.03 111.59 373.82 103.4 487 103.4" style="fill:none;stroke:#263238;stroke-linecap:round;stroke-linejoin:round"></polyline><polyline points="487 119.78 369.03 119.78 373.82 111.59 487 111.59" style="fill:none;stroke:#263238;stroke-linecap:round;stroke-linejoin:round"></polyline><polyline points="487 127.98 369.03 127.98 373.82 119.78 487 119.78" style="fill:none;stroke:#263238;stroke-linecap:round;stroke-linejoin:round"></polyline><polyline points="487 136.17 369.03 136.17 373.82 127.98 487 127.98" style="fill:none;stroke:#263238;stroke-linecap:round;stroke-linejoin:round"></polyline><polyline points="487 144.36 369.03 144.36 373.82 136.17 487 136.17" style="fill:none;stroke:#263238;stroke-linecap:round;stroke-linejoin:round"></polyline><polyline points="487 152.56 369.03 152.56 373.82 144.36 487 144.36" style="fill:none;stroke:#263238;stroke-linecap:round;stroke-linejoin:round"></polyline><polyline points="487 160.75 369.03 160.75 373.82 152.56 487 152.56" style="fill:none;stroke:#263238;stroke-linecap:round;stroke-linejoin:round"></polyline><polyline points="487 168.94 369.03 168.94 373.82 160.75 487 160.75" style="fill:none;stroke:#263238;stroke-linecap:round;stroke-linejoin:round"></polyline><polyline points="487 177.14 369.03 177.14 373.82 168.94 487 168.94" style="fill:none;stroke:#263238;stroke-linecap:round;stroke-linejoin:round"></polyline><polyline points="487 185.33 369.03 185.33 373.82 177.14 487 177.14" style="fill:none;stroke:#263238;stroke-linecap:round;stroke-linejoin:round"></polyline><polyline points="487 193.52 369.03 193.52 373.82 185.33 487 185.33" style="fill:none;stroke:#263238;stroke-linecap:round;stroke-linejoin:round"></polyline><polyline points="487 201.72 369.03 201.72 373.82 193.52 487 193.52" style="fill:none;stroke:#263238;stroke-linecap:round;stroke-linejoin:round"></polyline><polyline points="487 209.91 369.03 209.91 373.82 201.72 487 201.72" style="fill:none;stroke:#263238;stroke-linecap:round;stroke-linejoin:round"></polyline><polyline points="487 218.1 369.03 218.1 373.82 209.91 487 209.91" style="fill:none;stroke:#263238;stroke-linecap:round;stroke-linejoin:round"></polyline><polyline points="487 226.3 369.03 226.3 373.82 218.1 487 218.1" style="fill:none;stroke:#263238;stroke-linecap:round;stroke-linejoin:round"></polyline><polyline points="487 234.49 369.03 234.49 373.82 226.3 487 226.3" style="fill:none;stroke:#263238;stroke-linecap:round;stroke-linejoin:round"></polyline><polyline points="487 242.68 369.03 242.68 373.82 234.49 487 234.49" style="fill:none;stroke:#263238;stroke-linecap:round;stroke-linejoin:round"></polyline><polyline points="487 250.88 369.03 250.88 373.82 242.68 487 242.68" style="fill:none;stroke:#263238;stroke-linecap:round;stroke-linejoin:round"></polyline><polyline points="487 259.07 369.03 259.07 373.82 250.88 487 250.88" style="fill:none;stroke:#263238;stroke-linecap:round;stroke-linejoin:round"></polyline><polyline points="487 267.26 369.03 267.26 373.82 259.07 487 259.07" style="fill:none;stroke:#263238;stroke-linecap:round;stroke-linejoin:round"></polyline><polyline points="487 275.46 369.03 275.46 373.82 267.26 487 267.26" style="fill:none;stroke:#263238;stroke-linecap:round;stroke-linejoin:round"></polyline><polyline points="487 283.65 369.03 283.65 373.82 275.46 487 275.46" style="fill:none;stroke:#263238;stroke-linecap:round;stroke-linejoin:round"></polyline><polyline points="487 291.84 369.03 291.84 373.82 283.65 487 283.65" style="fill:none;stroke:#263238;stroke-linecap:round;stroke-linejoin:round"></polyline><polyline points="487 300.04 369.03 300.04 373.82 291.84 487 291.84" style="fill:none;stroke:#263238;stroke-linecap:round;stroke-linejoin:round"></polyline><polyline points="487 308.23 369.03 308.23 373.82 300.04 487 300.04" style="fill:none;stroke:#263238;stroke-linecap:round;stroke-linejoin:round"></polyline><polyline points="487 316.43 369.03 316.43 373.82 308.23 487 308.23" style="fill:none;stroke:#263238;stroke-linecap:round;stroke-linejoin:round"></polyline><polyline points="487 72.86 361.86 72.86 361.86 87.01 487 87.01" style="fill:none;stroke:#263238;stroke-linecap:round;stroke-linejoin:round"></polyline></g><g id="freepik--Plant--inject-49"><path d="M75.53,210.27h0a.08.08,0,0,0,0-.1.07.07,0,0,0-.1,0,98.32,98.32,0,0,0-5.13,16.08A149.31,149.31,0,0,0,67.43,243l-.4,4.22c-.06.7-.14,1.4-.19,2.11l-.12,2.11c-.06,1.41-.14,2.82-.18,4.23l0,4.24,0,2.12c0,.7.08,1.4.13,2.11.11,1.41.19,2.82.32,4.22.27,2.81.7,5.6,1.13,8.38,0,0,0,.07.07.06a.08.08,0,0,0,.08-.07h0c0-1.42-.07-2.82-.1-4.22s-.16-2.81-.14-4.21,0-2.8,0-4.21L68,262l0-2.1,0-4.2.11-4.2,0-2.1c0-.7.08-1.39.12-2.09l.26-4.19A150.77,150.77,0,0,1,71,226.45,97.69,97.69,0,0,1,75.53,210.27Z" style="fill:#263238"></path><path d="M76.13,232.22a.07.07,0,0,0,0-.09.06.06,0,0,0-.09,0,100.91,100.91,0,0,0-3,10.66,98.46,98.46,0,0,0-1.76,11c-.38,3.67-.79,7.35-.84,11a93.26,93.26,0,0,0,.39,11.08.09.09,0,0,0,.07.06.06.06,0,0,0,.08-.06c.43-3.68.69-7.35.94-11s.3-7.34.54-11A98,98,0,0,1,73.73,243,96.92,96.92,0,0,1,76.13,232.22Z" style="fill:#263238"></path><path d="M88.3,239.94a.07.07,0,0,0-.11,0A36.85,36.85,0,0,0,80.06,247a32.38,32.38,0,0,0-3.18,4.42l-.66,1.24L75.71,254c-.18.42-.31.86-.45,1.3s-.27.87-.39,1.31a52.35,52.35,0,0,0-1.69,10.73,63,63,0,0,0,.41,10.81.07.07,0,0,0,.07.07.08.08,0,0,0,.08-.07l.92-10.7A94.77,94.77,0,0,1,76,256.85c.1-.43.22-.85.33-1.28a12.28,12.28,0,0,1,.37-1.26l.44-1.24.56-1.17a31.79,31.79,0,0,1,2.91-4.42A36.92,36.92,0,0,1,88.27,240h0A.08.08,0,0,0,88.3,239.94Z" style="fill:#263238"></path><path d="M82.41,253.69a11.81,11.81,0,0,0-3.7,4.44,26.86,26.86,0,0,0-2.08,5.45c-.14.47-.26.94-.36,1.42l-.33,1.42a23.52,23.52,0,0,0-.36,2.89c0,1,0,1.94,0,2.91a25.68,25.68,0,0,0,.38,2.89.09.09,0,0,0,.06.06.08.08,0,0,0,.09-.06,24,24,0,0,0,.51-2.85c.16-.94.3-1.88.41-2.81s.27-1.87.34-2.81.2-1.87.4-2.79a25.54,25.54,0,0,1,1.59-5.4,12,12,0,0,1,3.1-4.64h0a.08.08,0,0,0,0-.1A.07.07,0,0,0,82.41,253.69Z" style="fill:#263238"></path><path d="M65.34,264.41c-.4-4.75-1.18-9.46-1.92-14.16s-1.56-9.39-2.42-14.06-1.82-9.34-2.83-14a.09.09,0,0,0-.09-.06.08.08,0,0,0-.06.09c.81,4.68,1.55,9.38,2.25,14.08s1.38,9.4,2,14.11,1,9.44,1.63,14.14l1.74,14.14a.07.07,0,0,0,.14,0c.06-1.19.06-2.39.09-3.58s0-2.38-.07-3.58C65.72,269.16,65.52,266.78,65.34,264.41Z" style="fill:#263238"></path><path d="M62.49,264.34c-.25-1.88-.6-3.75-1-5.62L60.87,256c-.22-.93-.43-1.85-.7-2.77a79.2,79.2,0,0,0-3.63-10.8L56,241.07l-.63-1.28c-.4-.86-.89-1.68-1.35-2.51a21.68,21.68,0,0,0-3.43-4.54.07.07,0,0,0-.1,0,.08.08,0,0,0,0,.1h0a21,21,0,0,1,3.14,4.65c.41.84.85,1.67,1.2,2.55l.56,1.29.49,1.32A76.51,76.51,0,0,1,59,253.47c.43,1.82.72,3.69,1.07,5.53l.45,2.78c.16.93.36,1.85.49,2.78.29,1.86.64,3.71,1,5.57s.63,3.72,1,5.58a.07.07,0,0,0,.07.06.08.08,0,0,0,.08-.07c0-1.9,0-3.8-.13-5.69S62.69,266.23,62.49,264.34Z" style="fill:#263238"></path><path d="M58.56,264.58c-.88-2.49-1.9-4.93-3-7.32a62.92,62.92,0,0,0-3.78-6.94.1.1,0,0,0-.1,0,.09.09,0,0,0,0,.11,62.82,62.82,0,0,1,3.23,7.15c1,2.43,1.84,4.89,2.57,7.4s1.27,5.05,1.94,7.56,1.26,5.05,2,7.6a.08.08,0,0,0,.08.05.07.07,0,0,0,.07-.07,37.31,37.31,0,0,0-.74-7.9A47.86,47.86,0,0,0,58.56,264.58Z" style="fill:#263238"></path><path d="M58.4,272.88a17.12,17.12,0,0,0-2.09-4.38,18.25,18.25,0,0,0-3.05-3.79,14.38,14.38,0,0,0-1.93-1.46,8.39,8.39,0,0,0-2.2-1,.07.07,0,0,0-.08,0,.08.08,0,0,0,0,.1h0a11.12,11.12,0,0,1,3.65,2.83,17,17,0,0,1,2.53,3.85c.72,1.36,1.1,2.87,1.72,4.28.28.72.56,1.44.88,2.16a18.26,18.26,0,0,0,1,2.2h0a.08.08,0,0,0,.15,0,19.74,19.74,0,0,0-.09-2.43C58.76,274.46,58.59,273.67,58.4,272.88Z" style="fill:#263238"></path><path d="M58.69,229a13.53,13.53,0,0,1-9.58-10.18c-1.79-8.38,4-4.79-1.19-18s-4-16.17-2.2-20,2.79-2.6,4.39,2.39,7.39,12.78,9.58,27.35S58.69,229,58.69,229Z" style="fill:#92E3A9"></path><path d="M74.06,214.83s-5.19-1.8-5.39-11.58,3.8-7.78,4.39-20,1.4-20.75,3.6-20.95,8,6,10,19.56-2.6,22.55-6.59,26.54S74.06,214.83,74.06,214.83Z" style="fill:#92E3A9"></path><path d="M55.9,240.78s-1.2-7.19-3.59-10.58-7.59-6.39-11-13-7.19-9.78-7-.4,4.39,14.17,9.58,17.36S55.9,240.78,55.9,240.78Z" style="fill:#92E3A9"></path><path d="M53.7,253.15a72,72,0,0,0-11.77-16c-7-6.78-12.58-10.17-10.58-6.78s4.39,3.19,7.78,9.18,2.4,10.38,7.19,13.77S53.7,253.15,53.7,253.15Z" style="fill:#92E3A9"></path><path d="M53.1,264.93c-.19-.6-.39-5-7.18-8.58s-13.17-2.2-12.38-.4,5,4.79,9.19,6.58A42.2,42.2,0,0,0,53.1,264.93Z" style="fill:#92E3A9"></path><path d="M73.66,241.18s-3-3.8-1.39-11.78,5.19-6,9.18-10.18,3.19-4.79,7.18-9.18,7.59-6.79,9.18-5-.79,7.39-3.19,10.58-6.19,4.79-8,8.78-1,10.38-5.59,13.37S73.66,241.18,73.66,241.18Z" style="fill:#92E3A9"></path><path d="M83.64,243.37S90.83,235.19,96,229.2s7.18-10.58,7.38-6.59S105.2,229.8,101,235,83.64,243.37,83.64,243.37Z" style="fill:#92E3A9"></path><path d="M79.85,256.55S79.65,253.35,91,246s16.16-8.79,15-5.79-6.19,6-11.58,11.38S79.85,256.55,79.85,256.55Z" style="fill:#92E3A9"></path><path d="M59.17,228.15s-2.67-14.32-5.47-24.5-4.59-16.36-4.59-16.36" style="fill:none;stroke:#263238;stroke-linecap:round;stroke-linejoin:round"></path><path d="M73.6,215s4.85-15.52,6.45-24.9-.2-16.37-1-20.56" style="fill:none;stroke:#263238;stroke-linecap:round;stroke-linejoin:round"></path><path d="M55.27,240.48A75.1,75.1,0,0,0,47.92,230c-4.4-5.19-7.79-8-9.78-13" style="fill:none;stroke:#263238;stroke-linecap:round;stroke-linejoin:round"></path><path d="M73.66,241.18s1.6-9.58,5.39-14.57,11.38-12.78,14.37-17.77" style="fill:none;stroke:#263238;stroke-linecap:round;stroke-linejoin:round"></path><path d="M52.64,264.71s-6.72-4.37-11.51-6.77" style="fill:none;stroke:#263238;stroke-linecap:round;stroke-linejoin:round"></path><polygon points="74.71 307.04 60.84 307.04 53.9 272.31 81.65 272.31 74.71 307.04" style="fill:#263238;stroke:#263238;stroke-linecap:round;stroke-linejoin:round"></polygon></g><g id="freepik--Furniture--inject-49"><rect x="24.15" y="307.93" width="86.91" height="143.41" style="fill:none;stroke:#263238;stroke-linecap:round;stroke-linejoin:round"></rect><rect x="32.55" y="321.66" width="70.18" height="35.85" style="fill:none;stroke:#263238;stroke-linecap:round;stroke-linejoin:round"></rect><ellipse cx="67.63" cy="338.16" rx="16.78" ry="1.91" style="fill:#263238;stroke:#263238;stroke-linecap:round;stroke-linejoin:round"></ellipse><rect x="32.55" y="365.14" width="70.18" height="35.85" style="fill:none;stroke:#263238;stroke-linecap:round;stroke-linejoin:round"></rect><path d="M84.42,381.64c0,1.05-7.52,1.91-16.79,1.91s-16.78-.86-16.78-1.91,7.52-1.91,16.78-1.91S84.42,380.59,84.42,381.64Z" style="fill:#263238;stroke:#263238;stroke-linecap:round;stroke-linejoin:round"></path><rect x="32.55" y="408.62" width="70.18" height="35.85" style="fill:none;stroke:#263238;stroke-linecap:round;stroke-linejoin:round"></rect><ellipse cx="67.63" cy="425.12" rx="16.78" ry="1.91" style="fill:#263238;stroke:#263238;stroke-linecap:round;stroke-linejoin:round"></ellipse></g><g id="freepik--Poster--inject-49"><rect x="208.92" y="76.25" width="81.62" height="165.53" style="fill:#fff;stroke:#263238;stroke-linecap:round;stroke-linejoin:round"></rect><path d="M244.19,103.69v-22h9.58V84.8h-5.1v5.84h3.94v3.12h-3.94v6.89h5.16v3Z" style="fill:#263238"></path><path d="M229.65,125.87V109.65h7.07v2.28H233v4.31h2.9v2.3H233v5.09h3.81v2.24Z" style="fill:#263238"></path><path d="M230.47,143.28V133h-1.86V131.2h6.17V133H233v10.25Z" style="fill:#263238"></path><path d="M249.22,143.44a4.08,4.08,0,0,1-2.1-.47A2.65,2.65,0,0,1,246,141.6a6.08,6.08,0,0,1-.34-2.12V135a6.08,6.08,0,0,1,.34-2.12,2.58,2.58,0,0,1,1.11-1.34,4.09,4.09,0,0,1,2.1-.46,4.15,4.15,0,0,1,2.13.47,2.64,2.64,0,0,1,1.12,1.34,6,6,0,0,1,.33,2.11v4.51a6.09,6.09,0,0,1-.33,2.12,2.71,2.71,0,0,1-1.12,1.37A4.15,4.15,0,0,1,249.22,143.44Zm0-1.77a1,1,0,0,0,.71-.22,1.14,1.14,0,0,0,.29-.58,3.81,3.81,0,0,0,.08-.78v-5.72a3.79,3.79,0,0,0-.08-.77,1.18,1.18,0,0,0-.29-.58,1,1,0,0,0-.71-.21,1,1,0,0,0-.67.21,1.11,1.11,0,0,0-.3.58,4.69,4.69,0,0,0-.07.77v5.72a3.84,3.84,0,0,0,.07.78,1,1,0,0,0,.29.58A.93.93,0,0,0,249.22,141.67Z" style="fill:#263238"></path><path d="M225.81,159.86V147.78h2.46v10.41h2.83v1.67Z" style="fill:#263238"></path><path d="M222.38,175.46v-10.9h3.46a3.06,3.06,0,0,1,1.6.37,2.25,2.25,0,0,1,.92,1.07,4.3,4.3,0,0,1,.31,1.7,3.6,3.6,0,0,1-.4,1.83,2.21,2.21,0,0,1-1.08.93,4.32,4.32,0,0,1-1.58.28h-1v4.72Zm2.22-6.28h.78a1.52,1.52,0,0,0,.75-.16.84.84,0,0,0,.36-.49,3.38,3.38,0,0,0,.09-.86,4.89,4.89,0,0,0-.07-.84.87.87,0,0,0-.33-.52,1.34,1.34,0,0,0-.81-.19h-.77Z" style="fill:#263238"></path><path d="M222.25,190.55v-9.1h4v1.28H224.1v2.42h1.63v1.29H224.1v2.85h2.14v1.26Z" style="fill:#263238"></path><path d="M222.51,205.74v-6.11h2.58v.85h-1.34v1.65h1.14V203h-1.14v2.74Z" style="fill:#263238"></path><path d="M231.5,205.74v-6.11h2.67v.86h-1.42v1.62h1.09V203h-1.09v1.92h1.43v.84Z" style="fill:#263238"></path><path d="M224.78,214.07v-5.33h1.3a2.56,2.56,0,0,1,1.06.18,1,1,0,0,1,.53.54,2.39,2.39,0,0,1,.16.95v1.94a2.51,2.51,0,0,1-.16,1,1,1,0,0,1-.53.56,2.41,2.41,0,0,1-1,.18Zm1.08-.76h.23a.74.74,0,0,0,.43-.09.48.48,0,0,0,.17-.28,3.09,3.09,0,0,0,0-.47v-2.19a2.48,2.48,0,0,0,0-.45.37.37,0,0,0-.18-.24.72.72,0,0,0-.41-.08h-.23Z" style="fill:#263238"></path><path d="M228,227v-4.6h.94v4H230V227Z" style="fill:#263238"></path><path d="M233.55,227v-4.6h2v.64h-1.07v1.23h.83V225h-.83v1.44h1.08V227Z" style="fill:#263238"></path><path d="M239.71,227v-4.6h1.94v.63h-1v1.25h.85V225h-.85V227Z" style="fill:#263238"></path><path d="M229.74,232.42v-3.48h1.47v.48h-.76v.94h.64v.5h-.64v1.56Z" style="fill:#263238"></path><path d="M234.11,232.42v-3.48H235a1.86,1.86,0,0,1,.7.11.72.72,0,0,1,.35.36,1.79,1.79,0,0,1,.1.62v1.27a1.91,1.91,0,0,1-.1.64.74.74,0,0,1-.35.37,1.58,1.58,0,0,1-.68.11Zm.71-.49H235a.52.52,0,0,0,.29-.06.29.29,0,0,0,.1-.19,2.36,2.36,0,0,0,0-.3v-1.44a1.12,1.12,0,0,0,0-.29.21.21,0,0,0-.11-.16.56.56,0,0,0-.27-.05h-.15Z" style="fill:#263238"></path><path d="M238.73,232.42v-3.48h1.1a1,1,0,0,1,.52.12.69.69,0,0,1,.29.34,1.44,1.44,0,0,1,.1.54,1.2,1.2,0,0,1-.13.59.69.69,0,0,1-.35.3,1.5,1.5,0,0,1-.5.08h-.32v1.51Zm.71-2h.25a.54.54,0,0,0,.24,0,.31.31,0,0,0,.11-.16,1,1,0,0,0,0-.28,1.84,1.84,0,0,0,0-.26.3.3,0,0,0-.11-.17.43.43,0,0,0-.26-.06h-.24Z" style="fill:#263238"></path><path d="M244.39,232.42v-3.48h.71v3h.81v.48Z" style="fill:#263238"></path><path d="M250.19,232.42v-3.48h.49l.78,1.82v-1.82H252v3.48h-.47l-.78-1.92v1.92Z" style="fill:#263238"></path><path d="M257.5,232.47a1.21,1.21,0,0,1-.62-.14.79.79,0,0,1-.31-.41,1.87,1.87,0,0,1-.09-.61v-1.25a1.89,1.89,0,0,1,.09-.62.73.73,0,0,1,.31-.4,1.12,1.12,0,0,1,.62-.14,1.17,1.17,0,0,1,.58.12.66.66,0,0,1,.31.35,1.74,1.74,0,0,1,.08.53v.3h-.68v-.33a1.64,1.64,0,0,0,0-.23.33.33,0,0,0-.07-.17.27.27,0,0,0-.2-.07.28.28,0,0,0-.2.07.31.31,0,0,0-.09.18,1.85,1.85,0,0,0,0,.24v1.59a.94.94,0,0,0,0,.25.34.34,0,0,0,.09.17.27.27,0,0,0,.19.06.24.24,0,0,0,.2-.07.3.3,0,0,0,.07-.18,1.64,1.64,0,0,0,0-.23v-.34h.68v.29a1.53,1.53,0,0,1-.08.54.78.78,0,0,1-.3.37A1.1,1.1,0,0,1,257.5,232.47Z" style="fill:#263238"></path><path d="M262.92,232.42v-3.48h1.52v.49h-.81v.92h.63v.5h-.63v1.09h.82v.48Z" style="fill:#263238"></path><path d="M270.7,232.47a1.1,1.1,0,0,1-.61-.14.83.83,0,0,1-.32-.39,1.82,1.82,0,0,1-.09-.61V230a1.82,1.82,0,0,1,.09-.61.83.83,0,0,1,.32-.39,1.2,1.2,0,0,1,.61-.13,1.18,1.18,0,0,1,.61.13.79.79,0,0,1,.33.39,1.82,1.82,0,0,1,.09.61v1.3a1.82,1.82,0,0,1-.09.61.79.79,0,0,1-.33.39A1.08,1.08,0,0,1,270.7,232.47Zm0-.51a.28.28,0,0,0,.2-.06.31.31,0,0,0,.09-.17,1.64,1.64,0,0,0,0-.23v-1.64a1.64,1.64,0,0,0,0-.23.28.28,0,0,0-.29-.23.26.26,0,0,0-.19.07.28.28,0,0,0-.09.16,1.64,1.64,0,0,0,0,.23v1.64a1.64,1.64,0,0,0,0,.23.24.24,0,0,0,.28.23Z" style="fill:#263238"></path><path d="M246.69,227.09a1.55,1.55,0,0,1-.8-.18,1,1,0,0,1-.42-.52,2.22,2.22,0,0,1-.13-.81v-1.72a2.13,2.13,0,0,1,.13-.8.89.89,0,0,1,.42-.51,1.89,1.89,0,0,1,1.61,0,1,1,0,0,1,.43.51,2.35,2.35,0,0,1,.13.8v1.72a2.46,2.46,0,0,1-.13.81,1,1,0,0,1-.43.52A1.57,1.57,0,0,1,246.69,227.09Zm0-.67a.37.37,0,0,0,.27-.09.38.38,0,0,0,.11-.22,1.39,1.39,0,0,0,0-.3v-2.17a1.39,1.39,0,0,0,0-.3.42.42,0,0,0-.11-.22.41.41,0,0,0-.27-.08.36.36,0,0,0-.25.08.43.43,0,0,0-.12.22,1.39,1.39,0,0,0,0,.3v2.17a1.39,1.39,0,0,0,0,.3.38.38,0,0,0,.11.22A.36.36,0,0,0,246.69,226.42Z" style="fill:#263238"></path><path d="M251.8,227v-4.6h1.12a2.23,2.23,0,0,1,.91.15.9.9,0,0,1,.47.47,2.14,2.14,0,0,1,.13.82v1.68a2.25,2.25,0,0,1-.13.84.94.94,0,0,1-.46.48,2,2,0,0,1-.9.16Zm.93-.65h.2a.57.57,0,0,0,.37-.09.33.33,0,0,0,.14-.24,2.25,2.25,0,0,0,0-.4v-1.9a1.29,1.29,0,0,0,0-.38.34.34,0,0,0-.14-.22.84.84,0,0,0-.36-.06h-.2Z" style="fill:#263238"></path><path d="M266.24,227.09a1.47,1.47,0,0,1-.81-.19,1,1,0,0,1-.42-.54,2.41,2.41,0,0,1-.12-.8v-1.65a2.49,2.49,0,0,1,.12-.82,1,1,0,0,1,.42-.53,1.47,1.47,0,0,1,.81-.19,1.5,1.5,0,0,1,.77.16.92.92,0,0,1,.4.47,1.86,1.86,0,0,1,.12.7v.39h-.91v-.44a2.64,2.64,0,0,0,0-.29.4.4,0,0,0-.09-.23.34.34,0,0,0-.27-.09.37.37,0,0,0-.27.09.45.45,0,0,0-.11.24,2.88,2.88,0,0,0,0,.32v2.09a1.72,1.72,0,0,0,0,.34.4.4,0,0,0,.12.22.37.37,0,0,0,.25.08.33.33,0,0,0,.26-.09.53.53,0,0,0,.1-.24,3,3,0,0,0,0-.31v-.45h.91v.38a1.92,1.92,0,0,1-.12.71.9.9,0,0,1-.39.49A1.43,1.43,0,0,1,266.24,227.09Z" style="fill:#263238"></path><path d="M259.18,227v-4.6h1.46a1.37,1.37,0,0,1,.68.15,1.07,1.07,0,0,1,.39.45,1.94,1.94,0,0,1,.12.72,1.5,1.5,0,0,1-.16.77.94.94,0,0,1-.46.4,1.75,1.75,0,0,1-.67.11h-.42v2Zm.94-2.65h.33a.65.65,0,0,0,.31-.07.28.28,0,0,0,.15-.21,1.19,1.19,0,0,0,0-.36,1.69,1.69,0,0,0,0-.35.34.34,0,0,0-.14-.22.52.52,0,0,0-.34-.08h-.32Z" style="fill:#263238"></path><path d="M272,227v-3.9h-.71v-.7h2.35v.7H273V227Z" style="fill:#263238"></path><path d="M232.1,214.07v-5.33h2.32v.75h-1.23v1.42h.95v.75h-.95v1.67h1.25v.74Z" style="fill:#263238"></path><path d="M238.81,214.07v-5.33h2.25v.74H239.9v1.44h1v.76h-1v2.39Z" style="fill:#263238"></path><path d="M245.82,214.07v-5.33h1.69a1.5,1.5,0,0,1,.78.19,1.1,1.1,0,0,1,.45.52,2.05,2.05,0,0,1,.15.83,1.71,1.71,0,0,1-.19.89,1.07,1.07,0,0,1-.53.46,2.07,2.07,0,0,1-.77.13h-.49v2.31Zm1.09-3.07h.38a.69.69,0,0,0,.36-.08.37.37,0,0,0,.18-.24,1.66,1.66,0,0,0,0-.42,2.25,2.25,0,0,0,0-.4.46.46,0,0,0-.16-.26.72.72,0,0,0-.4-.09h-.37Z" style="fill:#263238"></path><path d="M255.55,214.14a1.74,1.74,0,0,1-.92-.21,1.17,1.17,0,0,1-.49-.6,2.61,2.61,0,0,1-.15-.94v-2a2.61,2.61,0,0,1,.15-.94,1.18,1.18,0,0,1,.49-.59,1.85,1.85,0,0,1,.92-.2,1.79,1.79,0,0,1,.94.21,1.06,1.06,0,0,1,.49.59,2.52,2.52,0,0,1,.15.93v2a2.61,2.61,0,0,1-.15.94,1.12,1.12,0,0,1-.49.6A1.79,1.79,0,0,1,255.55,214.14Zm0-.78a.4.4,0,0,0,.31-.1A.51.51,0,0,0,256,213a1.9,1.9,0,0,0,0-.35v-2.52a1.87,1.87,0,0,0,0-.34.51.51,0,0,0-.14-.25.44.44,0,0,0-.31-.1.4.4,0,0,0-.29.1.43.43,0,0,0-.13.25,1.86,1.86,0,0,0,0,.34v2.52a1.9,1.9,0,0,0,0,.35.5.5,0,0,0,.13.25A.4.4,0,0,0,255.55,213.36Z" style="fill:#263238"></path><path d="M261,214.07v-4.52h-.82v-.81h2.72v.81h-.81v4.52Z" style="fill:#263238"></path><path d="M268,214.07v-5.33h2.32v.75h-1.24v1.42H270v.75h-.95v1.67h1.25v.74Z" style="fill:#263238"></path><path d="M276.15,214.14a1.69,1.69,0,0,1-.93-.22,1.25,1.25,0,0,1-.49-.62,2.94,2.94,0,0,1-.13-.93v-1.91a3,3,0,0,1,.13-1,1.19,1.19,0,0,1,.49-.61,1.69,1.69,0,0,1,.93-.22,1.75,1.75,0,0,1,.9.19,1.05,1.05,0,0,1,.46.54,2.21,2.21,0,0,1,.14.81v.44h-1.06v-.5c0-.12,0-.23,0-.34a.48.48,0,0,0-.11-.26.39.39,0,0,0-.31-.11.4.4,0,0,0-.31.11.49.49,0,0,0-.13.27,2.13,2.13,0,0,0,0,.37v2.42a2.13,2.13,0,0,0,0,.39.41.41,0,0,0,.14.26.42.42,0,0,0,.29.09.38.38,0,0,0,.3-.1.48.48,0,0,0,.11-.28,2.06,2.06,0,0,0,0-.36v-.52h1.06v.44a2.58,2.58,0,0,1-.13.83,1.06,1.06,0,0,1-.46.56A1.66,1.66,0,0,1,276.15,214.14Z" style="fill:#263238"></path><path d="M241,205.74v-6.11h1.25v5.27h1.43v.84Z" style="fill:#263238"></path><path d="M250,205.83a1.93,1.93,0,0,1-1.06-.25,1.32,1.32,0,0,1-.56-.69,2.86,2.86,0,0,1-.17-1.07v-2.28a2.86,2.86,0,0,1,.17-1.07,1.3,1.3,0,0,1,.56-.68,2,2,0,0,1,1.06-.23,2.06,2.06,0,0,1,1.08.23,1.41,1.41,0,0,1,.57.68,3.09,3.09,0,0,1,.16,1.07v2.28a3.09,3.09,0,0,1-.16,1.07,1.39,1.39,0,0,1-.57.69A2,2,0,0,1,250,205.83Zm0-.9a.53.53,0,0,0,.36-.11.61.61,0,0,0,.15-.3,2.34,2.34,0,0,0,0-.39v-2.89a2.34,2.34,0,0,0,0-.39.62.62,0,0,0-.15-.29.49.49,0,0,0-.36-.11.45.45,0,0,0-.34.11.62.62,0,0,0-.15.29,2.38,2.38,0,0,0,0,.39v2.89a2.38,2.38,0,0,0,0,.39.45.45,0,0,0,.49.41Z" style="fill:#263238"></path><path d="M256.74,205.74v-6.11h1.94a1.71,1.71,0,0,1,.9.21,1.27,1.27,0,0,1,.52.6,2.44,2.44,0,0,1,.17.95,2.1,2.1,0,0,1-.22,1,1.24,1.24,0,0,1-.61.52,2.42,2.42,0,0,1-.88.15H258v2.65Zm1.25-3.52h.44a.82.82,0,0,0,.42-.09.51.51,0,0,0,.2-.27,2.17,2.17,0,0,0,.05-.49,2,2,0,0,0,0-.46.48.48,0,0,0-.19-.3.75.75,0,0,0-.45-.1H258Z" style="fill:#263238"></path><path d="M265.59,205.74V205l1.56-4.49h-1.48v-.85h2.72v.68l-1.6,4.59h1.61v.84Z" style="fill:#263238"></path><path d="M274.22,205.74v-6.11h1.5a3,3,0,0,1,1.21.2,1.14,1.14,0,0,1,.61.63,2.78,2.78,0,0,1,.18,1.09v2.22a3,3,0,0,1-.18,1.12,1.23,1.23,0,0,1-.6.65,2.94,2.94,0,0,1-1.19.2Zm1.25-.86h.26a.9.9,0,0,0,.5-.11.54.54,0,0,0,.18-.33,2.66,2.66,0,0,0,0-.53v-2.52a2.3,2.3,0,0,0-.05-.51.42.42,0,0,0-.2-.28.92.92,0,0,0-.48-.09h-.25Z" style="fill:#263238"></path><path d="M233.68,190.55v-9.1h2.23a4.37,4.37,0,0,1,1.8.3,1.74,1.74,0,0,1,.92.93,4.15,4.15,0,0,1,.27,1.62v3.32a4.36,4.36,0,0,1-.27,1.66,1.78,1.78,0,0,1-.91,1,4,4,0,0,1-1.77.31Zm1.85-1.29h.4a1.23,1.23,0,0,0,.73-.16.73.73,0,0,0,.28-.49,4.3,4.3,0,0,0,.06-.79v-3.75a3,3,0,0,0-.08-.76.65.65,0,0,0-.29-.42,1.4,1.4,0,0,0-.71-.14h-.39Z" style="fill:#263238"></path><path d="M244.3,190.55v-9.1h3.84v1.26h-2v2.46h1.69v1.29h-1.69v4.09Z" style="fill:#263238"></path><path d="M256.12,190.68a2.89,2.89,0,0,1-1.6-.39,1.94,1.94,0,0,1-.82-1.06,4.73,4.73,0,0,1-.24-1.58v-3.27a4.85,4.85,0,0,1,.24-1.62,1.88,1.88,0,0,1,.82-1,3,3,0,0,1,1.6-.37,3,3,0,0,1,1.54.32,1.8,1.8,0,0,1,.78.92,3.72,3.72,0,0,1,.23,1.39v.76h-1.79v-.85a5.3,5.3,0,0,0,0-.59.77.77,0,0,0-.18-.45.66.66,0,0,0-.53-.18.73.73,0,0,0-.54.18.89.89,0,0,0-.21.47,4.09,4.09,0,0,0,0,.63v4.14a3.33,3.33,0,0,0,.06.67.81.81,0,0,0,.23.44.76.76,0,0,0,.5.15.67.67,0,0,0,.52-.18.88.88,0,0,0,.19-.46,6.06,6.06,0,0,0,0-.62v-.89h1.79v.75a4.11,4.11,0,0,1-.22,1.42,1.89,1.89,0,0,1-.78,1A2.8,2.8,0,0,1,256.12,190.68Z" style="fill:#263238"></path><path d="M263.48,190.55v-1.14l2.31-6.7h-2.2v-1.26h4.06v1l-2.39,6.83h2.4v1.26Z" style="fill:#263238"></path><path d="M273.34,190.55v-9.1h2.89a2.56,2.56,0,0,1,1.34.31,1.87,1.87,0,0,1,.77.89,3.54,3.54,0,0,1,.25,1.42,3,3,0,0,1-.33,1.53,1.87,1.87,0,0,1-.91.78,3.56,3.56,0,0,1-1.31.23h-.84v3.94Zm1.86-5.25h.65a1.17,1.17,0,0,0,.62-.13.62.62,0,0,0,.3-.41,2.75,2.75,0,0,0,.08-.72,3.4,3.4,0,0,0-.06-.69.71.71,0,0,0-.28-.44,1.08,1.08,0,0,0-.67-.16h-.64Z" style="fill:#263238"></path><path d="M237.56,175.46v-10.9h4.75v1.53h-2.53V169h1.95v1.54h-1.95V174h2.56v1.51Z" style="fill:#263238"></path><path d="M251.6,175.61a3.45,3.45,0,0,1-1.92-.46,2.42,2.42,0,0,1-1-1.27,5.7,5.7,0,0,1-.28-1.89v-3.92a5.89,5.89,0,0,1,.28-1.94,2.35,2.35,0,0,1,1-1.26,3.55,3.55,0,0,1,1.92-.44,3.61,3.61,0,0,1,1.83.39,2.13,2.13,0,0,1,.95,1.1,4.64,4.64,0,0,1,.27,1.65v.92H252.5v-1a5.33,5.33,0,0,0,0-.71,1,1,0,0,0-.22-.54.8.8,0,0,0-.63-.21.85.85,0,0,0-.64.22,1,1,0,0,0-.26.56,4.47,4.47,0,0,0-.05.76v4.95a3.84,3.84,0,0,0,.07.8,1,1,0,0,0,.28.53.9.9,0,0,0,.6.18.76.76,0,0,0,.61-.21,1.06,1.06,0,0,0,.23-.56,5.74,5.74,0,0,0,.05-.74v-1.06h2.15v.9a4.87,4.87,0,0,1-.27,1.69,2.24,2.24,0,0,1-.93,1.15A3.31,3.31,0,0,1,251.6,175.61Z" style="fill:#263238"></path><path d="M261.47,175.46v-10.9h4.6v1.51h-2.38V169h2v1.55h-2v4.9Z" style="fill:#263238"></path><path d="M272.29,175.46v-10.9H275a5.26,5.26,0,0,1,2.16.36,2.09,2.09,0,0,1,1.1,1.11,5.16,5.16,0,0,1,.32,1.95v4a5.35,5.35,0,0,1-.32,2,2.19,2.19,0,0,1-1.09,1.15,4.86,4.86,0,0,1-2.12.37Zm2.22-1.55H275a1.53,1.53,0,0,0,.88-.19.94.94,0,0,0,.33-.58,6.17,6.17,0,0,0,.07-.95V167.7a3.71,3.71,0,0,0-.09-.91.83.83,0,0,0-.35-.51,1.7,1.7,0,0,0-.86-.16h-.45Z" style="fill:#263238"></path><path d="M239.57,159.86V147.78h3.83a3.38,3.38,0,0,1,1.78.41,2.41,2.41,0,0,1,1,1.18,4.82,4.82,0,0,1,.34,1.88,4,4,0,0,1-.44,2,2.5,2.5,0,0,1-1.21,1,4.66,4.66,0,0,1-1.74.3H242v5.24Zm2.46-7h.87a1.67,1.67,0,0,0,.82-.17.86.86,0,0,0,.4-.54,3.67,3.67,0,0,0,.1-1,4,4,0,0,0-.08-.92,1,1,0,0,0-.36-.59,1.62,1.62,0,0,0-.9-.2H242Z" style="fill:#263238"></path><path d="M252.91,159.86V147.78h5.27v1.7h-2.81v3.2h2.16v1.72h-2.16v3.79h2.84v1.67Z" style="fill:#263238"></path><path d="M264.21,159.86V147.78h3a5.93,5.93,0,0,1,2.4.39,2.33,2.33,0,0,1,1.21,1.24,5.51,5.51,0,0,1,.36,2.15V156a5.8,5.8,0,0,1-.36,2.21,2.42,2.42,0,0,1-1.2,1.28,5.51,5.51,0,0,1-2.35.41Zm2.46-1.72h.52a1.72,1.72,0,0,0,1-.21,1,1,0,0,0,.37-.65,6.19,6.19,0,0,0,.07-1.05v-5a4,4,0,0,0-.1-1,.88.88,0,0,0-.38-.56,2,2,0,0,0-.95-.17h-.51Z" style="fill:#263238"></path><path d="M263,143.28v-1.52l3.07-8.89h-2.92V131.2h5.38v1.34l-3.16,9.07h3.18v1.67Z" style="fill:#263238"></path><path d="M257.39,125.87V109.65h5.14a4.7,4.7,0,0,1,2.39.55,3.39,3.39,0,0,1,1.37,1.59,6.4,6.4,0,0,1,.45,2.53,5.31,5.31,0,0,1-.59,2.72,3.27,3.27,0,0,1-1.62,1.39,6.3,6.3,0,0,1-2.34.41h-1.5v7Zm3.3-9.35h1.16a2.24,2.24,0,0,0,1.11-.23,1.16,1.16,0,0,0,.53-.73,4.62,4.62,0,0,0,.14-1.28,5.42,5.42,0,0,0-.11-1.24,1.24,1.24,0,0,0-.49-.79,2.08,2.08,0,0,0-1.2-.28h-1.14Z" style="fill:#263238"></path><rect x="219.21" y="193.71" width="61.04" height="2.56" style="fill:#263238"></rect><rect x="219.21" y="217.64" width="61.04" height="2.56" style="fill:#263238"></rect></g><g id="freepik--Seat--inject-49"><path d="M478.67,307.15c4.23-16.6,2.57-30.25-4.38-31.72-7.8-1.66-19.28,12.64-25.65,31.92-5.82,17.63-5.35,33.31.73,37.14l-29,107.66,49.25-1L486.11,318A9.55,9.55,0,0,0,478.67,307.15Z" style="fill:#263238;stroke:#263238;stroke-linecap:round;stroke-linejoin:round"></path></g><g id="freepik--character-2--inject-49"><path d="M328,256.89s-7,9.76-5.85,13.29c1.41,4.17-.8,10.51-4.51,12-2.54,1-4.51,1.86-4.25,4s3.72,4.52,3.72,4.52,2.12,10.61,2.65,14.33,1.59,4.26,5.58,4.79a34.21,34.21,0,0,0,6.91.26h2.93l11.43,16.48,6.91-8s-6.91-12.76-3.72-26.58,10.36-16,3.19-25.52S333.54,252.9,328,256.89Z" style="fill:#fff;stroke:#263238;stroke-linecap:round;stroke-linejoin:round"></path><path d="M327.1,278.9c0,1.36-.47,2.47-1.05,2.47S325,280.26,325,278.9s.47-2.46,1.05-2.46S327.1,277.54,327.1,278.9Z" style="fill:#263238"></path><path d="M320.52,294.51s5.38.45,8.37-3" style="fill:none;stroke:#263238;stroke-linecap:round;stroke-linejoin:round"></path><path d="M324.85,272s2.25-3.43,5.38-.15" style="fill:none;stroke:#263238;stroke-linecap:round;stroke-linejoin:round"></path><path d="M343.3,402.29a70.14,70.14,0,0,1-7.41,10.59,24.9,24.9,0,0,0-5,20.91c1.59,6.35,9.53,8.74,14.3,9.53s8.47,2.65,9.53-7.41-2.92-26.21-6.36-29.65S343.3,402.29,343.3,402.29Z" style="fill:#fff;stroke:#263238;stroke-linecap:round;stroke-linejoin:round"></path><path d="M346,427.44c-.4,3.84-.19,17.69-.07,24h71.25c.63-2.49.7-6.52-1.82-12.39-4.77-11.12-13.7-84.24-18.53-98.75-4.5-13.5-6.06-14.73-15.36-20.38-13.5-8.21-28.85,3.17-31.23,7.41A32,32,0,0,0,347,336.9s-5.29,26.74-8.21,39.45,1.33,19.06,4.5,25.94S346.48,422.41,346,427.44Z" style="fill:#92E3A9;stroke:#263238;stroke-linecap:round;stroke-linejoin:round"></path><path d="M330.62,246.79s-8.24-.53-2.66,10.1,9.3,6.38,13.29,10.63,6.38,13.82,2.13,19.94-8,6.64-2.13,14.35,7.44,9.57,5.58,13.83-11.43,6.64-8,14.08,11.43,6.92,9,9-7.7.8-5.05,4.79,14.62,3.72,13.3.79-3.46-2.12-2.66-3.72-1.86-10.1,7.44-14.62,14.89-5.85,21.53.53,8.24,11.43,14.89,10.11,7.18-6.12,4-10.64-3.73-2.12-1.07-9,9.57-10.1.53-16.48-14.88-3.19-14.62-8.77S391.22,267,381.92,255s-25.25-15.69-33.23-14.89S331.15,243.07,330.62,246.79Z" style="fill:#263238;stroke:#263238;stroke-linecap:round;stroke-linejoin:round"></path><path d="M358.92,333.46a40.52,40.52,0,0,0-3.44,21.44c1.32,12.44,8.21,55.33,8.21,55.33s-4,1.59-2.91,4.24,1.85,4.23,2.11,5-10.59,3.7-14.82,4.76-8.21,6.09-7.15,11.38,8.74,7.68,14,9.27,34.15,1.59,41-.79,10.33-11.65,6.09-24.62-10.59-74.92-10.59-74.92" style="fill:#92E3A9;stroke:#263238;stroke-linecap:round;stroke-linejoin:round"></path><path d="M362.89,419.5S379,428,388.31,429" style="fill:none;stroke:#263238;stroke-linecap:round;stroke-linejoin:round"></path><path d="M366.86,418.44s9.53,1.58,16.68,1.06" style="fill:none;stroke:#263238;stroke-linecap:round;stroke-linejoin:round"></path><path d="M340.39,417.11s-4.76,3.18-5.82,5.83,0,7.94-.27,11.91,1.59,5.29,7.94,8.47,11.39,4,10.33,1.59-3.44-2.38-6.88-5-4-8.74-1.86-10.59.8-4,6.62-4.24,9-2.11,8.47-4-2.91-.53-5.56-.79S347.27,415.79,340.39,417.11Z" style="fill:#fff;stroke:#263238;stroke-linecap:round;stroke-linejoin:round"></path></g><g id="freepik--Device--inject-49"><path d="M306.23,387.66h-24.5a22.55,22.55,0,0,1-15.86-6.46l-20.38-19.9a21.9,21.9,0,0,1-6.57-15.59V306.78a4.77,4.77,0,0,1,9.54,0v38.93a12.33,12.33,0,0,0,3.69,8.76l20.38,19.91a13.07,13.07,0,0,0,9.2,3.75h24.5a4.77,4.77,0,1,1,0,9.53Z" style="fill:#263238"></path><polygon points="290.51 289.2 262.63 292.63 262.63 269.76 290.51 273.19 290.51 289.2" style="fill:#263238"></polygon><polygon points="285.86 288.91 290.51 288.34 290.51 272.33 285.86 271.75 285.86 288.91" style="fill:#263238"></polygon><rect x="230.38" y="268.93" width="28.31" height="24.43" style="fill:#263238"></rect><rect x="200.89" y="270.07" width="30.45" height="22.14" style="fill:#263238"></rect><rect x="195.43" y="262.36" width="27.98" height="11.84" style="fill:#263238"></rect><path d="M260.64,296.69h0a2.5,2.5,0,0,1-2.5-2.5V267.54a2.5,2.5,0,0,1,2.5-2.5h0a2.5,2.5,0,0,1,2.5,2.5v26.65A2.5,2.5,0,0,1,260.64,296.69Z" style="fill:#263238"></path><rect x="232.67" y="292.84" width="22.4" height="11.79" style="fill:#263238"></rect><rect x="236.88" y="304.27" width="13.46" height="5" style="fill:#263238"></rect><path d="M317.31,400.41H299.8v-33.6l5.6-2.15a9.68,9.68,0,0,1,7.31.15l4.6,2Z" style="fill:#263238"></path><path d="M312.12,375a3.66,3.66,0,1,0-3.66,3.66A3.66,3.66,0,0,0,312.12,375Z" style="fill:#fff;stroke:#263238;stroke-linecap:round;stroke-linejoin:round"></path><circle cx="308.46" cy="390.4" r="3.66" style="fill:#fff;stroke:#263238;stroke-linecap:round;stroke-linejoin:round"></circle><rect x="299.8" y="400.41" width="17.87" height="7.86" style="fill:#fff;stroke:#263238;stroke-linecap:round;stroke-linejoin:round"></rect><rect x="299.8" y="407.91" width="17.87" height="22.89" style="fill:#263238"></rect><rect x="298.37" y="407.91" width="20.73" height="11.44" style="fill:#263238"></rect><rect x="203.74" y="431.61" width="15.01" height="4.65" transform="translate(-241.64 267.14) rotate(-43.82)" style="fill:#fff;stroke:#263238;stroke-linecap:round;stroke-linejoin:round"></rect><polygon points="219.39 426.49 319.45 426.49 319.45 446.51 197.95 446.51 219.39 426.49" style="fill:#263238"></polygon><polygon points="300.51 413.63 270.85 395.4 253.7 395.4 253.7 400.41 269.78 400.41 301.58 426.85 300.51 413.63" style="fill:#263238"></polygon><rect x="258.7" y="400.76" width="6.43" height="7.86" style="fill:#fff;stroke:#263238;stroke-linecap:round;stroke-linejoin:round"></rect><rect x="246.55" y="408.63" width="30.73" height="9.29" style="fill:#fff;stroke:#263238;stroke-linecap:round;stroke-linejoin:round"></rect><rect x="254.41" y="417.92" width="15.01" height="9.29" style="fill:#fff;stroke:#263238;stroke-linecap:round;stroke-linejoin:round"></rect><rect x="226.93" y="411.53" width="4.12" height="11.6" transform="translate(-90.03 64.03) rotate(-13.33)" style="fill:#fff;stroke:#263238;stroke-linecap:round;stroke-linejoin:round"></rect><rect x="223.3" y="396.43" width="6.43" height="20.73" transform="translate(-87.68 63.18) rotate(-13.33)" style="fill:#fff;stroke:#263238;stroke-linecap:round;stroke-linejoin:round"></rect><rect x="224.04" y="422.56" width="15.01" height="4.65" style="fill:#fff;stroke:#263238;stroke-linecap:round;stroke-linejoin:round"></rect><rect x="346.61" y="255.32" width="6.09" height="190.83" style="fill:#fff;stroke:#263238;stroke-linecap:round;stroke-linejoin:round"></rect><rect x="294.79" y="258.89" width="19.66" height="2.14" style="fill:#fff;stroke:#263238;stroke-linecap:round;stroke-linejoin:round"></rect><rect x="301.94" y="256.75" width="12.87" height="6.79" style="fill:#263238"></rect><rect x="310.16" y="260.68" width="45.74" height="7.86" style="fill:#263238"></rect><rect x="324.77" y="309.64" width="31.13" height="5.29" style="fill:#263238"></rect><rect x="277.64" y="348.23" width="12.87" height="24.3" style="fill:#263238"></rect><rect x="292.22" y="329.29" width="10.15" height="24.3" style="fill:#263238"></rect><rect x="292.55" y="314.92" width="9.48" height="12.31" style="fill:#263238"></rect><path d="M302,307.57h-9.49V286.05l6.41-5.79a1.84,1.84,0,0,1,3.08,1.36Z" style="fill:#263238"></path><rect x="292.55" y="308.48" width="9.48" height="6.59" style="fill:#fff;stroke:#263238;stroke-linecap:round;stroke-linejoin:round"></rect><rect x="291.05" y="325.08" width="12.5" height="7.7" style="fill:#fff;stroke:#263238;stroke-linecap:round;stroke-linejoin:round"></rect><rect x="266.13" y="329.29" width="10.15" height="24.3" style="fill:#263238"></rect><rect x="264.96" y="335.09" width="12.5" height="7.7" style="fill:#fff;stroke:#263238;stroke-linecap:round;stroke-linejoin:round"></rect><polygon points="263.35 352.52 304.09 352.52 295.94 363.6 269.87 363.6 263.35 352.52" style="fill:#263238"></polygon><circle cx="284.79" cy="357.52" r="3.66" style="fill:#fff;stroke:#263238;stroke-linecap:round;stroke-linejoin:round"></circle><rect x="283" y="371.82" width="17.15" height="3.22" style="fill:#263238"></rect><rect x="259.77" y="316.43" width="21.8" height="13.58" style="fill:#263238"></rect><rect x="264.24" y="311.42" width="12.87" height="5.36" style="fill:#263238"></rect><polygon points="285.86 271.75 279.43 261.39 272.28 261.39 272.28 265.68 278 265.68 279.07 272.47 285.86 274.61 285.86 271.75" style="fill:#263238"></polygon><rect x="274.78" y="254.96" width="3.22" height="7.5" style="fill:#263238"></rect><rect x="286" y="249.01" width="3.65" height="20.11" style="fill:#263238"></rect><polygon points="234.4 258.89 211.17 258.89 211.17 257.1 208.67 257.1 208.67 262.46 211.17 262.46 211.17 261.03 234.4 261.03 234.4 258.89" style="fill:#fff;stroke:#263238;stroke-linecap:round;stroke-linejoin:round"></polygon><rect x="234.04" y="257.1" width="51.82" height="6.08" style="fill:#263238"></rect><path d="M355.15,429.64a5.07,5.07,0,1,0-5.07,5.07A5.07,5.07,0,0,0,355.15,429.64Z" style="fill:#fff;stroke:#263238;stroke-linecap:round;stroke-linejoin:round"></path><path d="M287.59,423.51h32.6a11,11,0,0,1,11,11v17a0,0,0,0,1,0,0H276.62a0,0,0,0,1,0,0v-17A11,11,0,0,1,287.59,423.51Z" style="fill:#fff;stroke:#263238;stroke-linecap:round;stroke-linejoin:round"></path><rect x="196.03" y="445.63" width="115.64" height="5.85" style="fill:#fff;stroke:#263238;stroke-linecap:round;stroke-linejoin:round"></rect><rect x="263.89" y="439.78" width="93.99" height="11.7" style="fill:#fff;stroke:#263238;stroke-linecap:round;stroke-linejoin:round"></rect></g><g id="freepik--character-1--inject-49"><path d="M207,292.22l-3.22,35.16L221,331.09l-1.06-12.71s4.5-5,5-8.21a86.3,86.3,0,0,0,1.32-13.76c0-1.32,0-2.76,0-4.19Z" style="fill:#fff;stroke:#263238;stroke-linecap:round;stroke-linejoin:round"></path><path d="M77,399.38l-2.06,52.1H185c-.89-10.3-2.66-31-3.43-41.25-1.06-14-1.59-19.06-1.59-19.06s21.44,9.79,26.21,10.06,9-5,10.85-14.83,9.79-51.62,9.79-52.68-8.47-6.08-8.47-6.08l-10.59-9.27-14.56,27.8s-1.06-5-9.53-19.59-14.29-19.06-20.12-22.51-8.73-4.76-8.73-4.76l-26.74-23.56s-23-5.56-24.35-4.24-2.12,10.06-2.12,10.06-27.27,28.59-32.3,36.54-5,17.47-4.5,21.44S77,399.38,77,399.38Z" style="fill:#fff;stroke:#263238;stroke-linecap:round;stroke-linejoin:round"></path><path d="M115.37,285.81s-11.91-9.27-10.85-9.8,22.24,1.59,22.24,1.59Z" style="fill:#263238;stroke:#263238;stroke-linecap:round;stroke-linejoin:round"></path><path d="M94.09,431c-1.44,2.53-2.76,4.74-3.92,6.51" style="fill:none;stroke:#263238;stroke-linecap:round;stroke-linejoin:round"></path><path d="M118.68,382.59s-12.08,25.48-21.61,43" style="fill:none;stroke:#263238;stroke-linecap:round;stroke-linejoin:round"></path><line x1="145.61" y1="397.91" x2="132.94" y2="423.78" style="fill:none;stroke:#263238;stroke-linecap:round;stroke-linejoin:round"></line><path d="M147.14,322.09l9.53,14.29,3.18-18.53s-1.86-7.94-5.56-13.77-8.21-6.61-9-.52S147.14,322.09,147.14,322.09Z" style="fill:#fff;stroke:#263238;stroke-linecap:round;stroke-linejoin:round"></path><polygon points="148.99 314.41 151.38 320.23 150.32 326.59 156.67 336.38 158 322.62 156.14 319.7 157.2 312.56 149.79 307 148.99 314.41" style="fill:#92E3A9;stroke:#263238;stroke-linecap:round;stroke-linejoin:round"></polygon><path d="M151.38,309.38l8.47,8.47s1.59-9.53-.8-13-3.44-3.44-3.44-3.44l-3.44.53Z" style="fill:#fff;stroke:#263238;stroke-linecap:round;stroke-linejoin:round"></path><path d="M190.82,233.14s4.77,20.91,3.71,23.56a12.28,12.28,0,0,1-3.44,4.5s5.29,13.5,4.23,15.62-7.94,1.59-7.94,1.59-3.18,12.44-4,15.61-3.18,3.71-6.35,4-12.18-2.92-12.18-2.92l-12.18,9-1.32,5.3s-2.12-.53-11.39-12.71-13.23-19.32-13.23-19.32l1.59-7.15c.52-2.38.52-24.62.52-24.62s14.83-14.3,29.12-19.06S190.82,233.14,190.82,233.14Z" style="fill:#fff;stroke:#263238;stroke-linecap:round;stroke-linejoin:round"></path><path d="M176.53,241.61s1.32,6.35.26,7.41-10.06,2.91-10.32,4,1.05,6.09-1.06,6.62-5.3.79-6.36-.53-2.64-6.62-5.82-9.79-9.8.26-11.91,6.08-1.86,8.48-2.65,12.18a13.4,13.4,0,0,1-5.82,8.47c-2.65,1.59-4.77,2.12-5.83-2.91s-1.85-14.56-6.62-23.82,10.33-30.45,15.09-33.62,20.65-2.65,36.27.53,27.8,6.61,27.27,10.85-9.27,7.94-13.77,10.06S176.53,241.61,176.53,241.61Z" style="fill:#263238;stroke:#263238;stroke-linecap:round;stroke-linejoin:round"></path><path d="M159.05,259.08c1.06,1.32,4.24,1.06,6.36.53s.79-5.56,1.06-6.62,9.26-2.91,10.32-4c.54-.54.46-2.45.25-4.2a11.51,11.51,0,0,1-3.76-1.49,28.42,28.42,0,0,0-19.75-3.07c-6.59,1.32-10.54-3.51-17.13,6.58s-4.89,14.35-11.54,14.91c1.09,4.6,1.59,8.64,2.16,11.36,1.06,5,3.18,4.5,5.83,2.91a13.4,13.4,0,0,0,5.82-8.47c.79-3.7.53-6.35,2.65-12.18s8.73-9.26,11.91-6.08S158,257.76,159.05,259.08Z" style="fill:#525252;stroke:#263238;stroke-linecap:round;stroke-linejoin:round"></path><path d="M181.82,260.14c3.71-4,9.27-2.65,9.27-2.65" style="fill:none;stroke:#263238;stroke-linecap:round;stroke-linejoin:round"></path><path d="M187.77,265.08c-.2,1.6-1,2.81-1.8,2.72s-1.29-1.47-1.09-3.07,1-2.81,1.79-2.72S188,263.48,187.77,265.08Z" style="fill:#263238"></path><path d="M156.41,258s2.91-3.44-3.18-8.73-11.12-.8-12.18,3.44,1.06,8.47,3.18,11.65a17.17,17.17,0,0,0,6.09,5.82c1.59.79,4.23.26,4.23.26" style="fill:#fff;stroke:#263238;stroke-linecap:round;stroke-linejoin:round"></path><polygon points="164.88 295.08 155.61 287.94 155.61 301.44 164.88 295.08" style="fill:#263238;stroke:#263238;stroke-linecap:round;stroke-linejoin:round"></polygon><polygon points="126.76 277.35 151.38 309.38 147.14 322.09 115.37 285.55 126.76 277.35" style="fill:#fff;stroke:#263238;stroke-linecap:round;stroke-linejoin:round"></polygon><path d="M171.76,334.26s-1.32-12.44-3.18-18" style="fill:none;stroke:#263238;stroke-linecap:round;stroke-linejoin:round"></path><line x1="179.97" y1="390.91" x2="180.76" y2="386.15" style="fill:#fff;stroke:#263238;stroke-linecap:round;stroke-linejoin:round"></line><path d="M194.53,320s.79-12.44-2.12-19.59A141.85,141.85,0,0,0,185,284.23c-2.39-4.24,1.06-11.12,2.38-13.77s3.44-6.61,6.35-5.82,1.33,2.65.53,3.71-3.17,5.56-3.17,6.35,3.17,6.88,3.17,6.88,2.38-5.56,3.18-7.94,3.18-8.21,5-9.53,8.47,2.65,7.15,4-4.24,1.85-4.24,1.85-1.85,5.56-2.38,7.68-.8,2.91.79,4.5,7.68-13.23,9-15.35,2.92-3.18,5-3.18,7.42,1.85,6.62,4-.79,1.33-2.91,1.06a6.32,6.32,0,0,0-4,1.06s-2.65,7.41-2.65,8.74-.53,5.29-.53,5.29,5.3-5.56,6.62-8.21,3.71-8.73,5.29-8.47,2.12,2.39,1.59,4.5-2.12,6.62-2.64,8.74-6.89,10.06-6.89,10.06-.53,11.91-1.06,16.68-5.29,8.73-5.82,10.06-2.65,10.59-2.65,10.59Z" style="fill:#fff;stroke:#263238;stroke-linecap:round;stroke-linejoin:round"></path><path d="M84.67,312.29s19.59-2.65,24.88,1.06,9,8.74,12.18,11.91,8.73,6.62,13.76,11.12,8.21,6.88,9,9.8,1.86,7.67,1.86,7.67l7.14-7.41s22-13,30.18-20.12,9.53-9.53,10.33-10.06-2.65-4,12.7,7.15,18,16.41,17,18.53-23.83,29.91-42.89,44.21-25.15,23.56-30.71,23.56-20.91-5.56-28.85-12.18-19.86-18-34.42-29.65" style="fill:#fff;stroke:#263238;stroke-linecap:round;stroke-linejoin:round"></path><path d="M86.13,335.69c7.19-5.35,18.75-11.81,30.3-9.37" style="fill:none;stroke:#263238;stroke-linecap:round;stroke-linejoin:round"></path><path d="M78.84,341.94s1.18-1.22,3.23-3" style="fill:none;stroke:#263238;stroke-linecap:round;stroke-linejoin:round"></path><path d="M146.35,353.85s-11.65,10.86-12.18,17.48,8.47-7.15,9.79-9.8" style="fill:none;stroke:#263238;stroke-linecap:round;stroke-linejoin:round"></path><path d="M86,380.33a72.32,72.32,0,0,0,12.44-2.39" style="fill:none;stroke:#263238;stroke-linecap:round;stroke-linejoin:round"></path></g><g id="freepik--Table--inject-49"><line x1="12.67" y1="451.48" x2="473.13" y2="451.48" style="fill:none;stroke:#263238;stroke-linecap:round;stroke-linejoin:round"></line></g></svg>