<svg xmlns="http://www.w3.org/2000/svg" viewBox="0 0 500 500"><g id="freepik--Floor--inject-2"><g id="freepik--Yard--inject-2"><g id="freepik--Puck--inject-2"><path d="M46.33,144.07a1.2,1.2,0,0,0-.72-1,3.75,3.75,0,0,0-3.45,0,1.2,1.2,0,0,0-.72,1V309.39a1.22,1.22,0,0,0,.72,1,3.81,3.81,0,0,0,3.45,0,1.22,1.22,0,0,0,.72-1Z" style="fill:#ebebeb"></path><path d="M42.16,143.08a1.2,1.2,0,0,0-.72,1,1.21,1.21,0,0,0,.72,1,3.81,3.81,0,0,0,3.45,0,1,1,0,0,0,0-2A3.75,3.75,0,0,0,42.16,143.08Z" style="fill:#f0f0f0"></path></g><g id="freepik--puck--inject-2"><path d="M123.22,97.82a1.23,1.23,0,0,0-.71-1,3.83,3.83,0,0,0-3.46,0,1.22,1.22,0,0,0-.72,1V263.14a1.2,1.2,0,0,0,.72,1,3.77,3.77,0,0,0,3.46,0,1.21,1.21,0,0,0,.71-1Z" style="fill:#ebebeb"></path><path d="M119.05,96.82a1.05,1.05,0,0,0,0,2,3.83,3.83,0,0,0,3.46,0,1.06,1.06,0,0,0,0-2A3.83,3.83,0,0,0,119.05,96.82Z" style="fill:#f0f0f0"></path></g><g id="freepik--puck--inject-2"><path d="M204.87,75.86a1.23,1.23,0,0,0-.71-1,3.83,3.83,0,0,0-3.46,0,1.22,1.22,0,0,0-.72,1V241.18a1.22,1.22,0,0,0,.72,1,3.83,3.83,0,0,0,3.46,0,1.23,1.23,0,0,0,.71-1Z" style="fill:#ebebeb"></path><path d="M200.7,74.86a1.22,1.22,0,0,0-.72,1,1.21,1.21,0,0,0,.72,1,3.83,3.83,0,0,0,3.46,0,1.22,1.22,0,0,0,.71-1,1.23,1.23,0,0,0-.71-1A3.83,3.83,0,0,0,200.7,74.86Z" style="fill:#f0f0f0"></path></g><g id="freepik--puck--inject-2"><path d="M451.14,144.07a1.2,1.2,0,0,1,.72-1,3.75,3.75,0,0,1,3.45,0,1.2,1.2,0,0,1,.72,1V309.39a1.22,1.22,0,0,1-.72,1,3.81,3.81,0,0,1-3.45,0,1.22,1.22,0,0,1-.72-1Z" style="fill:#ebebeb"></path><path d="M455.31,143.08a1.2,1.2,0,0,1,.72,1,1.21,1.21,0,0,1-.72,1,3.81,3.81,0,0,1-3.45,0,1,1,0,0,1,0-2A3.75,3.75,0,0,1,455.31,143.08Z" style="fill:#f0f0f0"></path></g><g id="freepik--puck--inject-2"><path d="M374.25,97.82a1.23,1.23,0,0,1,.71-1,3.83,3.83,0,0,1,3.46,0,1.22,1.22,0,0,1,.72,1V263.14a1.2,1.2,0,0,1-.72,1,3.77,3.77,0,0,1-3.46,0,1.21,1.21,0,0,1-.71-1Z" style="fill:#ebebeb"></path><path d="M378.42,96.82a1.05,1.05,0,0,1,0,2,3.83,3.83,0,0,1-3.46,0,1.06,1.06,0,0,1,0-2A3.83,3.83,0,0,1,378.42,96.82Z" style="fill:#f0f0f0"></path></g><g id="freepik--puck--inject-2"><path d="M292.6,75.86a1.23,1.23,0,0,1,.71-1,3.83,3.83,0,0,1,3.46,0,1.22,1.22,0,0,1,.72,1V241.18a1.22,1.22,0,0,1-.72,1,3.83,3.83,0,0,1-3.46,0,1.23,1.23,0,0,1-.71-1Z" style="fill:#ebebeb"></path><path d="M296.77,74.86a1.22,1.22,0,0,1,.72,1,1.21,1.21,0,0,1-.72,1,3.83,3.83,0,0,1-3.46,0,1.22,1.22,0,0,1-.71-1,1.23,1.23,0,0,1,.71-1A3.83,3.83,0,0,1,296.77,74.86Z" style="fill:#f0f0f0"></path></g><path d="M476.28,274.18c-11.76-17.3-30.2-33.52-55.33-47.44-94.41-52.28-247.49-52.28-341.9,0-25.13,13.92-43.57,30.14-55.33,47.43v66.38H476.28Z" style="fill:#f0f0f0"></path><path d="M476.28,276.12a2,2,0,0,1-1.61-.85c-12-17.62-30.36-33.37-54.66-46.83-93.74-51.91-246.28-51.91-340,0-24.3,13.46-42.69,29.21-54.66,46.83a1.94,1.94,0,1,1-3.21-2.19c12.31-18.12,31.15-34.29,56-48,94.78-52.49,249-52.49,343.78,0,24.84,13.76,43.68,29.92,56,48a1.95,1.95,0,0,1-1.6,3Z" style="fill:#ebebeb"></path><path d="M476.28,175.79a.46.46,0,0,1-.4-.21c-12.1-17.8-30.66-33.71-55.16-47.28-94.14-52.13-247.3-52.13-341.44,0-24.5,13.57-43.06,29.47-55.16,47.28a.48.48,0,0,1-.67.13.49.49,0,0,1-.13-.68c12.19-17.93,30.86-33.94,55.49-47.58,94.4-52.27,248-52.27,342.38,0,24.63,13.64,43.3,29.65,55.49,47.59a.48.48,0,0,1-.13.67A.45.45,0,0,1,476.28,175.79Z" style="fill:#e0e0e0"></path></g><ellipse id="freepik--floor--inject-2" cx="250" cy="350.06" rx="232.89" ry="134.46" style="fill:#fafafa"></ellipse></g><g id="freepik--Clouds--inject-2"><path id="freepik--Cloud--inject-2" d="M70.57,75.45c0-3.41-3.74-5.79-8-6.18-5-.48-8.53,1.75-8.65,5.68-3.26-1.34-6.7-.48-6.44,3.11-.85-1-4-1-5.17-.68a4.48,4.48,0,0,0-2.84,2.42,3.38,3.38,0,0,0-.3,1.84c-1.9-.63-6.22-1-7.31.74-1.92,3.1,5.77,3.2,7.32,2.26.33,2.42,8.6,2.82,10.6.59,1.57,1.57,3.82,1.92,6.24,2.06,4.09.25,6.6-1.14,9.79-2.77,3.47,2.94,9.48,3,12.6-.37.8.75,3,1,4.76.57,1.15-.28,1.42-.77,1.42-.77a9.93,9.93,0,0,0,2.12.64c2.27.47,6.49,0,4.72-2.07a5.27,5.27,0,0,0-3.74-.92c-1-1.95-5-3.8-7.25-2.15-.08-2.36-2.24-4.2-5.27-4.67C74.17,74.62,71.73,74.49,70.57,75.45Z" style="fill:#f5f5f5"></path><path id="freepik--cloud--inject-2" d="M138.42,45.33c0-4.43-4.87-7.52-10.37-8-6.49-.62-11.09,2.28-11.25,7.38-4.24-1.74-8.71-.62-8.38,4-1.1-1.27-5.23-1.23-6.71-.88A5.84,5.84,0,0,0,98,51a4.35,4.35,0,0,0-.39,2.39c-2.47-.81-8.09-1.31-9.5,1-2.5,4,7.5,4.16,9.52,2.94.42,3.15,11.17,3.66,13.77.76,2,2.05,5,2.5,8.11,2.69,5.32.32,8.58-1.49,12.73-3.6,4.51,3.82,12.31,3.89,16.38-.48,1,1,3.89,1.28,6.18.73,1.5-.36,1.85-1,1.85-1a13.15,13.15,0,0,0,2.76.83c2.94.62,8.43,0,6.13-2.69-.79-.9-3.66-1.48-4.87-1.2-1.29-2.53-6.45-4.92-9.41-2.79-.12-3.06-2.92-5.46-6.86-6.07C143.1,44.26,139.92,44.08,138.42,45.33Z" style="fill:#f5f5f5"></path><path id="freepik--cloud--inject-2" d="M440.53,74c0-4.52-4.94-7.65-10.54-8.18-6.6-.62-11.28,2.32-11.44,7.52-4.31-1.78-8.86-.64-8.52,4.1-1.12-1.29-5.32-1.25-6.83-.89a5.88,5.88,0,0,0-3.75,3.2,4.42,4.42,0,0,0-.4,2.43c-2.51-.83-8.23-1.33-9.66,1-2.55,4.1,7.63,4.23,9.68,3,.43,3.2,11.36,3.72,14,.77,2.07,2.09,5,2.54,8.25,2.74,5.4.32,8.72-1.51,12.94-3.67,4.59,3.89,12.53,4,16.66-.49,1.05,1,4,1.3,6.29.75,1.52-.37,1.88-1,1.88-1a13.73,13.73,0,0,0,2.8.85c3,.62,8.58,0,6.24-2.74-.79-.92-3.71-1.5-4.95-1.22-1.31-2.57-6.56-5-9.57-2.83-.12-3.12-3-5.56-7-6.18C445.29,72.87,442.07,72.69,440.53,74Z" style="fill:#f5f5f5"></path></g><g id="freepik--Sun--inject-2"><circle id="freepik--sun--inject-2" cx="356.49" cy="50.36" r="13.89" style="fill:#ffbda7"></circle></g><g id="freepik--Shadows--inject-2"><ellipse id="freepik--Shadow--inject-2" cx="127.38" cy="411.59" rx="53.15" ry="30.69" style="fill:#e0e0e0"></ellipse><ellipse id="freepik--shadow--inject-2" cx="364.98" cy="411.59" rx="53.15" ry="30.69" style="fill:#e0e0e0"></ellipse><ellipse id="freepik--shadow--inject-2" cx="245.81" cy="418.15" rx="74.29" ry="42.89" style="fill:#e0e0e0"></ellipse></g><g id="freepik--character-3--inject-2"><g id="freepik--Character--inject-2"><g id="freepik--Bottom--inject-2"><path d="M326.78,316.13s14.57,3.53,22.11,9.6,11.05,11.36,13.68,14.09a32.67,32.67,0,0,0,4.35,3.75c1.8.49,6.15,1.93,7.51,2.21,3.91.79,6.95,2.49,7.39,5.28s2.9,6.67,5.08,11.37a12.16,12.16,0,0,1-2.45,13.41c-3.22,3.28-5.48,3.71-6.2,1.19a47,47,0,0,0-8.58-15.56c-2.79-3.38-6.36-4.87-11.42-7.36s-25.44-12.41-30-15.77c-8.09-6-8-13.18-1.5-22.21Z" style="fill:#b16668"></path><path d="M377.93,382.92a4.14,4.14,0,0,0,3.93.54,15.45,15.45,0,0,0,6.57-9.87c1.22-5.55.62-7.4-.52-10.14s-2.42-5.33-2.1-7.91c.29-2.4.58-6.11.1-7.06s-3.82-1.91-3.82-1.91Z" style="fill:#263238"></path><path d="M366.92,343.57a1.81,1.81,0,0,1,1.22-.17c1,.12,3.68.79,5.3.92a41.48,41.48,0,0,1,9.75,2.72c1.58.83.93,5.78,1,8.41a22.17,22.17,0,0,0,2,7.92,16.12,16.12,0,0,1,.26,11.05c-1.55,4.09-4.67,8.24-7.11,8.65-3,.5-5.51-.08-6.31-7.12-.15-1.34-1.08-5.6-1.51-7.27a26,26,0,0,0-1.9-5.33,16.91,16.91,0,0,0-2.06-3.37,9.2,9.2,0,0,0-1.71-1.39c-.63-.45-1.28-.86-2-1.25-.38-.21-.81-.47-.88-.88a1.26,1.26,0,0,1,.22-.81,22.71,22.71,0,0,1,2.48-3.77,2.86,2.86,0,0,1,1.45-1.07,2.58,2.58,0,0,1,1.32.12,9.81,9.81,0,0,0,1.28.37.87.87,0,0,0,.48,0c.3-.13.24-.52.13-.75a16.36,16.36,0,0,0-1.51-2.31c-.28-.41-.05-1.78-.22-2.23a8.91,8.91,0,0,0-.34-1.28A2.86,2.86,0,0,0,366.92,343.57Z" style="fill:#37474f"></path><path d="M386.25,363.37a32.35,32.35,0,0,1-1.29-3.56h0s.37,7.36-2.82,9.57c-2.05,1.42-3.39,0-3.9-.21s-4.48,3.65-5.38,5.38h0c.11.6.2,1.1.23,1.41.8,7,3.3,7.62,6.31,7.12,2.44-.41,5.26-3.24,7.22-8.53A16.63,16.63,0,0,0,386.25,363.37Z" style="fill:#455a64"></path><path d="M376.87,368.17c.24,4.29,1.59,2.92,2.14,1.92s-.79-7.39-2.66-12.32c-2-5.15-4.3-9.83-5-11.74-.27-.71-.63-1.5-1-2.21-.93-.18-1.78-.36-2.23-.42a1.81,1.81,0,0,0-1.22.17l1.27,1.13a3,3,0,0,1,.38,1.3,4.86,4.86,0,0,0,.36,2.21,16.36,16.36,0,0,1,1.51,2.31C373.74,355.26,376.64,363.87,376.87,368.17Z" style="fill:#263238"></path><path d="M378.51,369.63a.36.36,0,0,0,0-.27.44.44,0,0,0-.55-.23,9.77,9.77,0,0,0-5.49,6,.4.4,0,0,0,.32.48.42.42,0,0,0,.51-.3,9,9,0,0,1,5-5.42A.4.4,0,0,0,378.51,369.63Z" style="fill:#f0f0f0"></path><path d="M377.73,365.69a.42.42,0,0,0,0-.27.44.44,0,0,0-.54-.24,9.81,9.81,0,0,0-5.64,5.86.39.39,0,0,0,.31.48.42.42,0,0,0,.52-.28,9.06,9.06,0,0,1,5.09-5.31A.44.44,0,0,0,377.73,365.69Z" style="fill:#f0f0f0"></path><path d="M376.57,361.91a.39.39,0,0,0,0-.26.44.44,0,0,0-.55-.24,9.76,9.76,0,0,0-5.49,6,.4.4,0,0,0,.32.47.42.42,0,0,0,.51-.3,9,9,0,0,1,5-5.41A.44.44,0,0,0,376.57,361.91Z" style="fill:#f0f0f0"></path><path d="M375.51,358.56a.33.33,0,0,0,0-.26A.43.43,0,0,0,375,358a9.86,9.86,0,0,0-5.76,5.76.4.4,0,0,0,.3.49A.43.43,0,0,0,370,364a9.09,9.09,0,0,1,5.2-5.21A.43.43,0,0,0,375.51,358.56Z" style="fill:#f0f0f0"></path><path d="M374.15,354.89a.39.39,0,0,0,0-.26.43.43,0,0,0-.53-.26,10,10,0,0,0-6,6.4.39.39,0,0,0,.3.48.42.42,0,0,0,.52-.28,9.22,9.22,0,0,1,5.46-5.84A.45.45,0,0,0,374.15,354.89Z" style="fill:#f0f0f0"></path><path d="M347.94,278.5c-11.38,21.12-23.65,39.95-23.65,39.95,5.79,9.43,18.3,13.18,28.77,14.72,0,0,12.29-13.57,18.92-19.62,2.37-2.16,10.79-11.08,11.1-15.44s-35.14-19.61-35.14-19.61" style="fill:#37474f"></path><path d="M365.31,315.27l-.84-7.45s-6.92-4.9-11.28-16.13l17.49,9.44.44,13.22c-2.77,2.61-6.85,6.74-10.8,10.82h0Z" style="fill:#263238"></path><path d="M368.73,425.2c2.37-1.93,8.94-9,13.39-17.39,2.32-4.37,1.27-9.78.87-13.59s-4.33-39.35-4.92-45.47c-1-10.73-4-45.06-4-45.06l28.24-26.77.64-.38c3.8,9.81,4.81,17.22,2.82,33.29s-2.81,37.1-2.81,37.1a75.42,75.42,0,0,1,.5,19.44c-1.12,10.56-4.42,28-4.43,28-.12,1.18-.23,2.33-.33,3.41.32,2,1.43,6.81,1.78,8.27,1,4.2.62,8-2.17,9.79s-5.79,6.11-9.8,10.54A15.57,15.57,0,0,1,373,430.64C367.91,429.13,366.37,427.14,368.73,425.2Z" style="fill:#b16668"></path><path d="M403.23,274.93a58.45,58.45,0,0,1,4,21.12c-.18,11.32-2.62,42.6-2.62,42.6s-3.77,4-16.24,4.25-17.26-2-17.26-2l-2.84-34.35s-18.44-12.1-20.29-28.08Z" style="fill:#37474f"></path><path d="M362.26,427.8c-.28,0-.34,3,1.28,4.08,1.88,1.26,7.19,3.07,13.73,1.52s8.24-3,10.64-5.5,4.58-5,7.51-6c2.72-.9,6.84-2.45,7.63-3.38s.23-4.66.23-4.66Z" style="fill:#263238"></path><path d="M398.84,398a1.2,1.2,0,0,1,1.23.77c.32,1,.9,4,1.53,5.61a41.48,41.48,0,0,1,1.71,10.81c-.14,1.95-5.77,3.76-8.55,5.16a27.61,27.61,0,0,0-7.54,5.88,20.75,20.75,0,0,1-11.76,5.7c-5.12.52-11.08-.47-12.67-2.64-2-2.68-2.53-5.4,4.66-9.64,1.36-.81,5.49-3.82,7.09-5.06a32,32,0,0,0,4.82-4.48,19.22,19.22,0,0,0,2.64-3.66,9.59,9.59,0,0,0,.68-2.35c.18-.83.32-1.67.42-2.51a1.65,1.65,0,0,1,.53-1.29,1.71,1.71,0,0,1,1-.19,27.7,27.7,0,0,1,5.22.56,3.16,3.16,0,0,1,1.85.88,2.54,2.54,0,0,1,.49,1.34,11.46,11.46,0,0,0,.21,1.43.89.89,0,0,0,.26.45c.28.22.67,0,.87-.24a20.39,20.39,0,0,0,1.77-2.62c.3-.47,1.88-.92,2.29-1.31a12.75,12.75,0,0,0,1.21-1C399.18,399.15,398.89,398.61,398.84,398Z" style="fill:#37474f"></path><path d="M387.22,426.24a37.88,37.88,0,0,1,3.21-3h0s-7.72,4-11.61,2c-2.51-1.29-1.62-3.29-1.64-3.89s-6.05-2.56-8.33-2.58h0c-.59.41-1.09.74-1.4.93-7.19,4.24-6.63,7-4.66,9.64,1.59,2.17,6,3.52,12.6,2.8A21.34,21.34,0,0,0,387.22,426.24Z" style="fill:#455a64"></path><path d="M377.6,419.49c-4.5,2.35-2.39,3-1.05,3s7.57-4.41,12-8.67c4.6-4.44,8.52-9,10.23-10.66.64-.61,1.31-1.35,1.91-2-.24-1-.45-1.91-.6-2.38a1.69,1.69,0,0,0-1.35-1l0,1.67a3.73,3.73,0,0,1-1.21,1,5.92,5.92,0,0,0-2.2,1.43,20.39,20.39,0,0,1-1.77,2.62C390,410.07,382.11,417.14,377.6,419.49Z" style="fill:#263238"></path><path d="M376.81,421.81a.44.44,0,0,0,.28-.14.43.43,0,0,0,0-.64,11.49,11.49,0,0,0-9-2.39.46.46,0,0,0-.36.55.46.46,0,0,0,.56.34,10.72,10.72,0,0,1,8.18,2.15A.48.48,0,0,0,376.81,421.81Z" style="fill:#f0f0f0"></path><path d="M380.67,419.1A.46.46,0,0,0,381,419a.45.45,0,0,0,0-.65,11.56,11.56,0,0,0-9-2.58.45.45,0,0,0-.36.54.48.48,0,0,0,.55.36,10.67,10.67,0,0,1,8.12,2.32A.46.46,0,0,0,380.67,419.1Z" style="fill:#f0f0f0"></path><path d="M384.18,416.11a.43.43,0,0,0,.28-.13.44.44,0,0,0,0-.65,11.53,11.53,0,0,0-9-2.38.45.45,0,0,0-.36.55.46.46,0,0,0,.56.34A10.68,10.68,0,0,1,383.8,416,.44.44,0,0,0,384.18,416.11Z" style="fill:#f0f0f0"></path><path d="M387.27,413.42a.4.4,0,0,0,.29-.12.45.45,0,0,0,0-.65,11.59,11.59,0,0,0-8.93-2.75.46.46,0,0,0-.38.53.48.48,0,0,0,.55.37,10.75,10.75,0,0,1,8.08,2.48A.48.48,0,0,0,387.27,413.42Z" style="fill:#f0f0f0"></path><path d="M390.57,410.29a.5.5,0,0,0,.29-.12.45.45,0,0,0,0-.65c-2-2.12-6.28-3.32-9.74-2.7a.46.46,0,0,0-.38.53.48.48,0,0,0,.55.37c3.11-.55,7.09.54,8.88,2.42A.48.48,0,0,0,390.57,410.29Z" style="fill:#f0f0f0"></path><path d="M399.92,275.14c2.82,7.16,3.91,21,3.23,31.79-.55,8.76-2.36,25.6-3.31,34.22-.46.15-1,.31-1.51.45.93-8.4,2.81-25.82,3.38-34.76.68-10.94-.49-25-3.28-31.6Z" style="fill:#BA68C8"></path></g><g id="freepik--Top--inject-2"><g id="freepik--Arm--inject-2"><path d="M330.5,192.74c2.7-9.72,4.09-16.87,4.7-20.38a18.72,18.72,0,0,0,.18-4.61,22.12,22.12,0,0,1,.4-6c.22-1.18.43-2.36.65-3.54.71-3.17,1.76-10.77,6-10.52a3.06,3.06,0,0,1,2.64-2.44,5.61,5.61,0,0,0,1.74-.19c1.16-.9,2.6-1.77,4.1-1,.36-.87,1.08-2,2.16-1.72,1.53.7,1.21,3,1.09,4.46-.73,3.59-3.42,8.57-3.65,11.81.1,2,2.4-2.64,2.72-3a3.27,3.27,0,0,1,2.81-1.27c2.07.15.61,2.41.47,3.58a18.72,18.72,0,0,1-3.24,8c-.64.78-1.24,1.43-1.76,2a9.82,9.82,0,0,0-2.57,6l-1.8,26.43a90.27,90.27,0,0,0,6,9.21c3.25,4.6,7.42,7.49,12.07,10.13,5.83,13.73-13.73,31.64-15.49,24-1.58-6.86-5.84-12.62-9.29-19-5.54-10.26-6.61-12.34-8.56-15.87C329.45,204.29,327.72,202.77,330.5,192.74Z" style="fill:#b16668"></path><path d="M366.37,219.44A25.37,25.37,0,0,1,359,215.1a35.52,35.52,0,0,1-6.05-6.48c-1.14-1.83-3.52-5-3.52-5a15.62,15.62,0,0,0-8.17,4.89,21.46,21.46,0,0,0-4.88,9.34s3.91,7.29,6.67,12.1,7.93,14.75,8.07,19.35c4.07,4.52,6.8-2.17,9.45-4.28C368.35,238.86,374.51,223.22,366.37,219.44Z" style="fill:#37474f"></path><path d="M343,165.05a9.17,9.17,0,0,1,1-2.43,6.77,6.77,0,0,1,4-3.37c.2-.05.16.19.06.28-.59.59-1.28,1.08-1.86,1.7a10.36,10.36,0,0,0-1.48,2,8.61,8.61,0,0,0-1.06,3.34,2.49,2.49,0,0,1-.22,1.12c-.09.16-.4.28-.51.06A4.3,4.3,0,0,1,343,165.05Z" style="fill:#9a4a4d"></path></g><g id="freepik--Chest--inject-2"><path d="M407.36,247c.47-11.56.42-12.48-.87-16.68S402,222,398,221.42c0,0-12.54-1.34-14.14-1.47a115.69,115.69,0,0,0-13.95-.45c-3.48.14-5.34-.26-8.36,2.12s-8.49,7.2-9.7,20c-1.69,18-1.73,24.91-4.42,38C351.6,289.85,380.7,300,407.12,289c0,0-.24-10.94-.32-16.89C406.72,265.73,406.93,257.86,407.36,247Z" style="fill:#BA68C8"></path></g><path d="M380.78,242.23a3.8,3.8,0,1,0,4-3.5A3.75,3.75,0,0,0,380.78,242.23Z" style="fill:#fafafa"></path><path d="M406.49,230.31c-3.48-8.5-5.49-10-7.33-10.38-2.48-.47-5,0-9.83-.29s-16.32-.31-19.46-.18c-3.49.14-5.57-.21-8.59,2.17s-8.1,6.79-9.33,18.88c.2-.94,1.47-6.48,4.42-9.8,3.22-3.63,10.47-6.18,10.47-6.18s-.13,2.43,3.26,4.29c4,2.18,13.2.87,17-2.31l11.09,18.38s2.66,2.23,9.16,2.1C408.89,237.07,408.16,234.39,406.49,230.31Z" style="fill:#455a64"></path><g id="freepik--arm--inject-2"><path d="M393.32,219.72c2.4-.17,5.66-3.63,9.09-10.74a142.79,142.79,0,0,0,5.81-13.66L406.67,169h0c-.49-2.26-4.95-5.55-6.07-8.82s-1.66-5-2.62-7.4c-.84-1.37.94-2.32,2.1-1.69,2.33.24,3.83,5.52,5.07,4.71.28-.37-.28-1.89-.51-2.58-1.07-3.76-3.09-9-3.1-11.28s1.44-3.51,3-2.31c.74.62.67,1,1,1.47,1.06-.56,1.8-.56,3.22.33a4.14,4.14,0,0,1,.78.85,3.14,3.14,0,0,1,2.65.36,5,5,0,0,1,1.71,1.82c3.59.15,4.85,6.26,5.58,9.14.38,1.81.68,3.63,1,5.44a22.19,22.19,0,0,1,.41,6.18,16.71,16.71,0,0,0,.41,5.13c1.17,5.09,3.69,16.28,5.35,25.48.93,5.1,1.11,6.55-.64,11.2-2.32,6.18-6.77,12.78-11.42,23.28-3.13,7.05-5.55,11.88-7.2,17.91-3.48,1-6.82-1-10.62-5.91C391.64,235.6,390.72,224.6,393.32,219.72Z" style="fill:#b16668"></path><path d="M392.46,219.77c.86-.05,2.42-.86,4.68-3.12S405,203.43,405,203.43a15.34,15.34,0,0,0,6.75,11c6.38,4.3,9.45,2.73,9.45,2.73s-4.05,8.7-6.23,13.79-7.39,15.25-7.66,18.33c-3,.93-8.85-1.26-13.07-10.34S391.29,221.45,392.46,219.77Z" style="fill:#37474f"></path><path d="M406.83,157a3.62,3.62,0,0,1,2.6.43,7.19,7.19,0,0,1,2.24,1.66,5.87,5.87,0,0,1,1.52,5.56c0,.13-.2.14-.23,0-.2-.81-.27-1.65-.53-2.45a7.36,7.36,0,0,0-1.4-2.54,7.09,7.09,0,0,0-4.21-2.34C406.67,157.32,406.72,157.07,406.83,157Z" style="fill:#9a4a4d"></path></g><path d="M388.8,213.31c1.83-4.2,7.23-7.24,10.25-13.82,4.13-9,6.66-19.89-3.59-24.74-.39-3.51-6.13-7.74-11.12-8.67a28.26,28.26,0,0,0-10.65.15,35.3,35.3,0,0,1-12,.53c-1.6-.23-3.32-.54-4.78.14a4.36,4.36,0,0,0-2.35,3.78,7.16,7.16,0,0,0,1.45,4.35,3.77,3.77,0,0,0-.22,7.34,4.47,4.47,0,0,0,.89,5.1,8.45,8.45,0,0,0,5,2.3c-.06,0,.94,3.7,1.09,4a15.06,15.06,0,0,0,2.31,3.71,15.43,15.43,0,0,0,3.31,2.93,23,23,0,0,0,4.63,1.82,14.47,14.47,0,0,1,2.73,1.11,9.42,9.42,0,0,1,1.47,1.55l8.48,8.82C386.44,214.44,388,213.26,388.8,213.31Z" style="fill:#263238"></path><path d="M389.85,199.7a1.5,1.5,0,0,0,.23.2c1.24.88,1.34-1.3,2.69-2.68a3.39,3.39,0,0,1,2.82-.9,4.29,4.29,0,0,1,3.88,2.63c1.14,2.71-.55,6.71-4.22,7.73a5.19,5.19,0,0,1-5.42-1.38l-1,15.68s-3.08,7.15-13.51,6.7c-6-.26-7.88-4-5.54-8l.18-3.4a22.16,22.16,0,0,1-6.56-1.31,12.34,12.34,0,0,1-7.63-10.1c-.42-3.17.73-5.9.9-9.08.1-1.89.13-4.88.25-6.1.15-1.51,1.19-7.46,3-9.4,2.36,4.3,14.25,6.08,23.15,3.13a12.9,12.9,0,0,0,1.25,6.59c1.1,2.29,3,3.55,5.16,5a7.36,7.36,0,0,0-.13,3.55A2.47,2.47,0,0,0,389.85,199.7Z" style="fill:#b16668"></path><path d="M375.37,203.71c-1-1-1.86.32-4,.77s-3.45-.62-3.8.76c-.3,1.15,1.16,3.51,4.73,3C375.35,207.81,376.28,204.55,375.37,203.71Z" style="fill:#9a4a4d"></path><path d="M371.36,204.48a29.47,29.47,0,0,0,2.93-1.08l.1,1a4.67,4.67,0,0,1-2.31,1.08,6.42,6.42,0,0,1-3.43-.06l-.32-.89A16.27,16.27,0,0,0,371.36,204.48Z" style="fill:#fafafa"></path><path d="M372.29,208.25a6,6,0,0,1-2,0,4.2,4.2,0,0,1,4.1-2.64,4.56,4.56,0,0,1,1,.2A4,4,0,0,1,372.29,208.25Z" style="fill:#ffa8a7"></path><path d="M369.94,192l-1.64,9.13-4.87-2.4C365.24,195.62,367.79,192.65,369.94,192Z" style="fill:#9a4a4d"></path><path d="M363.19,188.81l-3.86,1.41a2.05,2.05,0,1,1,3.86-1.41Z" style="fill:#263238"></path><path d="M378.43,191.89l-3.15-2.6a2,2,0,1,1,3.15,2.6Z" style="fill:#263238"></path><path d="M373.61,194.63a1.75,1.75,0,0,0,1.53,2,1.79,1.79,0,0,0,2-1.49,1.8,1.8,0,0,0-3.56-.48Z" style="fill:#263238"></path><path d="M359.74,193.47a1.76,1.76,0,0,0,1.53,2,1.75,1.75,0,1,0-1.53-2Z" style="fill:#263238"></path><path d="M370,216.32s7.16-.18,12.52-2.92a12,12,0,0,0,4.85-5.39s-1.06,3.8-3.07,5.71c-5.29,5-14.39,4.92-14.39,4.92Z" style="fill:#9a4a4d"></path></g></g></g><g id="freepik--character-2--inject-2"><g id="freepik--character--inject-2"><g id="freepik--bottom--inject-2"><path d="M198.71,388.7c1.39-13.61.08-24.11,1.82-45.37h0c.25-5.46.61-11.3,1.12-16.49,1.74-17.44,4.7-23.34,5-26.71,0,0,1.2-27.18,3.4-65.39,1-18,7.21-25.26,11.78-34.7l53.06,3.38c2.43,23.21,3,75.11,2.21,99.39-.42,12.38-1.59,78.63-1.51,80.15.39,6.82-.07,7.55,2.06,9.88,4.47,4.88,11,9.59,16.67,13.89-.89,2.1-7.82,1.84-11.2.13a88.46,88.46,0,0,1-12.59-8.2c-4.64-3.51-9.78-6.44-10.56-11.53-.12-.77-.3-2.35-.3-2.35,0-3-10.79-46.34-12.26-56.54s1.23-23.82,1.23-23.82l-4.92-37.61s-4.23,22-8.32,37.06c-3.33,12.22-8.83,33.08-12.61,48.13h0c-3.71,17.35-8.8,29.64-9.86,38.35-.3,2.08-3.29,22.47-4.43,27.13s-11.72,4.51-12.19-3.57C196,408.53,198.45,391.26,198.71,388.7Z" style="fill:#ffbda7"></path><path d="M243.76,266.81l5-26.89s16.76-1.48,23-6.95c0,0-7.94,10.23-19.33,11.63l-5.36,22.27,1.54,37.23Z" style="fill:#f0997a"></path><path d="M304,412.43c.29,0,.69,3.12-.93,4.42-1.86,1.5-7.29,3.93-14.41,2.92s-10.94-3.19-13.75-5.54-6.77-5.66-10-6.4c-3-.69-6.22-2.05-7.16-3S257,400,257,400Z" style="fill:#263238"></path><path d="M259.69,384.75s-.53,0-.73.92c-.24,1.09-.52,4.27-1,6.06a30.77,30.77,0,0,0-.85,9.63c.36,2,5.22,3.54,8.32,4.73a40.23,40.23,0,0,1,10,6.33c3.31,2.71,10.31,5.5,14.95,5.64,7.1.22,11.72-1.57,13.17-4,1.8-3,.46-4.8-7.64-8.57-1.53-.72-6.9-3.9-8.73-5.05a42.39,42.39,0,0,1-5.49-4.07,32.92,32.92,0,0,1-2.45-2.42,10.86,10.86,0,0,1-2-2.58c-.09-.2-.15-.45-.23-.67a10.76,10.76,0,0,1-.5-1.85c-.13-.65-.19-1.61-.83-2a5.63,5.63,0,0,0-2.91-.38,22,22,0,0,0-3.15.38c-1.2.24-2.59.32-3.32,1.4a5.57,5.57,0,0,0-.72,2.83c0,.46,0,.92,0,1.38,0,.2.07.55-.21.47s-.56-.78-.66-1c-.22-.52-.35-1.07-.59-1.58a8.83,8.83,0,0,0-1-1.68,7.75,7.75,0,0,0-1.27-1.29,15,15,0,0,1-1.39-.89A3.21,3.21,0,0,1,259.69,384.75Z" style="fill:#37474f"></path><path d="M297.22,406.11c-10.28.51-13.61,6.58-14.1,10.36a24.85,24.85,0,0,0,7.26,1.59c7.1.22,12-1.56,13.46-4C305.54,411.22,304.46,408.89,297.22,406.11Z" style="fill:#fafafa"></path><path d="M281.82,406a.49.49,0,0,1-.37-.8,12.31,12.31,0,0,1,9.34-3.38.48.48,0,1,1-.13,1,11.43,11.43,0,0,0-8.45,3.05A.52.52,0,0,1,281.82,406Z" style="fill:#f0f0f0"></path><path d="M277.44,403.4a.56.56,0,0,1-.32-.11.48.48,0,0,1-.06-.68,12.27,12.27,0,0,1,9.34-3.39.5.5,0,0,1,.44.54.48.48,0,0,1-.56.42,11.39,11.39,0,0,0-8.45,3.05A.5.5,0,0,1,277.44,403.4Z" style="fill:#f0f0f0"></path><path d="M273.39,400.5a.49.49,0,0,1-.38-.8,12.28,12.28,0,0,1,9.34-3.38.48.48,0,0,1,.43.54.49.49,0,0,1-.55.42,11.31,11.31,0,0,0-8.45,3.05A.54.54,0,0,1,273.39,400.5Z" style="fill:#f0f0f0"></path><path d="M269.42,397.59a.45.45,0,0,1-.31-.11.47.47,0,0,1-.08-.68c2-2.36,6.48-3.87,10.2-3.41a.48.48,0,0,1,.43.54.5.5,0,0,1-.55.42c-3.35-.41-7.52,1-9.3,3.07A.47.47,0,0,1,269.42,397.59Z" style="fill:#f0f0f0"></path><path d="M211.77,421.22c-.4,4.67-1.24,7.74-3,10.44s-5.05,3.46-8.31,2.58-7.41-3.15-8.25-7.2-1.31-6.83-.45-11.14Z" style="fill:#263238"></path><path d="M198.87,387c-1.36.07-1.92,6.33-2.87,12.59-1,6.71-3.17,9.44-4.06,14.94-1,6.28,0,9.12,2.17,13s10.2,7.82,14.34,2.47c3.38-4.36,3.64-9.3,3.51-15.6a135.32,135.32,0,0,1,.86-15.94c.39-4.72,1.6-9.45.44-10-.11.69-.22,1.56-.34,2.24a10.64,10.64,0,0,1-.5,2.51c-.15.35-.46.71-.57.13a3.53,3.53,0,0,1,0-1.17c.24-1.74-.67-1.9-1.15-2.05a61.09,61.09,0,0,0-6.25-1c-1-.1-4.6-.34-5.07.21a3.75,3.75,0,0,0-.51,1.81c-.14,1-.38,1.64-.4,1.34,0-.68.13-2.44.16-2.87s.11-1,.13-1.38S198.83,387.44,198.87,387Z" style="fill:#37474f"></path><path d="M191.47,418.2a15.31,15.31,0,0,0,2.27,9.65c2.19,3.87,10.85,7.85,15,2.5,2.06-2.66,2.68-5.86,3-9.13C209.49,417,195.34,414.72,191.47,418.2Z" style="fill:#fafafa"></path><path d="M209,414.29l-.16-.05c-.06,0-6.25-2.69-12.38-1.49a.51.51,0,0,1-.59-.38.49.49,0,0,1,.39-.57c6.48-1.27,12.8,1.46,13,1.57a.48.48,0,0,1,.22.66A.53.53,0,0,1,209,414.29Z" style="fill:#f0f0f0"></path><path d="M196.89,408.06a.51.51,0,0,1-.42-.34.49.49,0,0,1,.33-.61c6.12-1.82,12.77,1.33,13,1.47a.47.47,0,0,1,.19.66.51.51,0,0,1-.68.18c-.06,0-6.54-3.08-12.23-1.38A.75.75,0,0,1,196.89,408.06Z" style="fill:#f0f0f0"></path><path d="M197.22,403.63a.5.5,0,0,1-.41-.33.47.47,0,0,1,.32-.61c6.73-2.13,13,1.29,13.26,1.44a.48.48,0,0,1,.15.67.51.51,0,0,1-.69.14s-6.14-3.31-12.41-1.33A.55.55,0,0,1,197.22,403.63Z" style="fill:#f0f0f0"></path><path d="M197.67,399.28a.52.52,0,0,1-.41-.32.48.48,0,0,1,.31-.62c6.31-2.09,13.09,1.42,13.35,1.57a.48.48,0,0,1,.16.67.51.51,0,0,1-.69.16s-6.64-3.43-12.49-1.49A.47.47,0,0,1,197.67,399.28Z" style="fill:#ebebeb"></path><path d="M213.52,210.6c-4.69,10.73-8.13,19-8.24,44.19-.14,31.44.42,39,.19,42.84s-2.72,10.62-5.25,29.46-.73,41.42-.73,41.42,1.32,3.07,8.79,3.92c6.9.78,10.38-1.63,10.38-1.63S229.11,334.26,232,323s11.53-48.53,11.53-48.53l3.71,30.47a83.1,83.1,0,0,0,.06,29.62,306.6,306.6,0,0,0,7.38,31.15s5.65,3.37,11.53,2.8c9.6-.92,10.32-4.18,10.32-4.18s2-48,2.54-66.77,3.93-48.43-2.17-84.19Z" style="fill:#37474f"></path><path d="M221,210.92c-6.72,18.82-10.62,34.3-10.19,59.91.48,28.28-.19,31.11-1.67,37.32-.29,1.23-.78,2.69-1.34,4.39-2.39,7.2-6.39,19.25-6.33,43.54,0,5.28,0,10-.06,14.27a11,11,0,0,0,1.94.95q.07-6.74.06-15.22c-.05-24,3.88-35.84,6.24-42.93.57-1.74,1.07-3.24,1.38-4.55,1.52-6.37,2.21-9.28,1.72-37.81-.43-25.53,3.51-40.91,10.28-59.78Z" style="fill:#BA68C8"></path><path d="M243.56,274.42l7.12-35.94s13-.56,20.47-7.66c-3.14,7.67-14,12.82-18.69,13.78l-6.29,29.49,1.1,30.8Z" style="fill:#263238"></path></g><g id="freepik--top--inject-2"><path d="M263.77,160.94c1.22,5,6.64,12.2,11,12.09a162.94,162.94,0,0,1,12.62-28.72c4.57-7.91,9.06-14.43,14.53-24.5,6.63-12.18,4.71-12.74,3.32-19.64C302,84.42,300.78,79.63,300,74.29c-.19-1.34-.37-2.69-.52-4a19.49,19.49,0,0,1-.15-3.89c0-.16,0-.32,0-.47,0-.3.1-.61.14-.9q.13-.9.24-1.8c.15-1.19.26-2.38.33-3.58a63.7,63.7,0,0,0,.06-7.18c-.06-1.19-.15-2.39-.28-3.58a30.19,30.19,0,0,0-.57-3.91,50.75,50.75,0,0,0-1.68-5.38,8.22,8.22,0,0,0-1.68-3,3.12,3.12,0,0,0-3.16-.9,2.73,2.73,0,0,0-3.33-2.87,2.89,2.89,0,0,0-5-1.78,7.32,7.32,0,0,0-.24-.92c-.33-1-1.07-3.12-2.51-2.74s-2,2.62-1.68,5.88.68,5.45.9,8c0,.76.14,1.56.21,2.32s.13,1.42.2,2.13a8.57,8.57,0,0,1,0,1.34,2.06,2.06,0,0,1-.1.86c-.36.68-1.41-.08-1.74-.4a11.16,11.16,0,0,1-1.7-2.43A9.2,9.2,0,0,0,276,42.69a3.31,3.31,0,0,0-2.73-.89,2.18,2.18,0,0,0-1.45,1.06,1.42,1.42,0,0,0-.22.87.93.93,0,0,0,.12.29,6.32,6.32,0,0,1,.32.82c.93,2.34,1.85,4.69,2.78,7a42.94,42.94,0,0,0,3.73,7.87c.44.68,1,1.26,1.43,1.92s.91,1.48,1.38,2.22c1.49,2.36,2,3.13,2.51,9.28.41,4.74,1.87,30,1.87,30s-9.3,16.45-11.79,20.24c-3.6,5.51-5,8.19-9.64,11.82C261.49,142.07,261.13,150,263.77,160.94Z" style="fill:#ffbda7"></path><path d="M291.55,58.92a10.14,10.14,0,0,0-1.11-3.17,8.87,8.87,0,0,0-4.81-4.19c-.34-.1-.25.33-.09.47a18.32,18.32,0,0,1,2.31,2.09,11.41,11.41,0,0,1,1.54,2.28,10.58,10.58,0,0,1,.91,2.84c.18,1.1.17,2.24.38,3.33,0,.12.25.45.38.24a4.41,4.41,0,0,0,.57-2A8.13,8.13,0,0,0,291.55,58.92Z" style="fill:#f0997a"></path><path d="M261.65,135.54c2.19-1.38,1.46-1.36,4.88-5.28s4.43-4.95,10.69-14.06c6.5-9.48,8-13.16,8-13.16l-.54-18.13s2.46,1.75,8.62.26,8.07-3.5,8.07-3.5,3.05,10.52,5.05,19.68.58,10.56-1.14,14.67S291,140.25,286.54,149.47,276,172.27,274.32,175.9c-3.91,6.81-12.38-12.33-13.84-21.87A47.75,47.75,0,0,1,261.65,135.54Z" style="fill:#BA68C8"></path><path d="M261.65,135.54c2.19-1.38,1.46-1.36,4.88-5.28s4.43-4.95,10.69-14.06c6.5-9.48,8-13.16,8-13.16l-.54-18.13s2.46,1.75,8.62.26,8.07-3.5,8.07-3.5,3.05,10.52,5.05,19.68.58,10.56-1.14,14.67S291,140.25,286.54,149.47,276,172.27,274.32,175.9c-3.91,6.81-12.38-12.33-13.84-21.87A47.75,47.75,0,0,1,261.65,135.54Z" style="opacity:0.15"></path><path d="M300.68,78.26l2.22,9a22,22,0,0,1-10.06,4.15c-6.41,1-8-.37-8-.37l-.44-9.5s.82.59,7.47.07C298.15,81.08,300.68,78.26,300.68,78.26Z"></path><path d="M242.9,155.49c-.28-11.49-.56-23-2.11-34.39a129.74,129.74,0,0,0-2.64-14A79.14,79.14,0,0,0,233.88,94c-1.24-2.74-2.63-8-5.77-8.12-4.12-.2-6.13.38-8.5,2.33-3.47,2.85-4.32,7.94-4.28,12.16,0,.54,0,1.09,0,1.63l1.38,56a6.17,6.17,0,0,0,.88,3.68c1.12,1.45,3.23,1.59,5.06,1.61l12.35.09c2.26,0,4.8-.08,6.37-1.72S243,157.68,242.9,155.49Z" style="fill:#263238"></path><path d="M222.12,92.33a5.46,5.46,0,0,0,1.09,3.35c.52.68,1.56,1.73,2.49,1.36a8.86,8.86,0,0,0,5.89-5c1.51-2.89,1.24-8.27-3-8.1C225,84.48,222.28,88.92,222.12,92.33Z" style="fill:#BA68C8"></path><path d="M218.88,184c1,4.65,1.53,8.28.68,12a79.74,79.74,0,0,1-3.38,11.69c7.17,6.57,25.64,9.32,36.65,7.91,15.13-1.93,22.81-11,22.81-11a34.19,34.19,0,0,1-.37-4.82c-.16-5.46.16-9.64.16-9.64Z" style="fill:#ffbda7"></path><path d="M279.67,160.55c-8-11.51-23.32-23.81-23.32-23.81-2.38-.09-3.22-.45-13.46.58-5.56.57-14.49-1.32-18.25-3.25-2.93,2.37-5.85,11-7.72,17a36,36,0,0,0-1.48,18.68c1.66,9,4.07,22.35.74,34.34,16.77,16.32,54.43,10.28,61.14,4.22,0,0-1.41-20.52-1-25.74C284.33,174.91,283.7,166.37,279.67,160.55Z" style="fill:#455a64"></path><path d="M256.7,180.16s-8.78,4-16.68,1.11c-8.53-3.09-10.12-10.5-9.54-13.47,0,0-3.11,12.11,7.62,15.78C248.62,187.18,256.7,180.16,256.7,180.16Z" style="fill:#37474f"></path><path d="M213.52,210.6c1.78-3.74,3.1-5.69,4.82-9.56,0,0,5.88,7.37,30.82,8.65,17.78.91,26.3-6.3,26.3-6.3.67,4.67,1.47,9.93,1.47,9.93s-10.28,7.8-27.7,7.32C224.12,220,213.52,210.6,213.52,210.6Z" style="fill:#263238"></path><path d="M234.45,127.32c0-2.81-5.45-7.66-10.95-15-5.32-7.1-3.86-17.28,2-20.75,3.86-14.31,22.07-17.12,34.54-10.47s10.73,18.67,6.9,25.16S234.45,127.32,234.45,127.32Z" style="fill:#263238"></path><path d="M266.67,105.15c-.21-1.45-.13-2.71-.39-3.85-1.57-6.7-5.26-6.86-9-7-5.7-.28-11.19-1.24-14.56-4.64-.12,5-2.25,11.4-5.41,12.47,1.63,3.91,1,6.72-2.4,8.2-1.27-4.19-6.05-3.75-8.57-1.17s-1.4,9.8,2.68,12.55,5.35.8,5.35.8l.33,17.35s7.76,10,26.72,10.64c2.14-6.48-6.12-13.86-6.12-13.86l.1-6.19a13.61,13.61,0,0,0,7.18-1.66c2-1.1,6.48-4.72,5.6-17.63C268,108.86,266.92,106.9,266.67,105.15Z" style="fill:#ffbda7"></path><polygon points="254.16 102.91 257.5 113.85 262.96 110.22 254.16 102.91" style="fill:#f0997a"></polygon><path d="M255.39,130.42c-3.63-.39-13.81-1-17.61-6.91a8.88,8.88,0,0,0,3.11,5.67c4.84,3.53,14.46,3.91,14.46,3.91Z" style="fill:#f0997a"></path><path d="M248.08,101.33l-3.76,3a2.51,2.51,0,0,1,.42-3.45A2.32,2.32,0,0,1,248.08,101.33Z" style="fill:#263238"></path><path d="M264.12,99.58l-4.59-1.51a2.34,2.34,0,0,1,3-1.59A2.54,2.54,0,0,1,264.12,99.58Z" style="fill:#263238"></path><path d="M250.91,107.41a1.86,1.86,0,1,1-2-1.75A1.86,1.86,0,0,1,250.91,107.41Z" style="fill:#263238"></path><path d="M264.14,104.61a1.86,1.86,0,1,1-2-1.75A1.85,1.85,0,0,1,264.14,104.61Z" style="fill:#263238"></path><path d="M260.67,119.2c-.93,0-3-.18-3-1a5.7,5.7,0,0,0-.49-2.72c-.11-.18-.2.09-.18.21a5.89,5.89,0,0,1-4.46,6.59s-.05.1,0,.1a5,5,0,0,0,3.58-1.48c.48-.52.76-1,1.57-1.06,1.67,0,4.25.27,5.21-1.32A5.09,5.09,0,0,1,260.67,119.2Z" style="fill:#f0997a"></path><path d="M268.88,123.67a6,6,0,0,0-3.17-4.37,1.92,1.92,0,0,0-1.9,0h0l-2.56,1.86,4.52,6.14,2.53-1.83h0A1.87,1.87,0,0,0,268.88,123.67Z" style="fill:#455a64"></path><path d="M263.19,121.13a6,6,0,0,1,3.17,4.37c.18,1.71-.95,2.53-2.52,1.83a6,6,0,0,1-3.17-4.36C260.49,121.26,261.61,120.44,263.19,121.13Z" style="fill:#37474f"></path><path d="M257.49,118.6l.1.89a1.27,1.27,0,0,0,.67.93l5.09,2.26-.16-1.55Z" style="fill:#37474f"></path><polygon points="260.01 116.77 257.49 118.6 263.19 121.13 265.71 119.3 260.01 116.77" style="fill:#455a64"></polygon><path d="M270.66,121.23l.84-.58,1.87-1.24c.68-.45,1.35-.91,1.88-1.21l.37-.19a1.26,1.26,0,0,1,.29-.14.59.59,0,0,1,.37.09l.08.14a.62.62,0,0,1-.11.37,1.26,1.26,0,0,1-.27.18l-.36.21c-.52.3-1.27.64-2,1l-2,1-.92.43Z" style="fill:#e0e0e0"></path><path d="M271,124l1,.06,2.24.17c.81.06,1.62.1,2.23.2l.41.06a1.16,1.16,0,0,1,.31.08.58.58,0,0,1,.24.3l0,.16a.57.57,0,0,1-.31.21.88.88,0,0,1-.32,0l-.41-.06c-.61-.08-1.4-.27-2.2-.45l-2.18-.48-1-.23Z" style="fill:#e0e0e0"></path><path d="M270.18,126.58l.8.63,1.72,1.44c.63.52,1.26,1,1.7,1.45l.3.29a1.44,1.44,0,0,1,.21.24.65.65,0,0,1,0,.39l-.11.11a.63.63,0,0,1-.38,0,1.4,1.4,0,0,1-.26-.2l-.3-.29c-.44-.42-1-1-1.53-1.63l-1.5-1.66-.68-.77Z" style="fill:#e0e0e0"></path><g style="opacity:0.2"><path d="M270.66,121.23l.84-.58,1.87-1.24c.68-.45,1.35-.91,1.88-1.21l.37-.19a1.26,1.26,0,0,1,.29-.14.59.59,0,0,1,.37.09l.08.14a.62.62,0,0,1-.11.37,1.26,1.26,0,0,1-.27.18l-.36.21c-.52.3-1.27.64-2,1l-2,1-.92.43Z"></path><path d="M271,124l1,.06,2.24.17c.81.06,1.62.1,2.23.2l.41.06a1.16,1.16,0,0,1,.31.08.58.58,0,0,1,.24.3l0,.16a.57.57,0,0,1-.31.21.88.88,0,0,1-.32,0l-.41-.06c-.61-.08-1.4-.27-2.2-.45l-2.18-.48-1-.23Z"></path><path d="M270.18,126.58l.8.63,1.72,1.44c.63.52,1.26,1,1.7,1.45l.3.29a1.44,1.44,0,0,1,.21.24.65.65,0,0,1,0,.39l-.11.11a.63.63,0,0,1-.38,0,1.4,1.4,0,0,1-.26-.2l-.3-.29c-.44-.42-1-1-1.53-1.63l-1.5-1.66-.68-.77Z"></path></g><polygon points="264.38 119.07 262.66 120.32 263.63 120.75 265.35 119.5 264.38 119.07" style="fill:#37474f"></polygon><polygon points="262.66 120.32 264.38 119.07 264.41 119.42 262.97 120.46 262.66 120.32" style="fill:#263238"></polygon><polygon points="264.41 119.42 265.07 119.71 265.35 119.5 264.38 119.07 264.41 119.42"></polygon><g id="freepik--Jacket--inject-2"><path d="M208,221c-1.66,2.7-2.14,5.54-1.38,6.73s12.07,8.33,27.2,8.28l1.22-6.16Z" style="fill:#263238"></path><path d="M234.49,133.06a181.11,181.11,0,0,1,6.18,17.68c5.07,17.35,2.07,35.8-.22,51.72a245,245,0,0,1-5.46,27.4s-15.7-.86-27-8.85c-1.42-1.5-2.08-2.77,1.54-9s7.44-17.78,7.24-25.08a183.9,183.9,0,0,0-2-18.69l9.72-35.46a45.53,45.53,0,0,0,5.27,1.41A5.78,5.78,0,0,0,234.49,133.06Z" style="fill:#BA68C8"></path><path d="M243.3,166.63c-.91-8.32-3.47-9.09-8.25-18.82a61,61,0,0,1-4.55-13.5s2.64-5.85,4-5.44C235.94,140.86,244,150.87,243.3,166.63Z" style="fill:#37474f"></path><path d="M273.33,224.85l-.16,6s5.56-1.68,8.3-4.52l-.24-6Z" style="fill:#263238"></path><path d="M255.45,133.22l-.16,3.39s6.15,5.11,12.56,17.31c7.3,13.19,5.3,23.45,5.68,31.93s-.2,39-.2,39a13.8,13.8,0,0,0,7.89-4.23c3.75-3.87,0-8.07-1.2-16.69s-2.26-19.09-.23-23,7-11.66,1.14-20.53c-3.44-5.18-13.13-18.8-19.28-24.91A13.51,13.51,0,0,1,255.45,133.22Z" style="fill:#BA68C8"></path><path d="M255.39,131.16c.72.11,4,5.52,6.72,9.83s8.61,13.79,9.47,22c-1.3-3.71-8.81-18.15-16.29-26.37Z" style="fill:#37474f"></path></g><path d="M225.55,133.54c-4.64-3.64-6-6.31-9.64-11.82-2.48-3.8-11.78-20.24-11.78-20.24s1.47-25.23,1.88-30c.52-6.15,1-6.91,2.52-9.28.46-.74.88-1.5,1.37-2.22s1-1.24,1.43-1.91a44,44,0,0,0,3.74-7.87c.92-2.35,1.85-4.69,2.77-7a8.09,8.09,0,0,1,.33-.81,1.11,1.11,0,0,0,.12-.3,1.39,1.39,0,0,0-.22-.86,2.18,2.18,0,0,0-1.45-1.06,3.28,3.28,0,0,0-2.73.89,9,9,0,0,0-1.75,2.38,10.93,10.93,0,0,1-1.7,2.43c-.33.33-1.38,1.09-1.74.4a1.88,1.88,0,0,1-.1-.85,10.12,10.12,0,0,1,0-1.35l.21-2.13c.07-.76.2-1.55.2-2.32.23-2.57.62-4.82.92-8s-.11-5.48-1.68-5.89-2.18,1.74-2.52,2.74c-.1.3-.16.61-.24.92a2.89,2.89,0,0,0-5,1.78A2.74,2.74,0,0,0,197.16,34a3.14,3.14,0,0,0-3.16.91,8.22,8.22,0,0,0-1.68,3,48.38,48.38,0,0,0-1.68,5.37,29,29,0,0,0-.58,3.92c-.12,1.19-.21,2.38-.27,3.58a63.7,63.7,0,0,0,.05,7.18c.07,1.19.19,2.39.33,3.58q.11.9.24,1.8c0,.29.12.6.14.89s0,.32,0,.48a19.36,19.36,0,0,1-.15,3.88c-.15,1.35-.33,2.69-.53,4-.76,5.34-2,10.13-5.18,25.88-1.39,6.9-3.31,7.45,3.31,19.64,5.48,10.07,10,16.59,14.53,24.5a163.26,163.26,0,0,1,12.61,28.72c4.31.12,9.73-7.07,10.95-12.09C228.75,148.37,228.39,140.42,225.55,133.54Z" style="fill:#ffbda7"></path><path d="M228.23,133.89c-2.19-1.38-1.46-1.37-4.88-5.28s-4.43-5-10.68-14.07c-6.5-9.47-8-13.16-8-13.16l.54-18.13s-2.46,1.76-8.61.26-8.07-3.5-8.07-3.5-3,10.51-5.06,19.68-.58,10.55,1.13,14.66,14.28,24.24,18.72,33.47,10.51,22.79,12.21,26.43c3.91,6.81,12.39-12.33,13.86-21.87A48,48,0,0,0,228.23,133.89Z" style="fill:#BA68C8"></path><path d="M228.23,133.89c-2.19-1.38-1.46-1.37-4.88-5.28s-4.43-5-10.68-14.07c-6.5-9.47-8-13.16-8-13.16l.54-18.13s-2.46,1.76-8.61.26-8.07-3.5-8.07-3.5-3,10.51-5.06,19.68-.58,10.55,1.13,14.66,14.28,24.24,18.72,33.47,10.51,22.79,12.21,26.43c3.91,6.81,12.39-12.33,13.86-21.87A48,48,0,0,0,228.23,133.89Z" style="opacity:0.15"></path><path d="M189.22,76.6l-2.23,9a22.1,22.1,0,0,0,10.06,4.16c6.42,1.05,8-.36,8-.36l.45-9.51s-.83.6-7.48.07C191.75,79.42,189.22,76.6,189.22,76.6Z"></path><path d="M204.08,49a7.68,7.68,0,0,0-3.21,2.1,13.89,13.89,0,0,0-2.18,2.82,11.61,11.61,0,0,0-1.31,3.25,12,12,0,0,0-.25,1.79,2.55,2.55,0,0,0,.22,1.57.35.35,0,0,0,.59,0,4.77,4.77,0,0,0,.33-1.56,14.39,14.39,0,0,1,1.8-4.83,13,13,0,0,1,2-2.53,13.16,13.16,0,0,1,1.21-1,10.65,10.65,0,0,0,1.26-1C204.84,49.39,204.43,48.92,204.08,49Z" style="fill:#f0997a"></path></g></g></g><g id="freepik--character-1--inject-2"><g id="freepik--character--inject-2"><g id="freepik--bottom--inject-2"><path d="M168.66,320.62s-13.7,3.32-20.81,9.14S137.43,340.67,135,343.3a30.43,30.43,0,0,1-4.11,3.59c-1.68.47-5.78,1.84-7.06,2.1-3.68.74-6.54,2.37-7,5.06s-2.75,6.43-4.81,11a12,12,0,0,0,2.26,13c3,3.18,5.13,3.61,5.82,1.18a45.68,45.68,0,0,1,8.11-15c2.63-3.25,6-4.67,10.76-7s23.95-11.85,28.23-15.07c7.62-5.74,7.6-12.69,1.47-21.45Z" style="fill:#ffc4c3"></path><path d="M120.37,384.86a3.77,3.77,0,0,1-3.7.5c-1.67-.94-5-4.21-6.14-9.58s-.56-7.15.51-9.79,2.3-5.14,2-7.64c-.27-2.32-.53-5.91-.07-6.82s3.6-1.82,3.6-1.82Z" style="fill:#263238"></path><path d="M130.84,346.89a1.66,1.66,0,0,0-1.14-.17c-.91.12-3.46.75-5,.86a38.09,38.09,0,0,0-9.17,2.57c-1.49.79-.9,5.58-1,8.12a21.9,21.9,0,0,1-1.93,7.65,16,16,0,0,0-.28,10.68c1.44,4,4.37,8,6.66,8.4,2.83.5,5.18,0,6-6.85.14-1.28,1-5.4,1.44-7a25.84,25.84,0,0,1,1.81-5.15,16.65,16.65,0,0,1,1.94-3.24,9.12,9.12,0,0,1,1.62-1.33,18.64,18.64,0,0,1,1.84-1.19c.35-.21.76-.46.82-.85a1.27,1.27,0,0,0-.2-.79,22.08,22.08,0,0,0-2.32-3.65,2.7,2.7,0,0,0-1.36-1.05,2.39,2.39,0,0,0-1.24.11,9.88,9.88,0,0,1-1.21.35.86.86,0,0,1-.45,0c-.28-.13-.22-.5-.12-.73a15.82,15.82,0,0,1,1.43-2.22c.26-.4.05-1.72.21-2.16a10.12,10.12,0,0,1,.33-1.23A2.72,2.72,0,0,1,130.84,346.89Z" style="fill:#37474f"></path><path d="M112.61,365.92a31.3,31.3,0,0,0,1.22-3.44h0s-.37,7.1,2.61,9.26c1.93,1.39,3.19,0,3.68-.18s4.2,3.56,5,5.24h0c-.11.58-.19,1.06-.22,1.35-.77,6.81-3.12,7.35-6,6.85-2.29-.4-4.94-3.16-6.76-8.29A16.46,16.46,0,0,1,112.61,365.92Z" style="fill:#455a64"></path><path d="M121.41,370.61c-.23,4.15-1.5,2.82-2,1.85s.77-7.14,2.55-11.9c1.85-5,4.07-9.47,4.74-11.31.26-.69.59-1.45.92-2.13.88-.18,1.67-.34,2.1-.4a1.66,1.66,0,0,1,1.14.17L129.65,348a3,3,0,0,0-.37,1.26,4.71,4.71,0,0,1-.34,2.13,15.82,15.82,0,0,0-1.43,2.22C124.4,358.15,121.65,366.46,121.41,370.61Z" style="fill:#263238"></path><path d="M119.86,372a.34.34,0,0,1,0-.26.39.39,0,0,1,.51-.22,9.34,9.34,0,0,1,5.14,5.81.38.38,0,0,1-.3.46.41.41,0,0,1-.48-.29,8.63,8.63,0,0,0-4.64-5.27A.39.39,0,0,1,119.86,372Z" style="fill:#f0f0f0"></path><path d="M120.61,368.21a.36.36,0,0,1,0-.25.41.41,0,0,1,.51-.24,9.38,9.38,0,0,1,5.28,5.7.38.38,0,0,1-.29.47.4.4,0,0,1-.48-.29,8.72,8.72,0,0,0-4.77-5.16A.38.38,0,0,1,120.61,368.21Z" style="fill:#f0f0f0"></path><path d="M121.71,364.57a.34.34,0,0,1,0-.26.4.4,0,0,1,.51-.22,9.34,9.34,0,0,1,5.14,5.82.38.38,0,0,1-.3.45.4.4,0,0,1-.48-.29A8.69,8.69,0,0,0,122,364.8.39.39,0,0,1,121.71,364.57Z" style="fill:#f0f0f0"></path><path d="M122.73,361.34a.33.33,0,0,1,0-.26.39.39,0,0,1,.5-.24,9.44,9.44,0,0,1,5.4,5.6.39.39,0,0,1-.28.47.4.4,0,0,1-.49-.27,8.76,8.76,0,0,0-4.88-5.08A.38.38,0,0,1,122.73,361.34Z" style="fill:#f0f0f0"></path><path d="M124,357.8a.39.39,0,0,1,0-.26.39.39,0,0,1,.5-.24,9.55,9.55,0,0,1,5.65,6.22.37.37,0,0,1-.29.46.39.39,0,0,1-.48-.27,8.88,8.88,0,0,0-5.12-5.69A.37.37,0,0,1,124,357.8Z" style="fill:#f0f0f0"></path><path d="M148.89,284.12C159.53,304.6,171,322.87,171,322.87c-5.47,9.08-17.24,12.63-27.09,14.05,0,0-11.51-13.18-17.73-19.07-2.22-2.1-10.11-10.78-10.38-15s33.09-18.74,33.09-18.74" style="fill:#37474f"></path><path d="M132.45,319.55l.81-7.19s6.52-4.7,10.65-15.53l-16.46,9L127,318.62c2.61,2.54,6.42,6.56,10.12,10.53h0Z" style="fill:#263238"></path><path d="M128.88,425.79a64.71,64.71,0,0,1-12.53-16.89c-2.16-4.24-1.16-9.46-.78-13.15s4.21-38,4.78-43.91c1-10.37,3.88-43.53,3.88-43.53L97.77,282.26l-.6-.37c-3.61,9.46-4.58,16.61-2.76,32.16s2.52,35.88,2.52,35.88a75.38,75.38,0,0,0-.53,18.78c1,10.22,4.07,27.06,4.08,27.12.11,1.14.21,2.25.3,3.29-.3,1.92-1.36,6.58-1.7,8-1,4.05-.61,7.71,2,9.47s5.43,5.94,9.19,10.25A14.35,14.35,0,0,0,124.9,431C129.65,429.59,131.1,427.68,128.88,425.79Z" style="fill:#ffc4c3"></path><path d="M96.92,280.33a57.68,57.68,0,0,0-3.78,20.4c.13,10.94,2.32,41.19,2.32,41.19s3.54,3.86,15.26,4.2,16.23-1.8,16.23-1.8l2.78-33.18s17.37-11.6,19.16-27Z" style="fill:#37474f"></path><path d="M135,428.34c.26,0,.31,2.9-1.22,3.94-1.77,1.2-6.76,2.92-12.91,1.38s-7.74-3-10-5.38-4.28-4.84-7-5.8c-2.56-.88-6.43-2.41-7.17-3.31s-.2-4.51-.2-4.51Z" style="fill:#263238"></path><path d="M100.66,399.33a1.12,1.12,0,0,0-1.15.73c-.31,1-.86,3.84-1.46,5.42a41,41,0,0,0-1.64,10.44c.12,1.89,5.41,3.67,8,5a26.26,26.26,0,0,1,7.07,5.74,19.28,19.28,0,0,0,11,5.57c4.82.54,10.42-.39,11.93-2.47,1.86-2.58,2.39-5.21-4.35-9.35-1.28-.79-5.16-3.72-6.65-4.93a31.07,31.07,0,0,1-4.52-4.36,18.56,18.56,0,0,1-2.47-3.56,9.2,9.2,0,0,1-.63-2.27,24.59,24.59,0,0,1-.39-2.43,1.61,1.61,0,0,0-.49-1.25,1.6,1.6,0,0,0-.92-.19,26.05,26.05,0,0,0-4.91.51,2.92,2.92,0,0,0-1.74.84,2.56,2.56,0,0,0-.47,1.29,10.69,10.69,0,0,1-.21,1.38.77.77,0,0,1-.24.43c-.26.22-.63,0-.81-.23a18.8,18.8,0,0,1-1.66-2.54c-.28-.46-1.77-.9-2.15-1.28a11.49,11.49,0,0,1-1.13-.94C100.34,400.43,100.62,399.91,100.66,399.33Z" style="fill:#37474f"></path><path d="M111.5,426.69a34.61,34.61,0,0,0-3-2.93h0s7.25,3.9,10.91,2c2.36-1.23,1.54-3.17,1.55-3.75s5.7-2.44,7.85-2.44h0c.55.4,1,.72,1.31.9,6.74,4.14,6.21,6.77,4.35,9.35-1.51,2.08-5.64,3.36-11.86,2.63A20,20,0,0,1,111.5,426.69Z" style="fill:#455a64"></path><path d="M120.56,420.22c4.23,2.29,2.24,2.9,1,2.93s-7.1-4.31-11.23-8.45c-4.31-4.32-8-8.78-9.59-10.37-.59-.59-1.23-1.3-1.79-2,.23-1,.43-1.84.58-2.3a1.61,1.61,0,0,1,1.27-.94l0,1.62a3.61,3.61,0,0,0,1.14,1,5.58,5.58,0,0,1,2.06,1.4,18.8,18.8,0,0,0,1.66,2.54C109,411,116.34,417.92,120.56,420.22Z" style="fill:#263238"></path><path d="M121.3,422.46a.43.43,0,0,1-.27-.13.45.45,0,0,1,0-.63,10.69,10.69,0,0,1,8.51-2.25.44.44,0,0,1,.33.53.44.44,0,0,1-.53.34,9.81,9.81,0,0,0-7.69,2A.41.41,0,0,1,121.3,422.46Z" style="fill:#f0f0f0"></path><path d="M117.68,419.82a.47.47,0,0,1-.27-.12.44.44,0,0,1,0-.63,10.64,10.64,0,0,1,8.45-2.45.45.45,0,0,1,.34.53.44.44,0,0,1-.52.34,9.89,9.89,0,0,0-7.65,2.2A.42.42,0,0,1,117.68,419.82Z" style="fill:#f0f0f0"></path><path d="M114.39,416.91a.43.43,0,0,1-.27-.13.44.44,0,0,1,0-.62,10.61,10.61,0,0,1,8.51-2.25.44.44,0,0,1,.33.53.43.43,0,0,1-.53.33,9.81,9.81,0,0,0-7.69,2A.41.41,0,0,1,114.39,416.91Z" style="fill:#f0f0f0"></path><path d="M111.49,414.3a.47.47,0,0,1-.27-.12.45.45,0,0,1,0-.63,10.65,10.65,0,0,1,8.4-2.61.44.44,0,1,1-.16.87,9.87,9.87,0,0,0-7.6,2.35A.43.43,0,0,1,111.49,414.3Z" style="fill:#f0f0f0"></path><path d="M108.4,411.25a.47.47,0,0,1-.27-.12.44.44,0,0,1,0-.63c1.9-2,5.92-3.17,9.17-2.55a.44.44,0,0,1,.35.51.45.45,0,0,1-.52.36c-2.92-.56-6.67.47-8.35,2.29A.46.46,0,0,1,108.4,411.25Z" style="fill:#f0f0f0"></path><path d="M100,280.56c-2.68,6.9-3.75,20.24-3.14,30.7.49,8.47,2.13,24.76,3,33.1.44.15.91.3,1.42.45-.85-8.13-2.56-25-3.06-33.63-.61-10.58.54-24.13,3.18-30.52Z" style="fill:#BA68C8"></path></g><g id="freepik--top--inject-2"><g id="freepik--arm--inject-2"><path d="M165.29,203.48c-2.62-8.81-4-15.3-4.63-18.49a16.87,16.87,0,0,1-.24-4.2,19.88,19.88,0,0,0-.46-5.45c-.23-1.07-.44-2.15-.66-3.22-.7-2.88-1.78-9.79-5.68-9.48a2.78,2.78,0,0,0-2.45-2.18,5.18,5.18,0,0,1-1.58-.14c-1.07-.81-2.41-1.57-3.76-.87-.34-.78-1-1.78-2-1.52-1.38.66-1.06,2.79-.92,4.07.73,3.27,3.26,7.76,3.52,10.7-.06,1.8-2.23-2.36-2.53-2.68a3,3,0,0,0-2.57-1.1c-1.89.17-.52,2.2-.37,3.27a17.12,17.12,0,0,0,3.08,7.21c.6.71,1.15,1.29,1.64,1.8a9,9,0,0,1,2.45,5.43l2.08,24a81.92,81.92,0,0,1-5.33,8.5c-2.88,4.25-6.63,7-10.82,9.44-5.08,12.6,13,28.59,14.52,21.58,1.32-6.28,5.11-11.6,8.14-17.48,4.87-9.44,5.81-11.35,7.53-14.61C166.44,214,168,212.57,165.29,203.48Z" style="fill:#ffc4c3"></path><path d="M133.06,228.41a22.94,22.94,0,0,0,6.64-4.08,32.24,32.24,0,0,0,5.4-6c1-1.68,3.12-4.57,3.12-4.57a14.27,14.27,0,0,1,7.53,4.32,19.61,19.61,0,0,1,4.6,8.43s-3.44,6.7-5.87,11.13-7,13.57-7,17.77c-3.64,4.18-6.24-1.87-8.69-3.74C131.58,246.14,125.71,232,133.06,228.41Z" style="fill:#37474f"></path><path d="M153.4,178.46a8.51,8.51,0,0,0-.93-2.2,6.18,6.18,0,0,0-3.74-3c-.18,0-.14.18,0,.26.55.53,1.18,1,1.72,1.52a9.4,9.4,0,0,1,1.39,1.8,7.8,7.8,0,0,1,.81,2,6.41,6.41,0,0,1,.21,1.06,2.21,2.21,0,0,0,.22,1c.09.14.37.24.46,0A3.85,3.85,0,0,0,153.4,178.46Z" style="fill:#ffa8a7"></path></g><g id="freepik--chest--inject-2"><path d="M94.84,253.48c-1.19-11.11,0-12.07,1.33-16.09s4.5-7.91,8.28-8.31c0,0,11.82-.89,13.33-1a103.41,103.41,0,0,1,13.12,0c3.27.24,5-.08,7.79,2.31s7.76,7.23,8.5,19.68c1.05,17.47-.27,22.3,2.58,35-4.27,9.7-31.56,16.23-56.05,4.71,0,0,2-9.92,2.53-15.65C96.67,269.57,95.79,262.37,94.84,253.48Z" style="fill:#BA68C8"></path></g><path d="M120,249.74a3.58,3.58,0,1,1-3.65-3.51A3.59,3.59,0,0,1,120,249.74Z" style="fill:#fafafa"></path><path d="M96.17,237.39c3.53-8.1,4.44-8.46,6.19-8.74,2.34-.37,14.6-.49,15.42-.53a105.54,105.54,0,0,1,13.12,0c3.27.24,5.24,0,8,2.37s7.4,6.82,8.19,18.54c-.16-.91-1.19-6.3-3.85-9.61-2.92-3.61-9.66-6.3-9.66-6.3s.06,2.34-3.19,4c-3.79,2-12.43.41-15.91-2.78l-8.8,14.6s-4.74,4.86-10.85,4.53C93.7,243.85,94.47,241.28,96.17,237.39Z" style="fill:#455a64"></path><g id="freepik--arm--inject-2"><path d="M106.27,228.82c-2.19,0-6.14-3.79-9.85-9.95A128.49,128.49,0,0,1,90,207l-.81-24h0c.26-2.09,4-5.45,4.77-8.51s1.08-4.66,1.76-6.94c.64-1.31-1.06-2-2.06-1.36-2.09.42-3,5.34-4.2,4.7-.29-.3.1-1.73.25-2.37.65-3.51,2-8.42,1.86-10.5s-1.6-3.07-2.92-1.84c-.63.62-.52,1-.81,1.42-1-.42-1.67-.37-2.89.56a3.47,3.47,0,0,0-.63.84,2.85,2.85,0,0,0-2.38.55,4.44,4.44,0,0,0-1.4,1.8c-3.24.43-3.88,6.08-4.3,8.75-.19,1.68-.31,3.36-.48,5a19.9,19.9,0,0,0,.15,5.64,15.36,15.36,0,0,1,0,4.69c-.63,4.72-2,15.08-2.71,23.57-.41,4.71-.46,6,1.52,10.11,2.62,5.41,7.21,11,12.32,20.16,3.43,6.14,6,10.32,8,15.65,3.24.65,6.1-1.51,9.13-6.26C108.43,242.12,109,233,106.27,228.82Z" style="fill:#ffc4c3"></path><path d="M106.57,228.55c-1.08-.21-2.48-1.31-4.72-3.16S93.64,214,93.64,214a14,14,0,0,1-5.21,10.56c-5.42,4.43-8.34,3.27-8.34,3.27s4.4,7.55,6.81,12,7.65,13,8.16,15.82c2.81.59,8.25-1.73,11.32-10.31S107.77,230,106.57,228.55Z" style="fill:#37474f"></path><path d="M88.05,172.09a3.32,3.32,0,0,0-2.32.61,6.57,6.57,0,0,0-1.9,1.7,5.38,5.38,0,0,0-.91,5.17c0,.11.19.11.21,0,.11-.76.11-1.52.28-2.27a6.71,6.71,0,0,1,1-2.42,6.48,6.48,0,0,1,3.62-2.47C88.22,172.35,88.16,172.12,88.05,172.09Z" style="fill:#ffa8a7"></path></g><g id="freepik--Head--inject-2"><path d="M118.1,184.23a5.5,5.5,0,0,0-.3-4.44,5.45,5.45,0,0,0-5.65-2.62c-1.14.22-2.24.82-3.4.71-2.23-.21-3.8-3.07-6.24-2.18A6.42,6.42,0,0,0,99.86,178a11.21,11.21,0,0,1-2.36,2.59,7.14,7.14,0,0,1-3.6,1.1,4.2,4.2,0,0,0-4.22,2.8c-.66,1.87,1.18,3.89.71,5.81-.35,1.45-1.78,2.32-3,3.14s-2.53,2-2.35,3.53c.15,1.33,1.42,2.21,2.6,2.86s2.49,1.37,2.88,2.65c.54,1.75-.94,3.67-.32,5.39.46,1.27,1.89,1.9,3.22,2.13a14.45,14.45,0,0,1,3.95.81,17.83,17.83,0,0,1,2.64,2,3.43,3.43,0,0,0,3.07.81c1.4-.47,2-2.22,3.21-3,1.65-1,4-.13,5.61-1.25s1.45-3.36,1-5.16-1.2-3.76-.44-5.47a6.11,6.11,0,0,1,3-2.66,11.53,11.53,0,0,0,3.4-2.19,3,3,0,0,0,.5-3.72,2.87,2.87,0,0,0-1.1-.88c-.31-.13-.53-.17-.71-.49a4.51,4.51,0,0,1-.26-2.67,4.46,4.46,0,0,1,.67-1.3C118,184.59,118,184.41,118.1,184.23Z" style="fill:#f0997a"></path><path d="M106.79,183.08c-2.88,2.27-6.29,7.2-4,10.75,3.55,2.6,7.88-2.33,9.45-5.28C114.11,184.12,111.59,179.29,106.79,183.08Z" style="fill:#BA68C8"></path><path d="M143.11,186.83c5,8.34,1.48,16.08-.38,17.46l-29.15,19.65c-2-4.56-8.74-6.63-12.06-16.26-1.93-5.58-.73-14.43,4.23-17.52C109,176.89,134.7,172.77,143.11,186.83Z" style="fill:#f0997a"></path><path d="M107.49,215.6a7.52,7.52,0,0,1-3.56-3.57c-1.1-2.13-1.1-5.3-.36-6.59a4.41,4.41,0,0,1,4.49-2.19,3.7,3.7,0,0,1,2.8,2.28c.42.75,1.14,2.67,2.19,2.32,1.57-.52.94-3.77,1-5.35.11-9.55,7.14-13.83,14.22-13.25,6.57-2.92,11.12.5,13.33,5.3,1.65,3.58.46,7.43.72,8.55a18.36,18.36,0,0,1,1.34,5.35A13.83,13.83,0,0,1,141.34,219a15.16,15.16,0,0,1-10.71,5.77h0l0,5.8c6.14,6.54-11.65,8.64-17.64-.56l-.6-15.44A5.23,5.23,0,0,1,107.49,215.6Z" style="fill:#ffc4c3"></path><path d="M130.62,224.7a24,24,0,0,1-11.57-2,11.17,11.17,0,0,1-5.06-5.8,7.34,7.34,0,0,0,3.24,7.08c5,3.38,13.38,3.18,13.38,3.18Z" style="fill:#ffa8a7"></path><path d="M135.64,198.51l3.78.83a2,2,0,0,0-1.49-2.37A1.93,1.93,0,0,0,135.64,198.51Z" style="fill:#263238"></path><path d="M120,201.61l3.07-2.38a1.93,1.93,0,0,0-2.72-.41A2,2,0,0,0,120,201.61Z" style="fill:#263238"></path><path d="M125.34,204.52a1.69,1.69,0,1,1-1.86-1.5A1.69,1.69,0,0,1,125.34,204.52Z" style="fill:#263238"></path><path d="M138.68,202.74a1.69,1.69,0,1,1-1.86-1.5A1.69,1.69,0,0,1,138.68,202.74Z" style="fill:#263238"></path><path d="M124.86,213.46c1-1.26,2.17.1,4.68.31s3.84-1.24,4.44.33c.5,1.3-.82,4.29-5,4.22C125.48,218.27,123.94,214.58,124.86,213.46Z" style="fill:#b16668"></path><path d="M129.54,213.77a30.36,30.36,0,0,1-3.5-.83l0,1.16a5.33,5.33,0,0,0,2.79.92,7.22,7.22,0,0,0,3.9-.56l.23-1.1A18.46,18.46,0,0,1,129.54,213.77Z" style="fill:#fafafa"></path><path d="M129,218.32a6.42,6.42,0,0,0,2.22-.32,4.79,4.79,0,0,0-5.05-2.49,4.87,4.87,0,0,0-1.15.39A4.52,4.52,0,0,0,129,218.32Z" style="fill:#ffa8a7"></path><path d="M144.05,205.73a2.56,2.56,0,0,1-2.75,2.38,2.61,2.61,0,0,1-2.3-2.85,2.56,2.56,0,0,1,2.75-2.38A2.61,2.61,0,0,1,144.05,205.73Z" style="fill:#ffa8a7"></path><path d="M116.42,208.87a2.54,2.54,0,0,0,3,2,2.64,2.64,0,0,0,1.9-3.15,2.55,2.55,0,0,0-3-2A2.63,2.63,0,0,0,116.42,208.87Z" style="fill:#ffa8a7"></path><polygon points="129.74 201.05 131.34 210.28 136.24 207.65 129.74 201.05" style="fill:#ffa8a7"></polygon><path d="M132,186.91c3.86.82,8,2.53,9.8,6.36a6.09,6.09,0,0,1,.85,2.31c0,.37-.57.45-.85.53a20.14,20.14,0,0,1-5.36.66.81.81,0,0,1-1-.6,10.66,10.66,0,0,0-1.11-2.29c-.24-.38-1-1.37-.95-.54a19.51,19.51,0,0,1,0,3.74,1.36,1.36,0,0,1-.77.82c-2.17,1.14-6,1.57-6.91,1.67a3.79,3.79,0,0,1-1.73-.08c-.7-.43-.9-1.62-.93-4.11,0-.28,0-.5-.11-.54-.71.12-1.44,3-1.54,3.4s-.1.92-1.37,1.15a14.26,14.26,0,0,1-6.56-.16c-.12,0-.33,0-.41-.12a2.25,2.25,0,0,1-.18-1.15c0-2,1.21-3.58,2.41-5a18.15,18.15,0,0,1,4.17-3.68C124.31,186.64,127.65,186.22,132,186.91Z" style="fill:#f0997a"></path></g></g></g></g></svg>